Rosalind Serif-Italic.ufo
<glyph name="quotedbl" format="1">
  <advance width="866"/>
  <unicode hex="0022"/>
  <note>
	quotedbl
  </note>
  <outline>
    <contour>
      <point x="479" y="1451" type="line"/>
      <point x="337" y="831" type="line"/>
      <point x="215" y="831" type="line"/>
      <point x="281" y="1451" type="line"/>
    </contour>
    <contour>
      <point x="892" y="1451" type="line"/>
      <point x="750" y="831" type="line"/>
      <point x="628" y="831" type="line"/>
      <point x="694" y="1451" type="line"/>
    </contour>
  </outline>
</glyph>
<glyph name="numbersign" format="1">
  <advance width="1208"/>
  <unicode hex="0023"/>
  <note>
	numbersign
  </note>
  <outline>
    <contour>
      <point x="95" y="314" type="line"/>
      <point x="103" y="426" type="line"/>
      <point x="296" y="426" type="line"/>
      <point x="351" y="771" type="line"/>
      <point x="163" y="771" type="line"/>
      <point x="169" y="882" type="line"/>
      <point x="368" y="882" type="line"/>
      <point x="414" y="1167" type="line"/>
      <point x="557" y="1167" type="line"/>
      <point x="513" y="882" type="line"/>
      <point x="779" y="882" type="line"/>
      <point x="827" y="1167" type="line"/>
      <point x="971" y="1167" type="line"/>
      <point x="924" y="882" type="line"/>
      <point x="1123" y="882" type="line"/>
      <point x="1116" y="771" type="line"/>
      <point x="907" y="771" type="line"/>
      <point x="852" y="426" type="line"/>
      <point x="1047" y="426" type="line"/>
      <point x="1039" y="314" type="line"/>
      <point x="834" y="314" type="line"/>
      <point x="785" y="0" type="line"/>
      <point x="646" y="0" type="line"/>
      <point x="690" y="314" type="line"/>
      <point x="423" y="314" type="line"/>
      <point x="370" y="0" type="line"/>
      <point x="229" y="0" type="line"/>
      <point x="279" y="314" type="line"/>
    </contour>
    <contour>
      <point x="762" y="771" type="line"/>
      <point x="496" y="771" type="line"/>
      <point x="441" y="426" type="line"/>
      <point x="707" y="426" type="line"/>
    </contour>
  </outline>
</glyph>
<glyph name="dollar" format="1">
  <advance width="1036"/>
  <unicode hex="0024"/>
  <note>
	dollar
  </note>
  <outline>
    <contour>
      <point x="241" y="297" type="line"/>
      <point x="260" y="138" type="line"/>
      <point x="311" y="95"/>
      <point x="395" y="71"/>
      <point x="471" y="71" type="curve" smooth="yes"/>
      <point x="554" y="71"/>
      <point x="641" y="102"/>
      <point x="694" y="169" type="curve" smooth="yes"/>
      <point x="721" y="202"/>
      <point x="734" y="244"/>
      <point x="734" y="295" type="curve" smooth="yes"/>
      <point x="734" y="382"/>
      <point x="691" y="449"/>
      <point x="628" y="500" type="curve" smooth="yes"/>
      <point x="597" y="525"/>
      <point x="557" y="553"/>
      <point x="508" y="584" type="curve" smooth="yes"/>
      <point x="375" y="669"/>
      <point x="309" y="712"/>
      <point x="255" y="800" type="curve" smooth="yes"/>
      <point x="228" y="844"/>
      <point x="214" y="896"/>
      <point x="214" y="956" type="curve" smooth="yes"/>
      <point x="214" y="1092"/>
      <point x="282" y="1200"/>
      <point x="393" y="1264" type="curve" smooth="yes"/>
      <point x="448" y="1296"/>
      <point x="510" y="1316"/>
      <point x="579" y="1323" type="curve"/>
      <point x="605" y="1480" type="line"/>
      <point x="760" y="1480" type="line"/>
      <point x="734" y="1321" type="line"/>
      <point x="837" y="1310"/>
      <point x="916" y="1282"/>
      <point x="960" y="1253" type="curve"/>
      <point x="919" y="1041" type="line"/>
      <point x="817" y="1041" type="line"/>
      <point x="786" y="1182" type="line"/>
      <point x="749" y="1213"/>
      <point x="671" y="1233"/>
      <point x="604" y="1233" type="curve" smooth="yes"/>
      <point x="536" y="1233"/>
      <point x="459" y="1205"/>
      <point x="412" y="1142" type="curve" smooth="yes"/>
      <point x="388" y="1110"/>
      <point x="376" y="1069"/>
      <point x="376" y="1020" type="curve" smooth="yes"/>
      <point x="376" y="932"/>
      <point x="421" y="866"/>
      <point x="484" y="817" type="curve" smooth="yes"/>
      <point x="515" y="792"/>
      <point x="557" y="764"/>
      <point x="610" y="732" type="curve" smooth="yes"/>
      <point x="735" y="653"/>
      <point x="807" y="605"/>
      <point x="860" y="519" type="curve" smooth="yes"/>
      <point x="887" y="476"/>
      <point x="900" y="426"/>
      <point x="900" y="370" type="curve" smooth="yes"/>
      <point x="900" y="226"/>
      <point x="827" y="114"/>
      <point x="711" y="47" type="curve" smooth="yes"/>
      <point x="652" y="14"/>
      <point x="586" y="-7"/>
      <point x="513" y="-15" type="curve"/>
      <point x="483" y="-198" type="line"/>
      <point x="329" y="-198" type="line"/>
      <point x="358" y="-16" type="line"/>
      <point x="237" y="-7"/>
      <point x="126" y="27"/>
      <point x="90" y="56" type="curve"/>
      <point x="130" y="297" type="line"/>
    </contour>
  </outline>
</glyph>
<glyph name="percent" format="1">
  <advance width="1643"/>
  <unicode hex="0025"/>
  <note>
	percent
  </note>
  <outline>
    <contour>
      <point x="1292" y="1316" type="line"/>
      <point x="477" y="0" type="line"/>
      <point x="339" y="0" type="line"/>
      <point x="1153" y="1316" type="line"/>
    </contour>
    <contour>
      <point x="170" y="1028"/>
      <point x="237" y="1151"/>
      <point x="346" y="1221" type="curve" smooth="yes"/>
      <point x="400" y="1256"/>
      <point x="460" y="1273"/>
      <point x="526" y="1273" type="curve" smooth="yes"/>
      <point x="690" y="1273"/>
      <point x="766" y="1175"/>
      <point x="766" y="1019" type="curve" smooth="yes"/>
      <point x="766" y="892"/>
      <point x="705" y="767"/>
      <point x="597" y="695" type="curve" smooth="yes"/>
      <point x="542" y="659"/>
      <point x="480" y="641"/>
      <point x="411" y="641" type="curve" smooth="yes"/>
      <point x="310" y="641"/>
      <point x="234" y="690"/>
      <point x="198" y="771" type="curve" smooth="yes"/>
      <point x="179" y="811"/>
      <point x="170" y="856"/>
      <point x="170" y="907" type="curve" smooth="yes"/>
    </contour>
    <contour>
      <point x="609" y="1121"/>
      <point x="574" y="1185"/>
      <point x="502" y="1185" type="curve" smooth="yes"/>
      <point x="423" y="1185"/>
      <point x="367" y="1119"/>
      <point x="340" y="1033" type="curve" smooth="yes"/>
      <point x="327" y="990"/>
      <point x="320" y="948"/>
      <point x="320" y="909" type="curve" smooth="yes"/>
      <point x="320" y="798"/>
      <point x="359" y="729"/>
      <point x="436" y="729" type="curve" smooth="yes"/>
      <point x="513" y="729"/>
      <point x="567" y="799"/>
      <point x="591" y="887" type="curve" smooth="yes"/>
      <point x="603" y="931"/>
      <point x="609" y="973"/>
      <point x="609" y="1012" type="curve" smooth="yes"/>
    </contour>
    <contour>
      <point x="1410" y="688"/>
      <point x="1486" y="590"/>
      <point x="1486" y="433" type="curve" smooth="yes"/>
      <point x="1486" y="306"/>
      <point x="1425" y="181"/>
      <point x="1317" y="109" type="curve" smooth="yes"/>
      <point x="1262" y="73"/>
      <point x="1200" y="55"/>
      <point x="1130" y="55" type="curve" smooth="yes"/>
      <point x="1029" y="55"/>
      <point x="954" y="104"/>
      <point x="918" y="185" type="curve" smooth="yes"/>
      <point x="899" y="225"/>
      <point x="890" y="271"/>
      <point x="890" y="322" type="curve" smooth="yes"/>
      <point x="890" y="443"/>
      <point x="957" y="564"/>
      <point x="1066" y="635" type="curve" smooth="yes"/>
      <point x="1120" y="670"/>
      <point x="1180" y="688"/>
      <point x="1246" y="688" type="curve" smooth="yes"/>
    </contour>
    <contour>
      <point x="1234" y="144"/>
      <point x="1287" y="214"/>
      <point x="1311" y="302" type="curve" smooth="yes"/>
      <point x="1323" y="345"/>
      <point x="1329" y="387"/>
      <point x="1329" y="427" type="curve" smooth="yes"/>
      <point x="1329" y="535"/>
      <point x="1294" y="599"/>
      <point x="1222" y="599" type="curve" smooth="yes"/>
      <point x="1142" y="599"/>
      <point x="1086" y="534"/>
      <point x="1060" y="448" type="curve" smooth="yes"/>
      <point x="1047" y="405"/>
      <point x="1040" y="363"/>
      <point x="1040" y="323" type="curve" smooth="yes"/>
      <point x="1040" y="212"/>
      <point x="1078" y="144"/>
      <point x="1155" y="144" type="curve" smooth="yes"/>
    </contour>
  </outline>
</glyph>
<glyph name="ampersand" format="1">
  <advance width="1328"/>
  <unicode hex="0026"/>
  <note>
	ampersand
  </note>
  <outline>
    <contour>
      <point x="758" y="672" type="line"/>
      <point x="778" y="692"/>
      <point x="824" y="714"/>
      <point x="891" y="714" type="curve" smooth="yes"/>
      <point x="913" y="714"/>
      <point x="945" y="711"/>
      <point x="986" y="704" type="curve"/>
      <point x="1025" y="699"/>
      <point x="1068" y="693"/>
      <point x="1103" y="693" type="curve" smooth="yes"/>
      <point x="1196" y="693"/>
      <point x="1248" y="732"/>
      <point x="1264" y="832" type="curve"/>
      <point x="1331" y="832" type="line"/>
      <point x="1331" y="660"/>
      <point x="1272" y="560"/>
      <point x="1140" y="560" type="curve" smooth="yes"/>
      <point x="1124" y="560"/>
      <point x="1108" y="561"/>
      <point x="1093" y="562" type="curve"/>
      <point x="1096" y="543"/>
      <point x="1097" y="524"/>
      <point x="1097" y="503" type="curve" smooth="yes"/>
      <point x="1097" y="360"/>
      <point x="1046" y="240"/>
      <point x="957" y="151" type="curve"/>
      <point x="984" y="130"/>
      <point x="1010" y="115"/>
      <point x="1033" y="104" type="curve"/>
      <point x="1080" y="87"/>
      <point x="1141" y="75"/>
      <point x="1186" y="74" type="curve"/>
      <point x="1176" y="0" type="line"/>
      <point x="1116" y="-15"/>
      <point x="1074" y="-17"/>
      <point x="1021" y="-17" type="curve" smooth="yes"/>
      <point x="949" y="-17"/>
      <point x="875" y="7"/>
      <point x="815" y="52" type="curve"/>
      <point x="720" y="7"/>
      <point x="611" y="-15"/>
      <point x="488" y="-15" type="curve" smooth="yes"/>
      <point x="332" y="-15"/>
      <point x="190" y="30"/>
      <point x="106" y="130" type="curve" smooth="yes"/>
      <point x="64" y="180"/>
      <point x="43" y="242"/>
      <point x="43" y="316" type="curve" smooth="yes"/>
      <point x="43" y="427"/>
      <point x="102" y="510"/>
      <point x="187" y="574" type="curve" smooth="yes"/>
      <point x="230" y="605"/>
      <point x="283" y="637"/>
      <point x="346" y="670" type="curve"/>
      <point x="302" y="771"/>
      <point x="269" y="897"/>
      <point x="269" y="988" type="curve" smooth="yes"/>
      <point x="269" y="1124"/>
      <point x="342" y="1233"/>
      <point x="462" y="1290" type="curve" smooth="yes"/>
      <point x="522" y="1318"/>
      <point x="588" y="1332"/>
      <point x="661" y="1332" type="curve" smooth="yes"/>
      <point x="798" y="1332"/>
      <point x="882" y="1282"/>
      <point x="919" y="1210" type="curve" smooth="yes"/>
      <point x="938" y="1173"/>
      <point x="947" y="1134"/>
      <point x="947" y="1091" type="curve" smooth="yes"/>
      <point x="947" y="975"/>
      <point x="872" y="884"/>
      <point x="776" y="819" type="curve" smooth="yes"/>
      <point x="728" y="786"/>
      <point x="664" y="748"/>
      <point x="583" y="703" type="curve" smooth="yes"/>
      <point x="528" y="672" type="line"/>
      <point x="637" y="478"/>
      <point x="755" y="325"/>
      <point x="883" y="212" type="curve"/>
      <point x="924" y="272"/>
      <point x="939" y="354"/>
      <point x="939" y="465" type="curve" smooth="yes"/>
      <point x="939" y="506"/>
      <point x="933" y="546"/>
      <point x="920" y="585" type="curve"/>
      <point x="886" y="586" type="line" smooth="yes"/>
      <point x="839" y="586"/>
      <point x="790" y="570"/>
      <point x="758" y="553" type="curve"/>
    </contour>
    <contour>
      <point x="609" y="805"/>
      <point x="688" y="859"/>
      <point x="737" y="939" type="curve" smooth="yes"/>
      <point x="762" y="978"/>
      <point x="774" y="1023"/>
      <point x="774" y="1073" type="curve" smooth="yes"/>
      <point x="774" y="1169"/>
      <point x="741" y="1243"/>
      <point x="640" y="1243" type="curve" smooth="yes"/>
      <point x="553" y="1243"/>
      <point x="489" y="1200"/>
      <point x="455" y="1130" type="curve" smooth="yes"/>
      <point x="438" y="1095"/>
      <point x="429" y="1055"/>
      <point x="429" y="1011" type="curve" smooth="yes"/>
      <point x="429" y="914"/>
      <point x="455" y="821"/>
      <point x="490" y="744" type="curve"/>
    </contour>
    <contour>
      <point x="639" y="212"/>
      <point x="564" y="308"/>
      <point x="509" y="392" type="curve" smooth="yes"/>
      <point x="481" y="433"/>
      <point x="447" y="487"/>
      <point x="408" y="553" type="curve" smooth="yes"/>
      <point x="390" y="585" type="line"/>
      <point x="283" y="508"/>
      <point x="224" y="427"/>
      <point x="224" y="320" type="curve" smooth="yes"/>
      <point x="224" y="213"/>
      <point x="280" y="141"/>
      <point x="365" y="106" type="curve" smooth="yes"/>
      <point x="407" y="89"/>
      <point x="454" y="80"/>
      <point x="506" y="80" type="curve" smooth="yes"/>
      <point x="605" y="80"/>
      <point x="685" y="91"/>
      <point x="747" y="113" type="curve"/>
    </contour>
  </outline>
</glyph>
<glyph name="quotesingle" format="1">
  <advance width="453"/>
  <unicode hex="0027"/>
  <note>
	quotesingle
  </note>
  <outline>
    <contour>
      <point x="471" y="1451" type="line"/>
      <point x="329" y="831" type="line"/>
      <point x="207" y="831" type="line"/>
      <point x="273" y="1451" type="line"/>
    </contour>
  </outline>
</glyph>
<glyph name="parenleft" format="1">
  <advance width="735"/>
  <unicode hex="0028"/>
  <note>
	parenleft
  </note>
  <outline>
    <contour>
      <point x="227" y="923"/>
      <point x="386" y="1185"/>
      <point x="538" y="1345" type="curve" smooth="yes"/>
      <point x="613" y="1425"/>
      <point x="671" y="1476"/>
      <point x="711" y="1498" type="curve"/>
      <point x="788" y="1447" type="line"/>
      <point x="723" y="1406"/>
      <point x="597" y="1262"/>
      <point x="489" y="1038" type="curve" smooth="yes"/>
      <point x="435" y="926"/>
      <point x="396" y="802"/>
      <point x="372" y="665" type="curve"/>
      <point x="361" y="578"/>
      <point x="355" y="503"/>
      <point x="355" y="440" type="curve" smooth="yes"/>
      <point x="355" y="209"/>
      <point x="416" y="18"/>
      <point x="485" y="-98" type="curve" smooth="yes"/>
      <point x="520" y="-157"/>
      <point x="550" y="-197"/>
      <point x="576" y="-219" type="curve"/>
      <point x="482" y="-275" type="line"/>
      <point x="468" y="-275" type="line"/>
      <point x="404" y="-232"/>
      <point x="302" y="-118"/>
      <point x="229" y="84" type="curve" smooth="yes"/>
      <point x="192" y="185"/>
      <point x="174" y="301"/>
      <point x="174" y="434" type="curve" smooth="yes"/>
      <point x="174" y="494"/>
      <point x="178" y="557"/>
      <point x="187" y="623" type="curve" smooth="yes"/>
    </contour>
  </outline>
</glyph>
<glyph name="parenright" format="1">
  <advance width="736"/>
  <unicode hex="0029"/>
  <note>
	parenright
  </note>
  <outline>
    <contour>
      <point x="526" y="305"/>
      <point x="367" y="43"/>
      <point x="215" y="-117" type="curve" smooth="yes"/>
      <point x="139" y="-197"/>
      <point x="81" y="-248"/>
      <point x="41" y="-270" type="curve"/>
      <point x="-35" y="-218" type="line"/>
      <point x="30" y="-177"/>
      <point x="155" y="-34"/>
      <point x="264" y="190" type="curve" smooth="yes"/>
      <point x="318" y="302"/>
      <point x="357" y="426"/>
      <point x="380" y="563" type="curve"/>
      <point x="391" y="650"/>
      <point x="397" y="725"/>
      <point x="397" y="788" type="curve" smooth="yes"/>
      <point x="397" y="1019"/>
      <point x="336" y="1210"/>
      <point x="268" y="1327" type="curve" smooth="yes"/>
      <point x="233" y="1385"/>
      <point x="203" y="1425"/>
      <point x="176" y="1447" type="curve"/>
      <point x="270" y="1503" type="line"/>
      <point x="285" y="1503" type="line"/>
      <point x="349" y="1460"/>
      <point x="451" y="1347"/>
      <point x="524" y="1145" type="curve" smooth="yes"/>
      <point x="561" y="1044"/>
      <point x="579" y="927"/>
      <point x="579" y="794" type="curve" smooth="yes"/>
      <point x="579" y="735"/>
      <point x="575" y="672"/>
      <point x="566" y="605" type="curve" smooth="yes"/>
    </contour>
  </outline>
</glyph>
<glyph name="asterisk" format="1">
  <advance width="1174"/>
  <unicode hex="002A"/>
  <note>
	asterisk
  </note>
  <outline>
    <contour>
      <point x="516" y="957" type="line"/>
      <point x="611" y="989" type="line"/>
      <point x="523" y="1021" type="line"/>
      <point x="267" y="1133" type="line"/>
      <point x="366" y="1277" type="line"/>
      <point x="577" y="1103" type="line"/>
      <point x="645" y="1038" type="line"/>
      <point x="636" y="1134" type="line"/>
      <point x="630" y="1422" type="line"/>
      <point x="796" y="1422" type="line"/>
      <point x="730" y="1134" type="line"/>
      <point x="702" y="1038" type="line"/>
      <point x="783" y="1103" type="line"/>
      <point x="1033" y="1278" type="line"/>
      <point x="1099" y="1133" type="line"/>
      <point x="821" y="1021" type="line"/>
      <point x="725" y="988" type="line"/>
      <point x="814" y="957" type="line"/>
      <point x="1071" y="845" type="line"/>
      <point x="971" y="701" type="line"/>
      <point x="759" y="875" type="line"/>
      <point x="691" y="942" type="line"/>
      <point x="700" y="844" type="line"/>
      <point x="706" y="556" type="line"/>
      <point x="539" y="556" type="line"/>
      <point x="605" y="844" type="line"/>
      <point x="634" y="942" type="line"/>
      <point x="554" y="875" type="line"/>
      <point x="304" y="700" type="line"/>
      <point x="237" y="845" type="line"/>
    </contour>
  </outline>
</glyph>
<glyph name="plus" format="1">
  <advance width="1173"/>
  <unicode hex="002B"/>
  <note>
	plus
  </note>
  <outline>
    <contour>
      <point x="531" y="601" type="line"/>
      <point x="409" y="595" type="line"/>
      <point x="217" y="595" type="line"/>
      <point x="232" y="733" type="line"/>
      <point x="426" y="733" type="line"/>
      <point x="544" y="723" type="line"/>
      <point x="556" y="865" type="line"/>
      <point x="579" y="1063" type="line"/>
      <point x="734" y="1063" type="line"/>
      <point x="711" y="865" type="line"/>
      <point x="686" y="724" type="line"/>
      <point x="785" y="733" type="line"/>
      <point x="1004" y="733" type="line"/>
      <point x="988" y="595" type="line"/>
      <point x="769" y="595" type="line"/>
      <point x="673" y="601" type="line"/>
      <point x="672" y="574"/>
      <point x="670" y="546"/>
      <point x="667" y="517" type="curve"/>
      <point x="664" y="460" type="line"/>
      <point x="640" y="253" type="line"/>
      <point x="485" y="253" type="line"/>
      <point x="508" y="460" type="line"/>
    </contour>
  </outline>
</glyph>
<glyph name="comma" format="1">
  <advance width="453"/>
  <unicode hex="002C"/>
  <note>
	comma
  </note>
  <outline>
    <contour>
      <point x="207" y="229" type="line"/>
      <point x="298" y="189"/>
      <point x="344" y="85"/>
      <point x="344" y="-28" type="curve" smooth="yes"/>
      <point x="344" y="-152"/>
      <point x="285" y="-266"/>
      <point x="194" y="-344" type="curve" smooth="yes"/>
      <point x="149" y="-383"/>
      <point x="100" y="-413"/>
      <point x="47" y="-432" type="curve"/>
      <point x="-7" y="-363" type="line"/>
      <point x="-4" y="-345" type="line"/>
      <point x="83" y="-298"/>
      <point x="152" y="-200"/>
      <point x="152" y="-76" type="curve" smooth="yes"/>
      <point x="152" y="-3"/>
      <point x="115" y="66"/>
      <point x="71" y="83" type="curve"/>
      <point x="71" y="122" type="line"/>
    </contour>
  </outline>
</glyph>
<glyph name="hyphen" format="1">
  <advance width="1089"/>
  <unicode hex="002D"/>
  <note>
	hyphen
  </note>
  <outline>
    <contour>
      <point x="936" y="733" type="line"/>
      <point x="920" y="595" type="line"/>
      <point x="200" y="595" type="line"/>
      <point x="216" y="733" type="line"/>
    </contour>
  </outline>
</glyph>
<glyph name="period" format="1">
  <advance width="453"/>
  <unicode hex="002E"/>
  <note>
	period
  </note>
  <outline>
    <contour>
      <point x="280" y="218"/>
      <point x="316" y="182"/>
      <point x="316" y="126" type="curve" smooth="yes"/>
      <point x="316" y="70"/>
      <point x="285" y="24"/>
      <point x="240" y="0" type="curve" smooth="yes"/>
      <point x="217" y="-13"/>
      <point x="194" y="-19"/>
      <point x="169" y="-19" type="curve" smooth="yes"/>
      <point x="112" y="-19"/>
      <point x="73" y="17"/>
      <point x="73" y="73" type="curve" smooth="yes"/>
      <point x="73" y="126"/>
      <point x="103" y="173"/>
      <point x="145" y="199" type="curve" smooth="yes"/>
      <point x="166" y="212"/>
      <point x="188" y="218"/>
      <point x="211" y="218" type="curve" smooth="yes"/>
    </contour>
  </outline>
</glyph>
<glyph name="slash" format="1">
  <advance width="734"/>
  <unicode hex="002F"/>
  <note>
	slash
  </note>
  <outline>
    <contour>
      <point x="627" y="1373" type="line"/>
      <point x="779" y="1373" type="line"/>
      <point x="37" y="-311" type="line"/>
      <point x="-114" y="-311" type="line"/>
    </contour>
  </outline>
</glyph>
<glyph name="zero" format="1">
  <advance width="1099"/>
  <unicode hex="0030"/>
  <note>
	zero
  </note>
  <outline>
    <contour>
      <point x="113" y="613"/>
      <point x="215" y="811"/>
      <point x="376" y="919" type="curve" smooth="yes"/>
      <point x="457" y="972"/>
      <point x="544" y="999"/>
      <point x="639" y="999" type="curve" smooth="yes"/>
      <point x="888" y="999"/>
      <point x="995" y="850"/>
      <point x="995" y="599" type="curve" smooth="yes"/>
      <point x="995" y="383"/>
      <point x="898" y="184"/>
      <point x="739" y="71" type="curve" smooth="yes"/>
      <point x="659" y="14"/>
      <point x="570" y="-14"/>
      <point x="473" y="-14" type="curve" smooth="yes"/>
      <point x="306" y="-14"/>
      <point x="199" y="63"/>
      <point x="150" y="184" type="curve" smooth="yes"/>
      <point x="125" y="244"/>
      <point x="113" y="312"/>
      <point x="113" y="388" type="curve" smooth="yes"/>
    </contour>
    <contour>
      <point x="812" y="785"/>
      <point x="749" y="906"/>
      <point x="610" y="906" type="curve" smooth="yes"/>
      <point x="455" y="906"/>
      <point x="363" y="784"/>
      <point x="324" y="630" type="curve" smooth="yes"/>
      <point x="305" y="553"/>
      <point x="295" y="476"/>
      <point x="295" y="401" type="curve" smooth="yes"/>
      <point x="295" y="214"/>
      <point x="360" y="81"/>
      <point x="492" y="81" type="curve" smooth="yes"/>
      <point x="632" y="81"/>
      <point x="729" y="191"/>
      <point x="777" y="344" type="curve" smooth="yes"/>
      <point x="800" y="421"/>
      <point x="812" y="500"/>
      <point x="812" y="582" type="curve" smooth="yes"/>
    </contour>
  </outline>
</glyph>
<glyph name="one" format="1">
  <advance width="789"/>
  <unicode hex="0031"/>
  <note>
	one
  </note>
  <outline>
    <contour>
      <point x="273" y="97" type="line"/>
      <point x="368" y="787" type="line"/>
      <point x="299" y="770"/>
      <point x="228" y="755"/>
      <point x="153" y="742" type="curve"/>
      <point x="140" y="826" type="line"/>
      <point x="251" y="850"/>
      <point x="392" y="924"/>
      <point x="500" y="999" type="curve"/>
      <point x="575" y="981" type="line"/>
      <point x="452" y="98" type="line"/>
      <point x="635" y="76" type="line"/>
      <point x="626" y="0" type="line"/>
      <point x="94" y="0" type="line"/>
      <point x="102" y="76" type="line"/>
    </contour>
  </outline>
</glyph>
<glyph name="two" format="1">
  <advance width="1006"/>
  <unicode hex="0032"/>
  <note>
	two
  </note>
  <outline>
    <contour>
      <point x="30" y="69" type="line"/>
      <point x="395" y="249"/>
      <point x="643" y="466"/>
      <point x="643" y="675" type="curve" smooth="yes"/>
      <point x="643" y="811"/>
      <point x="589" y="881"/>
      <point x="458" y="881" type="curve" smooth="yes"/>
      <point x="354" y="881"/>
      <point x="265" y="826"/>
      <point x="176" y="751" type="curve"/>
      <point x="130" y="829" type="line"/>
      <point x="215" y="918"/>
      <point x="358" y="999"/>
      <point x="525" y="999" type="curve" smooth="yes"/>
      <point x="734" y="999"/>
      <point x="838" y="902"/>
      <point x="838" y="709" type="curve" smooth="yes"/>
      <point x="838" y="489"/>
      <point x="591" y="269"/>
      <point x="254" y="100" type="curve"/>
      <point x="722" y="141" type="line"/>
      <point x="806" y="270" type="line"/>
      <point x="894" y="239" type="line"/>
      <point x="826" y="0" type="line"/>
      <point x="46" y="0" type="line"/>
    </contour>
  </outline>
</glyph>
<glyph name="three" format="1">
  <advance width="926"/>
  <unicode hex="0033"/>
  <note>
	three
  </note>
  <outline>
    <contour>
      <point x="298" y="-181"/>
      <point x="443" y="-129"/>
      <point x="526" y="-32" type="curve" smooth="yes"/>
      <point x="567" y="16"/>
      <point x="588" y="72"/>
      <point x="588" y="136" type="curve" smooth="yes"/>
      <point x="588" y="271"/>
      <point x="512" y="345"/>
      <point x="343" y="346" type="curve"/>
      <point x="222" y="316" type="line"/>
      <point x="236" y="418" type="line"/>
      <point x="352" y="442"/>
      <point x="472" y="496"/>
      <point x="548" y="580" type="curve" smooth="yes"/>
      <point x="585" y="621"/>
      <point x="604" y="669"/>
      <point x="604" y="723" type="curve" smooth="yes"/>
      <point x="604" y="831"/>
      <point x="534" y="877"/>
      <point x="437" y="877" type="curve" smooth="yes"/>
      <point x="333" y="877"/>
      <point x="252" y="837"/>
      <point x="159" y="770" type="curve"/>
      <point x="122" y="857" type="line"/>
      <point x="166" y="898"/>
      <point x="245" y="948"/>
      <point x="350" y="977" type="curve" smooth="yes"/>
      <point x="402" y="992"/>
      <point x="457" y="999"/>
      <point x="514" y="999" type="curve" smooth="yes"/>
      <point x="617" y="999"/>
      <point x="706" y="965"/>
      <point x="758" y="893" type="curve" smooth="yes"/>
      <point x="783" y="856"/>
      <point x="796" y="811"/>
      <point x="796" y="758" type="curve" smooth="yes"/>
      <point x="796" y="658"/>
      <point x="731" y="564"/>
      <point x="635" y="494" type="curve" smooth="yes"/>
      <point x="586" y="459"/>
      <point x="535" y="432"/>
      <point x="480" y="413" type="curve"/>
      <point x="507" y="414" type="line"/>
      <point x="707" y="414"/>
      <point x="785" y="317"/>
      <point x="785" y="166" type="curve" smooth="yes"/>
      <point x="785" y="-3"/>
      <point x="652" y="-149"/>
      <point x="459" y="-225" type="curve" smooth="yes"/>
      <point x="362" y="-264"/>
      <point x="263" y="-283"/>
      <point x="161" y="-283" type="curve" smooth="yes"/>
      <point x="123" y="-283"/>
      <point x="76" y="-279"/>
      <point x="21" y="-272" type="curve"/>
      <point x="34" y="-172" type="line"/>
      <point x="78" y="-178"/>
      <point x="115" y="-181"/>
      <point x="145" y="-181" type="curve" smooth="yes"/>
    </contour>
  </outline>
</glyph>
<glyph name="four" format="1">
  <advance width="1075"/>
  <unicode hex="0034"/>
  <note>
	four
  </note>
  <outline>
    <contour>
      <point x="29" y="81" type="line"/>
      <point x="182" y="278"/>
      <point x="408" y="643"/>
      <point x="631" y="1080" type="curve"/>
      <point x="663" y="1080" type="line"/>
      <point x="800" y="1002" type="line"/>
      <point x="717" y="849"/>
      <point x="532" y="577"/>
      <point x="261" y="190" type="curve"/>
      <point x="175" y="87" type="line"/>
      <point x="607" y="111" type="line"/>
      <point x="651" y="458" type="line"/>
      <point x="821" y="508" type="line"/>
      <point x="773" y="125" type="line"/>
      <point x="987" y="138" type="line"/>
      <point x="969" y="0" type="line"/>
      <point x="756" y="0" type="line"/>
      <point x="716" y="-322" type="line"/>
      <point x="549" y="-322" type="line"/>
      <point x="591" y="0" type="line"/>
      <point x="61" y="0" type="line"/>
    </contour>
  </outline>
</glyph>
<glyph name="five" format="1">
  <advance width="952"/>
  <unicode hex="0035"/>
  <note>
	five
  </note>
  <outline>
    <contour>
      <point x="285" y="-209"/>
      <point x="451" y="-137"/>
      <point x="545" y="-21" type="curve" smooth="yes"/>
      <point x="592" y="37"/>
      <point x="615" y="101"/>
      <point x="615" y="171" type="curve" smooth="yes"/>
      <point x="615" y="282"/>
      <point x="585" y="346"/>
      <point x="519" y="375" type="curve" smooth="yes"/>
      <point x="486" y="390"/>
      <point x="442" y="397"/>
      <point x="389" y="397" type="curve" smooth="yes"/>
      <point x="331" y="397"/>
      <point x="256" y="382"/>
      <point x="165" y="351" type="curve"/>
      <point x="123" y="384" type="line"/>
      <point x="269" y="986" type="line"/>
      <point x="759" y="986" type="line"/>
      <point x="777" y="999" type="line"/>
      <point x="897" y="999" type="line"/>
      <point x="847" y="838" type="line"/>
      <point x="388" y="838" type="line"/>
      <point x="288" y="474" type="line"/>
      <point x="343" y="489"/>
      <point x="424" y="500"/>
      <point x="480" y="500" type="curve" smooth="yes"/>
      <point x="608" y="500"/>
      <point x="713" y="457"/>
      <point x="773" y="365" type="curve" smooth="yes"/>
      <point x="803" y="319"/>
      <point x="818" y="261"/>
      <point x="818" y="191" type="curve" smooth="yes"/>
      <point x="818" y="-8"/>
      <point x="673" y="-161"/>
      <point x="466" y="-239" type="curve" smooth="yes"/>
      <point x="362" y="-278"/>
      <point x="256" y="-298"/>
      <point x="147" y="-298" type="curve" smooth="yes"/>
      <point x="99" y="-298"/>
      <point x="61" y="-293"/>
      <point x="33" y="-283" type="curve"/>
      <point x="45" y="-204" type="line"/>
      <point x="66" y="-207"/>
      <point x="89" y="-209"/>
      <point x="114" y="-209" type="curve" smooth="yes"/>
    </contour>
  </outline>
</glyph>
<glyph name="six" format="1">
  <advance width="1069"/>
  <unicode hex="0036"/>
  <note>
	six
  </note>
  <outline>
    <contour>
      <point x="116" y="680"/>
      <point x="253" y="956"/>
      <point x="478" y="1149" type="curve" smooth="yes"/>
      <point x="590" y="1245"/>
      <point x="715" y="1312"/>
      <point x="854" y="1351" type="curve"/>
      <point x="880" y="1276" type="line"/>
      <point x="715" y="1213"/>
      <point x="564" y="1088"/>
      <point x="459" y="939" type="curve" smooth="yes"/>
      <point x="406" y="864"/>
      <point x="367" y="789"/>
      <point x="340" y="713" type="curve"/>
      <point x="407" y="784"/>
      <point x="517" y="839"/>
      <point x="648" y="839" type="curve" smooth="yes"/>
      <point x="787" y="839"/>
      <point x="882" y="777"/>
      <point x="926" y="677" type="curve" smooth="yes"/>
      <point x="948" y="627"/>
      <point x="959" y="571"/>
      <point x="959" y="508" type="curve" smooth="yes"/>
      <point x="959" y="327"/>
      <point x="873" y="156"/>
      <point x="725" y="57" type="curve" smooth="yes"/>
      <point x="651" y="8"/>
      <point x="567" y="-17"/>
      <point x="474" y="-17" type="curve" smooth="yes"/>
      <point x="321" y="-17"/>
      <point x="212" y="61"/>
      <point x="157" y="189" type="curve" smooth="yes"/>
      <point x="130" y="253"/>
      <point x="116" y="325"/>
      <point x="116" y="404" type="curve" smooth="yes"/>
    </contour>
    <contour>
      <point x="773" y="578"/>
      <point x="744" y="659"/>
      <point x="693" y="700" type="curve" smooth="yes"/>
      <point x="667" y="721"/>
      <point x="637" y="731"/>
      <point x="604" y="731" type="curve" smooth="yes"/>
      <point x="501" y="731"/>
      <point x="426" y="693"/>
      <point x="383" y="654" type="curve" smooth="yes"/>
      <point x="361" y="634"/>
      <point x="341" y="612"/>
      <point x="322" y="587" type="curve"/>
      <point x="306" y="517"/>
      <point x="298" y="450"/>
      <point x="298" y="385" type="curve" smooth="yes"/>
      <point x="298" y="198"/>
      <point x="359" y="77"/>
      <point x="512" y="77" type="curve" smooth="yes"/>
      <point x="629" y="77"/>
      <point x="709" y="167"/>
      <point x="746" y="287" type="curve" smooth="yes"/>
      <point x="764" y="346"/>
      <point x="773" y="406"/>
      <point x="773" y="466" type="curve" smooth="yes"/>
    </contour>
  </outline>
</glyph>
<glyph name="seven" format="1">
  <advance width="942"/>
  <unicode hex="0037"/>
  <note>
	seven
  </note>
  <outline>
    <contour>
      <point x="280" y="854" type="line"/>
      <point x="206" y="696" type="line"/>
      <point x="93" y="699" type="line"/>
      <point x="145" y="986" type="line"/>
      <point x="914" y="986" type="line"/>
      <point x="942" y="949" type="line"/>
      <point x="424" y="-277" type="line"/>
      <point x="242" y="-219" type="line"/>
      <point x="805" y="854" type="line"/>
    </contour>
  </outline>
</glyph>
<glyph name="eight" format="1">
  <advance width="1017"/>
  <unicode hex="0038"/>
  <note>
	eight
  </note>
  <outline>
    <contour>
      <point x="301" y="792"/>
      <point x="241" y="895"/>
      <point x="241" y="1004" type="curve" smooth="yes"/>
      <point x="241" y="1128"/>
      <point x="314" y="1234"/>
      <point x="437" y="1291" type="curve" smooth="yes"/>
      <point x="498" y="1319"/>
      <point x="567" y="1333"/>
      <point x="643" y="1333" type="curve" smooth="yes"/>
      <point x="770" y="1333"/>
      <point x="870" y="1288"/>
      <point x="926" y="1205" type="curve" smooth="yes"/>
      <point x="953" y="1163"/>
      <point x="967" y="1114"/>
      <point x="967" y="1057" type="curve" smooth="yes"/>
      <point x="967" y="902"/>
      <point x="857" y="790"/>
      <point x="678" y="699" type="curve"/>
      <point x="813" y="604"/>
      <point x="910" y="472"/>
      <point x="910" y="335" type="curve" smooth="yes"/>
      <point x="910" y="188"/>
      <point x="818" y="79"/>
      <point x="682" y="24" type="curve" smooth="yes"/>
      <point x="614" y="-3"/>
      <point x="541" y="-17"/>
      <point x="464" y="-17" type="curve" smooth="yes"/>
      <point x="337" y="-17"/>
      <point x="217" y="25"/>
      <point x="145" y="117" type="curve" smooth="yes"/>
      <point x="108" y="163"/>
      <point x="90" y="220"/>
      <point x="90" y="287" type="curve" smooth="yes"/>
      <point x="90" y="463"/>
      <point x="215" y="601"/>
      <point x="422" y="693" type="curve"/>
    </contour>
    <contour>
      <point x="796" y="1176"/>
      <point x="725" y="1247"/>
      <point x="625" y="1247" type="curve" smooth="yes"/>
      <point x="545" y="1247"/>
      <point x="475" y="1204"/>
      <point x="437" y="1135" type="curve" smooth="yes"/>
      <point x="418" y="1100"/>
      <point x="408" y="1062"/>
      <point x="408" y="1019" type="curve" smooth="yes"/>
      <point x="408" y="912"/>
      <point x="478" y="834"/>
      <point x="605" y="745" type="curve"/>
      <point x="721" y="797"/>
      <point x="796" y="909"/>
      <point x="796" y="1044" type="curve" smooth="yes"/>
    </contour>
    <contour>
      <point x="580" y="75"/>
      <point x="656" y="116"/>
      <point x="699" y="188" type="curve" smooth="yes"/>
      <point x="720" y="224"/>
      <point x="731" y="265"/>
      <point x="731" y="310" type="curve" smooth="yes"/>
      <point x="731" y="429"/>
      <point x="643" y="529"/>
      <point x="482" y="637" type="curve"/>
      <point x="355" y="578"/>
      <point x="279" y="456"/>
      <point x="276" y="316" type="curve" smooth="yes"/>
      <point x="276" y="220"/>
      <point x="311" y="145"/>
      <point x="375" y="105" type="curve" smooth="yes"/>
      <point x="407" y="85"/>
      <point x="445" y="75"/>
      <point x="489" y="75" type="curve" smooth="yes"/>
    </contour>
  </outline>
</glyph>
<glyph name="nine" format="1">
  <advance width="1070"/>
  <unicode hex="0039"/>
  <note>
	nine
  </note>
  <outline>
    <contour>
      <point x="955" y="302"/>
      <point x="818" y="24"/>
      <point x="594" y="-168" type="curve" smooth="yes"/>
      <point x="481" y="-265"/>
      <point x="355" y="-332"/>
      <point x="216" y="-371" type="curve"/>
      <point x="190" y="-295" type="line"/>
      <point x="354" y="-234"/>
      <point x="506" y="-105"/>
      <point x="615" y="45" type="curve" smooth="yes"/>
      <point x="669" y="120"/>
      <point x="710" y="195"/>
      <point x="737" y="271" type="curve"/>
      <point x="668" y="196"/>
      <point x="551" y="142"/>
      <point x="423" y="142" type="curve" smooth="yes"/>
      <point x="282" y="142"/>
      <point x="189" y="216"/>
      <point x="146" y="322" type="curve" smooth="yes"/>
      <point x="125" y="375"/>
      <point x="114" y="431"/>
      <point x="114" y="492" type="curve" smooth="yes"/>
      <point x="114" y="656"/>
      <point x="191" y="824"/>
      <point x="337" y="924" type="curve" smooth="yes"/>
      <point x="410" y="974"/>
      <point x="496" y="999"/>
      <point x="597" y="999" type="curve" smooth="yes"/>
      <point x="749" y="999"/>
      <point x="858" y="923"/>
      <point x="914" y="799" type="curve" smooth="yes"/>
      <point x="941" y="736"/>
      <point x="955" y="666"/>
      <point x="955" y="589" type="curve" smooth="yes"/>
    </contour>
    <contour>
      <point x="290" y="414"/>
      <point x="326" y="327"/>
      <point x="380" y="283" type="curve" smooth="yes"/>
      <point x="407" y="261"/>
      <point x="436" y="250"/>
      <point x="467" y="250" type="curve" smooth="yes"/>
      <point x="603" y="250"/>
      <point x="688" y="318"/>
      <point x="749" y="395" type="curve"/>
      <point x="764" y="455"/>
      <point x="772" y="537"/>
      <point x="772" y="606" type="curve" smooth="yes"/>
      <point x="772" y="779"/>
      <point x="711" y="906"/>
      <point x="559" y="906" type="curve" smooth="yes"/>
      <point x="442" y="906"/>
      <point x="359" y="817"/>
      <point x="320" y="701" type="curve" smooth="yes"/>
      <point x="300" y="642"/>
      <point x="290" y="585"/>
      <point x="290" y="530" type="curve" smooth="yes"/>
    </contour>
  </outline>
</glyph>
<glyph name="colon" format="1">
  <advance width="453"/>
  <unicode hex="003A"/>
  <note>
	colon
  </note>
  <outline>
    <contour>
      <point x="344" y="914"/>
      <point x="380" y="878"/>
      <point x="380" y="822" type="curve" smooth="yes"/>
      <point x="380" y="766"/>
      <point x="349" y="720"/>
      <point x="304" y="696" type="curve" smooth="yes"/>
      <point x="281" y="683"/>
      <point x="258" y="677"/>
      <point x="233" y="677" type="curve" smooth="yes"/>
      <point x="176" y="677"/>
      <point x="137" y="713"/>
      <point x="137" y="769" type="curve" smooth="yes"/>
      <point x="137" y="822"/>
      <point x="167" y="869"/>
      <point x="209" y="895" type="curve" smooth="yes"/>
      <point x="230" y="908"/>
      <point x="252" y="914"/>
      <point x="275" y="914" type="curve" smooth="yes"/>
    </contour>
    <contour>
      <point x="264" y="218"/>
      <point x="300" y="182"/>
      <point x="300" y="126" type="curve" smooth="yes"/>
      <point x="300" y="70"/>
      <point x="269" y="24"/>
      <point x="224" y="0" type="curve" smooth="yes"/>
      <point x="201" y="-13"/>
      <point x="178" y="-19"/>
      <point x="153" y="-19" type="curve" smooth="yes"/>
      <point x="96" y="-19"/>
      <point x="57" y="17"/>
      <point x="57" y="73" type="curve" smooth="yes"/>
      <point x="57" y="126"/>
      <point x="87" y="173"/>
      <point x="129" y="199" type="curve" smooth="yes"/>
      <point x="150" y="212"/>
      <point x="172" y="218"/>
      <point x="195" y="218" type="curve" smooth="yes"/>
    </contour>
  </outline>
</glyph>
<glyph name="semicolon" format="1">
  <advance width="453"/>
  <unicode hex="003B"/>
  <note>
	semicolon
  </note>
  <outline>
    <contour>
      <point x="192" y="229" type="line"/>
      <point x="283" y="189"/>
      <point x="329" y="85"/>
      <point x="329" y="-28" type="curve" smooth="yes"/>
      <point x="329" y="-152"/>
      <point x="270" y="-266"/>
      <point x="179" y="-344" type="curve" smooth="yes"/>
      <point x="134" y="-383"/>
      <point x="85" y="-413"/>
      <point x="32" y="-432" type="curve"/>
      <point x="-22" y="-363" type="line"/>
      <point x="-19" y="-345" type="line"/>
      <point x="68" y="-298"/>
      <point x="137" y="-200"/>
      <point x="137" y="-76" type="curve" smooth="yes"/>
      <point x="137" y="-3"/>
      <point x="100" y="66"/>
      <point x="56" y="83" type="curve"/>
      <point x="56" y="122" type="line"/>
    </contour>
    <contour>
      <point x="345" y="914"/>
      <point x="381" y="878"/>
      <point x="381" y="822" type="curve" smooth="yes"/>
      <point x="381" y="766"/>
      <point x="350" y="720"/>
      <point x="305" y="696" type="curve" smooth="yes"/>
      <point x="282" y="683"/>
      <point x="259" y="677"/>
      <point x="234" y="677" type="curve" smooth="yes"/>
      <point x="177" y="677"/>
      <point x="138" y="713"/>
      <point x="138" y="769" type="curve" smooth="yes"/>
      <point x="138" y="822"/>
      <point x="168" y="869"/>
      <point x="210" y="895" type="curve" smooth="yes"/>
      <point x="231" y="908"/>
      <point x="253" y="914"/>
      <point x="276" y="914" type="curve" smooth="yes"/>
    </contour>
  </outline>
</glyph>
<glyph name="less" format="1">
  <advance width="1176"/>
  <unicode hex="003C"/>
  <note>
	less
  </note>
  <outline>
    <contour>
      <point x="1049" y="1139" type="line"/>
      <point x="1029" y="969" type="line"/>
      <point x="347" y="646" type="line"/>
      <point x="953" y="322" type="line"/>
      <point x="933" y="151" type="line"/>
      <point x="168" y="590" type="line"/>
      <point x="181" y="700" type="line"/>
    </contour>
  </outline>
</glyph>
<glyph name="equal" format="1">
  <advance width="914"/>
  <unicode hex="003D"/>
  <note>
	equal
  </note>
  <outline>
    <contour>
      <point x="845" y="865" type="line"/>
      <point x="830" y="729" type="line"/>
      <point x="129" y="729" type="line"/>
      <point x="144" y="865" type="line"/>
    </contour>
    <contour>
      <point x="785" y="427" type="line"/>
      <point x="770" y="291" type="line"/>
      <point x="69" y="291" type="line"/>
      <point x="84" y="427" type="line"/>
    </contour>
  </outline>
</glyph>
<glyph name="greater" format="1">
  <advance width="1176"/>
  <unicode hex="003E"/>
  <note>
	greater
  </note>
  <outline>
    <contour>
      <point x="215" y="154" type="line"/>
      <point x="236" y="323" type="line"/>
      <point x="917" y="647" type="line"/>
      <point x="311" y="970" type="line"/>
      <point x="331" y="1141" type="line"/>
      <point x="1096" y="703" type="line"/>
      <point x="1083" y="593" type="line"/>
    </contour>
  </outline>
</glyph>
<glyph name="question" format="1">
  <advance width="874"/>
  <unicode hex="003F"/>
  <note>
	question
  </note>
  <outline>
    <contour>
      <point x="296" y="888"/>
      <point x="656" y="912"/>
      <point x="711" y="1176" type="curve" smooth="yes"/>
      <point x="741" y="1317"/>
      <point x="672" y="1408"/>
      <point x="493" y="1408" type="curve" smooth="yes"/>
      <point x="414" y="1408"/>
      <point x="316" y="1385"/>
      <point x="235" y="1337" type="curve"/>
      <point x="224" y="1411" type="line"/>
      <point x="292" y="1461"/>
      <point x="426" y="1532"/>
      <point x="576" y="1532" type="curve" smooth="yes"/>
      <point x="831" y="1532"/>
      <point x="949" y="1411"/>
      <point x="904" y="1198" type="curve" smooth="yes"/>
      <point x="838" y="883"/>
      <point x="380" y="823"/>
      <point x="320" y="540" type="curve" smooth="yes"/>
      <point x="314" y="506"/>
      <point x="314" y="475"/>
      <point x="311" y="437" type="curve"/>
      <point x="218" y="437" type="line"/>
      <point x="217" y="480"/>
      <point x="219" y="518"/>
      <point x="226" y="556" type="curve" smooth="yes"/>
    </contour>
    <contour>
      <point x="309" y="214"/>
      <point x="344" y="178"/>
      <point x="344" y="122" type="curve" smooth="yes"/>
      <point x="344" y="66"/>
      <point x="313" y="20"/>
      <point x="269" y="-4" type="curve" smooth="yes"/>
      <point x="246" y="-17"/>
      <point x="223" y="-23"/>
      <point x="198" y="-23" type="curve" smooth="yes"/>
      <point x="141" y="-23"/>
      <point x="102" y="13"/>
      <point x="102" y="69" type="curve" smooth="yes"/>
      <point x="102" y="122"/>
      <point x="131" y="169"/>
      <point x="173" y="195" type="curve" smooth="yes"/>
      <point x="194" y="208"/>
      <point x="216" y="214"/>
      <point x="240" y="214" type="curve" smooth="yes"/>
    </contour>
  </outline>
</glyph>
<glyph name="at" format="1">
  <advance width="1693"/>
  <unicode hex="0040"/>
  <note>
	at
  </note>
  <outline>
    <contour>
      <point x="1263" y="1330"/>
      <point x="1441" y="1240"/>
      <point x="1537" y="1075" type="curve" smooth="yes"/>
      <point x="1584" y="992"/>
      <point x="1608" y="895"/>
      <point x="1608" y="782" type="curve" smooth="yes"/>
      <point x="1608" y="478"/>
      <point x="1488" y="238"/>
      <point x="1324" y="112" type="curve" smooth="yes"/>
      <point x="1242" y="49"/>
      <point x="1161" y="17"/>
      <point x="1082" y="17" type="curve" smooth="yes"/>
      <point x="1033" y="17"/>
      <point x="1011" y="48"/>
      <point x="1007" y="94" type="curve"/>
      <point x="1004" y="117"/>
      <point x="1003" y="150"/>
      <point x="1003" y="193" type="curve" smooth="yes"/>
      <point x="1003" y="238"/>
      <point x="1011" y="296"/>
      <point x="1028" y="368" type="curve"/>
      <point x="941" y="165"/>
      <point x="816" y="6"/>
      <point x="697" y="6" type="curve" smooth="yes"/>
      <point x="614" y="6"/>
      <point x="537" y="58"/>
      <point x="491" y="169" type="curve" smooth="yes"/>
      <point x="468" y="224"/>
      <point x="456" y="292"/>
      <point x="456" y="373" type="curve" smooth="yes"/>
      <point x="456" y="552"/>
      <point x="526" y="741"/>
      <point x="667" y="855" type="curve" smooth="yes"/>
      <point x="737" y="912"/>
      <point x="822" y="940"/>
      <point x="923" y="940" type="curve" smooth="yes"/>
      <point x="980" y="940"/>
      <point x="1067" y="923"/>
      <point x="1111" y="894" type="curve"/>
      <point x="1255" y="919" type="line"/>
      <point x="1222" y="788"/>
      <point x="1177" y="518"/>
      <point x="1161" y="345" type="curve" smooth="yes"/>
      <point x="1157" y="305"/>
      <point x="1155" y="271"/>
      <point x="1155" y="242" type="curve" smooth="yes"/>
      <point x="1155" y="216"/>
      <point x="1156" y="194"/>
      <point x="1159" y="175" type="curve" smooth="yes"/>
      <point x="1162" y="153"/>
      <point x="1167" y="142"/>
      <point x="1174" y="142" type="curve" smooth="yes"/>
      <point x="1267" y="142"/>
      <point x="1370" y="271"/>
      <point x="1430" y="451" type="curve" smooth="yes"/>
      <point x="1460" y="541"/>
      <point x="1475" y="631"/>
      <point x="1475" y="721" type="curve" smooth="yes"/>
      <point x="1475" y="960"/>
      <point x="1369" y="1105"/>
      <point x="1214" y="1169" type="curve" smooth="yes"/>
      <point x="1136" y="1200"/>
      <point x="1050" y="1216"/>
      <point x="955" y="1216" type="curve" smooth="yes"/>
      <point x="659" y="1216"/>
      <point x="434" y="1037"/>
      <point x="320" y="772" type="curve" smooth="yes"/>
      <point x="263" y="639"/>
      <point x="234" y="499"/>
      <point x="234" y="351" type="curve" smooth="yes"/>
      <point x="234" y="-69"/>
      <point x="429" y="-249"/>
      <point x="776" y="-249" type="curve" smooth="yes"/>
      <point x="876" y="-249"/>
      <point x="1027" y="-223"/>
      <point x="1084" y="-194" type="curve"/>
      <point x="1112" y="-268" type="line"/>
      <point x="1031" y="-331"/>
      <point x="898" y="-368"/>
      <point x="753" y="-368" type="curve" smooth="yes"/>
      <point x="482" y="-368"/>
      <point x="283" y="-273"/>
      <point x="179" y="-78" type="curve" smooth="yes"/>
      <point x="127" y="19"/>
      <point x="101" y="141"/>
      <point x="101" y="287" type="curve" smooth="yes"/>
      <point x="101" y="692"/>
      <point x="281" y="1022"/>
      <point x="565" y="1198" type="curve" smooth="yes"/>
      <point x="707" y="1286"/>
      <point x="862" y="1330"/>
      <point x="1031" y="1330" type="curve" smooth="yes"/>
    </contour>
    <contour>
      <point x="801" y="148"/>
      <point x="913" y="312"/>
      <point x="994" y="508" type="curve" smooth="yes"/>
      <point x="1034" y="605"/>
      <point x="1058" y="688"/>
      <point x="1067" y="756" type="curve"/>
      <point x="1040" y="803"/>
      <point x="964" y="832"/>
      <point x="909" y="832" type="curve" smooth="yes"/>
      <point x="761" y="832"/>
      <point x="675" y="732"/>
      <point x="639" y="598" type="curve" smooth="yes"/>
      <point x="620" y="531"/>
      <point x="611" y="459"/>
      <point x="611" y="384" type="curve" smooth="yes"/>
      <point x="611" y="241"/>
      <point x="645" y="148"/>
      <point x="728" y="148" type="curve" smooth="yes"/>
    </contour>
  </outline>
</glyph>
<glyph name="A" format="1">
  <advance width="1154"/>
  <unicode hex="0041"/>
  <note>
	A
  </note>
  <outline>
    <contour>
      <point x="791" y="1309" type="line"/>
      <point x="1009" y="102" type="line"/>
      <point x="1143" y="75" type="line"/>
      <point x="1137" y="0" type="line"/>
      <point x="694" y="0" type="line"/>
      <point x="698" y="75" type="line"/>
      <point x="832" y="100" type="line"/>
      <point x="789" y="374" type="line"/>
      <point x="302" y="374" type="line"/>
      <point x="173" y="101" type="line"/>
      <point x="310" y="75" type="line"/>
      <point x="305" y="0" type="line"/>
      <point x="-103" y="0" type="line"/>
      <point x="-95" y="75" type="line"/>
      <point x="7" y="100" type="line"/>
      <point x="615" y="1309" type="line"/>
    </contour>
    <contour>
      <point x="773" y="479" type="line"/>
      <point x="684" y="1060" type="line"/>
      <point x="674" y="1164" type="line"/>
      <point x="351" y="479" type="line"/>
    </contour>
  </outline>
</glyph>
<glyph name="D" format="1">
  <advance width="1233"/>
  <unicode hex="0044"/>
  <note>
	D
  </note>
  <outline>
    <contour>
      <point x="158" y="101" type="line"/>
      <point x="298" y="1202" type="line"/>
      <point x="183" y="1222" type="line"/>
      <point x="194" y="1309" type="line"/>
      <point x="449" y="1309" type="line" smooth="yes"/>
      <point x="471" y="1309"/>
      <point x="507" y="1311"/>
      <point x="556" y="1316" type="curve" smooth="yes"/>
      <point x="610" y="1321"/>
      <point x="651" y="1323"/>
      <point x="680" y="1323" type="curve" smooth="yes"/>
      <point x="1025" y="1323"/>
      <point x="1179" y="1120"/>
      <point x="1179" y="772" type="curve" smooth="yes"/>
      <point x="1179" y="476"/>
      <point x="1060" y="221"/>
      <point x="855" y="84" type="curve" smooth="yes"/>
      <point x="752" y="15"/>
      <point x="635" y="-17"/>
      <point x="504" y="-14" type="curve" smooth="yes"/>
      <point x="468" y="-13"/>
      <point x="436" y="-11"/>
      <point x="408" y="-8" type="curve" smooth="yes"/>
      <point x="360" y="-3"/>
      <point x="284" y="0"/>
      <point x="236" y="0" type="curve" smooth="yes"/>
      <point x="22" y="0" type="line"/>
      <point x="31" y="75" type="line"/>
    </contour>
    <contour>
      <point x="335" y="114" type="line"/>
      <point x="382" y="97"/>
      <point x="480" y="88"/>
      <point x="547" y="87" type="curve"/>
      <point x="751" y="100"/>
      <point x="887" y="244"/>
      <point x="951" y="443" type="curve" smooth="yes"/>
      <point x="982" y="542"/>
      <point x="998" y="648"/>
      <point x="998" y="759" type="curve" smooth="yes"/>
      <point x="998" y="990"/>
      <point x="951" y="1118"/>
      <point x="845" y="1178" type="curve" smooth="yes"/>
      <point x="792" y="1208"/>
      <point x="720" y="1223"/>
      <point x="630" y="1223" type="curve" smooth="yes"/>
      <point x="582" y="1223"/>
      <point x="505" y="1214"/>
      <point x="472" y="1205" type="curve"/>
    </contour>
  </outline>
</glyph>
<glyph name="F" format="1">
  <advance width="1001"/>
  <unicode hex="0046"/>
  <note>
	F
  </note>
  <outline>
    <contour>
      <point x="159" y="101" type="line"/>
      <point x="297" y="1202" type="line"/>
      <point x="182" y="1222" type="line"/>
      <point x="193" y="1309" type="line"/>
      <point x="1032" y="1309" type="line"/>
      <point x="1012" y="1040" type="line"/>
      <point x="905" y="1040" type="line"/>
      <point x="880" y="1198" type="line"/>
      <point x="474" y="1214" type="line"/>
      <point x="415" y="734" type="line"/>
      <point x="820" y="742" type="line"/>
      <point x="809" y="604" type="line"/>
      <point x="405" y="619" type="line"/>
      <point x="335" y="102" type="line"/>
      <point x="566" y="76" type="line"/>
      <point x="559" y="0" type="line"/>
      <point x="24" y="0" type="line"/>
      <point x="31" y="76" type="line"/>
    </contour>
  </outline>
</glyph>
<glyph name="I" format="1">
  <advance width="608"/>
  <unicode hex="0049"/>
  <note>
	I
  </note>
  <outline>
    <contour>
      <point x="159" y="101" type="line"/>
      <point x="298" y="1202" type="line"/>
      <point x="183" y="1222" type="line"/>
      <point x="194" y="1309" type="line"/>
      <point x="615" y="1309" type="line"/>
      <point x="605" y="1222" type="line"/>
      <point x="474" y="1202" type="line"/>
      <point x="335" y="101" type="line"/>
      <point x="470" y="76" type="line"/>
      <point x="464" y="0" type="line"/>
      <point x="24" y="0" type="line"/>
      <point x="32" y="75" type="line"/>
    </contour>
  </outline>
</glyph>
<glyph name="K" format="1">
  <advance width="1174"/>
  <unicode hex="004B"/>
  <note>
	K
  </note>
  <outline>
    <contour>
      <point x="691" y="303" type="line" smooth="yes"/>
      <point x="634" y="412"/>
      <point x="581" y="511"/>
      <point x="532" y="598" type="curve"/>
      <point x="376" y="427" type="line"/>
      <point x="335" y="101" type="line"/>
      <point x="470" y="76" type="line"/>
      <point x="464" y="0" type="line"/>
      <point x="24" y="0" type="line"/>
      <point x="32" y="75" type="line"/>
      <point x="159" y="101" type="line"/>
      <point x="298" y="1202" type="line"/>
      <point x="183" y="1222" type="line"/>
      <point x="194" y="1309" type="line"/>
      <point x="615" y="1309" type="line"/>
      <point x="605" y="1222" type="line"/>
      <point x="473" y="1202" type="line"/>
      <point x="396" y="592" type="line"/>
      <point x="922" y="1202" type="line"/>
      <point x="820" y="1222" type="line"/>
      <point x="831" y="1309" type="line"/>
      <point x="1192" y="1309" type="line"/>
      <point x="1180" y="1222" type="line"/>
      <point x="1090" y="1202" type="line"/>
      <point x="639" y="713" type="line"/>
      <point x="712" y="588" type="line" smooth="yes"/>
      <point x="863" y="332"/>
      <point x="914" y="247"/>
      <point x="959" y="183" type="curve" smooth="yes"/>
      <point x="982" y="150"/>
      <point x="1002" y="129"/>
      <point x="1019" y="119" type="curve"/>
      <point x="1131" y="81" type="line"/>
      <point x="1119" y="0" type="line"/>
      <point x="880" y="0" type="line"/>
      <point x="863" y="2"/>
      <point x="842" y="26"/>
      <point x="815" y="71" type="curve" smooth="yes"/>
      <point x="788" y="116"/>
      <point x="755" y="176"/>
      <point x="718" y="250" type="curve" smooth="yes"/>
    </contour>
  </outline>
</glyph>
<glyph name="L" format="1">
  <advance width="1016"/>
  <unicode hex="004C"/>
  <note>
	L
  </note>
  <outline>
    <contour>
      <point x="159" y="101" type="line"/>
      <point x="298" y="1202" type="line"/>
      <point x="183" y="1222" type="line"/>
      <point x="194" y="1309" type="line"/>
      <point x="644" y="1309" type="line"/>
      <point x="635" y="1222" type="line"/>
      <point x="473" y="1202" type="line"/>
      <point x="335" y="101" type="line"/>
      <point x="734" y="110" type="line"/>
      <point x="853" y="396" type="line"/>
      <point x="955" y="376" type="line"/>
      <point x="873" y="0" type="line"/>
      <point x="25" y="0" type="line"/>
      <point x="32" y="76" type="line"/>
    </contour>
  </outline>
</glyph>
<glyph name="M" format="1">
  <advance width="1613"/>
  <unicode hex="004D"/>
  <note>
	M
  </note>
  <outline>
    <contour>
      <point x="100" y="101" type="line"/>
      <point x="372" y="1202" type="line"/>
      <point x="234" y="1222" type="line"/>
      <point x="244" y="1309" type="line"/>
      <point x="629" y="1309" type="line"/>
      <point x="770" y="411" type="line"/>
      <point x="783" y="267" type="line"/>
      <point x="838" y="411" type="line" smooth="yes"/>
      <point x="879" y="510"/>
      <point x="946" y="663"/>
      <point x="1039" y="872" type="curve" smooth="yes"/>
      <point x="1131" y="1079"/>
      <point x="1195" y="1224"/>
      <point x="1230" y="1309" type="curve"/>
      <point x="1594" y="1309" type="line"/>
      <point x="1585" y="1222" type="line"/>
      <point x="1443" y="1202" type="line"/>
      <point x="1422" y="101" type="line"/>
      <point x="1554" y="76" type="line"/>
      <point x="1546" y="0" type="line"/>
      <point x="1088" y="0" type="line"/>
      <point x="1096" y="76" type="line"/>
      <point x="1247" y="100" type="line"/>
      <point x="1279" y="875" type="line"/>
      <point x="1305" y="1221" type="line"/>
      <point x="1187" y="916" type="line"/>
      <point x="782" y="-3" type="line"/>
      <point x="685" y="-15" type="line"/>
      <point x="538" y="895" type="line"/>
      <point x="485" y="1219" type="line"/>
      <point x="423" y="887" type="line"/>
      <point x="241" y="101" type="line"/>
      <point x="402" y="76" type="line"/>
      <point x="394" y="0" type="line"/>
      <point x="-46" y="0" type="line"/>
      <point x="-38" y="76" type="line"/>
    </contour>
  </outline>
</glyph>
<glyph name="P" format="1">
  <advance width="1065"/>
  <unicode hex="0050"/>
  <note>
	P
  </note>
  <outline>
    <contour>
      <point x="159" y="101" type="line"/>
      <point x="298" y="1202" type="line"/>
      <point x="183" y="1222" type="line"/>
      <point x="194" y="1309" type="line"/>
      <point x="413" y="1309" type="line" smooth="yes"/>
      <point x="439" y="1309"/>
      <point x="478" y="1311"/>
      <point x="531" y="1316" type="curve" smooth="yes"/>
      <point x="580" y="1321"/>
      <point x="623" y="1324"/>
      <point x="660" y="1324" type="curve" smooth="yes"/>
      <point x="920" y="1324"/>
      <point x="1056" y="1210"/>
      <point x="1056" y="975" type="curve" smooth="yes"/>
      <point x="1056" y="762"/>
      <point x="953" y="606"/>
      <point x="792" y="527" type="curve" smooth="yes"/>
      <point x="711" y="487"/>
      <point x="622" y="467"/>
      <point x="525" y="467" type="curve" smooth="yes"/>
      <point x="455" y="467"/>
      <point x="406" y="468"/>
      <point x="378" y="470" type="curve"/>
      <point x="335" y="101" type="line"/>
      <point x="507" y="76" type="line"/>
      <point x="500" y="0" type="line"/>
      <point x="24" y="0" type="line"/>
      <point x="32" y="75" type="line"/>
    </contour>
    <contour>
      <point x="696" y="571"/>
      <point x="791" y="633"/>
      <point x="836" y="750" type="curve" smooth="yes"/>
      <point x="880" y="867"/>
      <point x="881" y="1037"/>
      <point x="854" y="1110" type="curve" smooth="yes"/>
      <point x="826" y="1182"/>
      <point x="763" y="1221"/>
      <point x="646" y="1221" type="curve" smooth="yes"/>
      <point x="601" y="1221"/>
      <point x="522" y="1215"/>
      <point x="474" y="1203" type="curve"/>
      <point x="391" y="582" type="line"/>
      <point x="440" y="574"/>
      <point x="487" y="570"/>
      <point x="533" y="570" type="curve" smooth="yes"/>
    </contour>
  </outline>
</glyph>
<glyph name="Q" format="1">
  <advance width="1194"/>
  <unicode hex="0051"/>
  <note>
	Q
  </note>
  <outline>
    <contour>
      <point x="886" y="1327"/>
      <point x="1016" y="1218"/>
      <point x="1079" y="1049" type="curve" smooth="yes"/>
      <point x="1110" y="964"/>
      <point x="1126" y="870"/>
      <point x="1126" y="765" type="curve" smooth="yes"/>
      <point x="1126" y="496"/>
      <point x="1034" y="265"/>
      <point x="879" y="123" type="curve" smooth="yes"/>
      <point x="801" y="52"/>
      <point x="713" y="8"/>
      <point x="614" y="-9" type="curve"/>
      <point x="619" y="-93"/>
      <point x="668" y="-134"/>
      <point x="734" y="-146" type="curve" smooth="yes"/>
      <point x="767" y="-153"/>
      <point x="808" y="-156"/>
      <point x="859" y="-156" type="curve" smooth="yes"/>
      <point x="910" y="-156"/>
      <point x="992" y="-140"/>
      <point x="1041" y="-119" type="curve"/>
      <point x="1042" y="-237" type="line"/>
      <point x="997" y="-276"/>
      <point x="892" y="-310"/>
      <point x="799" y="-310" type="curve" smooth="yes"/>
      <point x="688" y="-310"/>
      <point x="592" y="-275"/>
      <point x="537" y="-203" type="curve" smooth="yes"/>
      <point x="510" y="-167"/>
      <point x="496" y="-123"/>
      <point x="496" y="-71" type="curve" smooth="yes"/>
      <point x="496" y="-54"/>
      <point x="498" y="-36"/>
      <point x="501" y="-15" type="curve"/>
      <point x="324" y="-6"/>
      <point x="202" y="106"/>
      <point x="143" y="274" type="curve" smooth="yes"/>
      <point x="114" y="358"/>
      <point x="99" y="451"/>
      <point x="99" y="553" type="curve" smooth="yes"/>
      <point x="99" y="845"/>
      <point x="209" y="1093"/>
      <point x="390" y="1227" type="curve" smooth="yes"/>
      <point x="481" y="1294"/>
      <point x="582" y="1327"/>
      <point x="695" y="1327" type="curve" smooth="yes"/>
    </contour>
    <contour>
      <point x="942" y="931"/>
      <point x="901" y="1080"/>
      <point x="818" y="1160" type="curve" smooth="yes"/>
      <point x="777" y="1199"/>
      <point x="726" y="1219"/>
      <point x="666" y="1219" type="curve" smooth="yes"/>
      <point x="519" y="1219"/>
      <point x="396" y="1104"/>
      <point x="329" y="909" type="curve" smooth="yes"/>
      <point x="295" y="812"/>
      <point x="278" y="702"/>
      <point x="278" y="579" type="curve" smooth="yes"/>
      <point x="278" y="384"/>
      <point x="319" y="232"/>
      <point x="402" y="149" type="curve" smooth="yes"/>
      <point x="443" y="108"/>
      <point x="494" y="87"/>
      <point x="554" y="87" type="curve" smooth="yes"/>
      <point x="699" y="87"/>
      <point x="823" y="205"/>
      <point x="891" y="402" type="curve" smooth="yes"/>
      <point x="925" y="501"/>
      <point x="942" y="611"/>
      <point x="942" y="734" type="curve" smooth="yes"/>
    </contour>
  </outline>
</glyph>
<glyph name="T" format="1">
  <advance width="1061"/>
  <unicode hex="0054"/>
  <note>
	T
  </note>
  <outline>
    <contour>
      <point x="384" y="101" type="line"/>
      <point x="525" y="1216" type="line"/>
      <point x="254" y="1199" type="line"/>
      <point x="171" y="906" type="line"/>
      <point x="71" y="904" type="line"/>
      <point x="138" y="1309" type="line"/>
      <point x="1125" y="1309" type="line"/>
      <point x="1067" y="904" type="line"/>
      <point x="972" y="904" type="line"/>
      <point x="978" y="1198" type="line"/>
      <point x="702" y="1216" type="line"/>
      <point x="559" y="101" type="line"/>
      <point x="774" y="81" type="line"/>
      <point x="768" y="0" type="line"/>
      <point x="166" y="0" type="line"/>
      <point x="174" y="81" type="line"/>
    </contour>
  </outline>
</glyph>
<glyph name="U" format="1">
  <advance width="1188"/>
  <unicode hex="0055"/>
  <note>
	U
  </note>
  <outline>
    <contour>
      <point x="224" y="1202" type="line"/>
      <point x="109" y="1223" type="line"/>
      <point x="120" y="1309" type="line"/>
      <point x="542" y="1309" type="line"/>
      <point x="532" y="1223" type="line"/>
      <point x="401" y="1201" type="line"/>
      <point x="311" y="525" type="line" smooth="yes"/>
      <point x="305" y="465"/>
      <point x="302" y="415"/>
      <point x="302" y="374" type="curve" smooth="yes"/>
      <point x="302" y="182"/>
      <point x="388" y="78"/>
      <point x="544" y="78" type="curve" smooth="yes"/>
      <point x="737" y="78"/>
      <point x="853" y="235"/>
      <point x="888" y="538" type="curve" smooth="yes"/>
      <point x="976" y="1201" type="line"/>
      <point x="861" y="1222" type="line"/>
      <point x="870" y="1309" type="line"/>
      <point x="1244" y="1309" type="line"/>
      <point x="1233" y="1222" type="line"/>
      <point x="1127" y="1202" type="line"/>
      <point x="1037" y="539" type="line" smooth="yes"/>
      <point x="1002" y="272"/>
      <point x="916" y="113"/>
      <point x="774" y="39" type="curve" smooth="yes"/>
      <point x="703" y="2"/>
      <point x="617" y="-17"/>
      <point x="517" y="-17" type="curve" smooth="yes"/>
      <point x="352" y="-17"/>
      <point x="233" y="48"/>
      <point x="173" y="163" type="curve" smooth="yes"/>
      <point x="112" y="278"/>
      <point x="123" y="419"/>
      <point x="132" y="510" type="curve" smooth="yes"/>
    </contour>
  </outline>
</glyph>
<glyph name="V" format="1">
  <advance width="1054"/>
  <unicode hex="0056"/>
  <note>
	V
  </note>
  <outline>
    <contour>
      <point x="61" y="1222" type="line"/>
      <point x="70" y="1309" type="line"/>
      <point x="489" y="1309" type="line"/>
      <point x="481" y="1222" type="line"/>
      <point x="350" y="1202" type="line"/>
      <point x="466" y="388" type="line"/>
      <point x="489" y="150" type="line"/>
      <point x="570" y="388" type="line"/>
      <point x="925" y="1202" type="line"/>
      <point x="808" y="1223" type="line"/>
      <point x="817" y="1309" type="line"/>
      <point x="1174" y="1309" type="line"/>
      <point x="1165" y="1223" type="line"/>
      <point x="1074" y="1203" type="line"/>
      <point x="523" y="-8" type="line"/>
      <point x="370" y="-18" type="line"/>
      <point x="167" y="1202" type="line"/>
    </contour>
  </outline>
</glyph>
<glyph name="Z" format="1">
  <advance width="1025"/>
  <unicode hex="005A"/>
  <note>
	Z
  </note>
  <outline>
    <contour>
      <point x="693" y="1042" type="line"/>
      <point x="837" y="1210" type="line"/>
      <point x="347" y="1204" type="line"/>
      <point x="263" y="991" type="line"/>
      <point x="159" y="1011" type="line"/>
      <point x="208" y="1309" type="line"/>
      <point x="1018" y="1309" type="line"/>
      <point x="1040" y="1235" type="line"/>
      <point x="341" y="258" type="line"/>
      <point x="211" y="93" type="line"/>
      <point x="757" y="114" type="line"/>
      <point x="867" y="334" type="line"/>
      <point x="973" y="306" type="line"/>
      <point x="893" y="0" type="line"/>
      <point x="19" y="0" type="line"/>
      <point x="-4" y="77" type="line"/>
    </contour>
  </outline>
</glyph>
<glyph name="bracketleft" format="1">
  <advance width="735"/>
  <unicode hex="005B"/>
  <note>
	bracketleft
  </note>
  <outline>
    <contour>
      <point x="341" y="1389"/>
      <point x="366" y="1446"/>
      <point x="419" y="1473" type="curve" smooth="yes"/>
      <point x="445" y="1486"/>
      <point x="481" y="1493"/>
      <point x="526" y="1493" type="curve" smooth="yes"/>
      <point x="571" y="1493"/>
      <point x="647" y="1478"/>
      <point x="700" y="1466" type="curve"/>
      <point x="726" y="1459"/>
      <point x="743" y="1455"/>
      <point x="750" y="1453" type="curve"/>
      <point x="739" y="1377" type="line"/>
      <point x="502" y="1377" type="line"/>
      <point x="310" y="-47" type="line"/>
      <point x="429" y="-48" type="line" smooth="yes"/>
      <point x="456" y="-49"/>
      <point x="496" y="-49"/>
      <point x="547" y="-49" type="curve"/>
      <point x="538" y="-125" type="line"/>
      <point x="438" y="-153"/>
      <point x="387" y="-165"/>
      <point x="303" y="-165" type="curve" smooth="yes"/>
      <point x="228" y="-165"/>
      <point x="187" y="-152"/>
      <point x="167" y="-116" type="curve" smooth="yes"/>
      <point x="157" y="-98"/>
      <point x="152" y="-73"/>
      <point x="152" y="-42" type="curve" smooth="yes"/>
      <point x="152" y="-9"/>
      <point x="153" y="22"/>
      <point x="156" y="52" type="curve"/>
      <point x="165" y="227"/>
      <point x="199" y="457"/>
      <point x="259" y="830" type="curve" smooth="yes"/>
      <point x="290" y="1029"/>
      <point x="313" y="1177"/>
      <point x="326" y="1276" type="curve" smooth="yes"/>
    </contour>
  </outline>
</glyph>
<glyph name="backslash" format="1">
  <advance width="734"/>
  <unicode hex="005C"/>
  <note>
	backslash
  </note>
  <outline>
    <contour>
      <point x="255" y="1373" type="line"/>
      <point x="105" y="1373" type="line"/>
      <point x="600" y="-311" type="line"/>
      <point x="752" y="-311" type="line"/>
    </contour>
  </outline>
</glyph>
<glyph name="bracketright" format="1">
  <advance width="735"/>
  <unicode hex="005D"/>
  <note>
	bracketright
  </note>
  <outline>
    <contour>
      <point x="436" y="-51"/>
      <point x="411" y="-108"/>
      <point x="359" y="-135" type="curve" smooth="yes"/>
      <point x="333" y="-148"/>
      <point x="297" y="-155"/>
      <point x="251" y="-155" type="curve" smooth="yes"/>
      <point x="207" y="-155"/>
      <point x="131" y="-140"/>
      <point x="79" y="-127" type="curve" smooth="yes"/>
      <point x="52" y="-121"/>
      <point x="35" y="-117"/>
      <point x="28" y="-114" type="curve"/>
      <point x="39" y="-39" type="line"/>
      <point x="275" y="-39" type="line"/>
      <point x="467" y="1385" type="line"/>
      <point x="349" y="1386" type="line" smooth="yes"/>
      <point x="322" y="1387"/>
      <point x="282" y="1387"/>
      <point x="230" y="1387" type="curve"/>
      <point x="240" y="1463" type="line"/>
      <point x="340" y="1491"/>
      <point x="391" y="1503"/>
      <point x="475" y="1503" type="curve" smooth="yes"/>
      <point x="550" y="1503"/>
      <point x="590" y="1490"/>
      <point x="610" y="1455" type="curve" smooth="yes"/>
      <point x="620" y="1437"/>
      <point x="625" y="1412"/>
      <point x="625" y="1380" type="curve" smooth="yes"/>
      <point x="625" y="1347"/>
      <point x="624" y="1316"/>
      <point x="622" y="1286" type="curve" smooth="yes"/>
      <point x="611" y="1111"/>
      <point x="578" y="883"/>
      <point x="519" y="508" type="curve" smooth="yes"/>
      <point x="487" y="309"/>
      <point x="465" y="161"/>
      <point x="452" y="62" type="curve" smooth="yes"/>
    </contour>
  </outline>
</glyph>
<glyph name="underscore" format="1">
  <advance width="1148"/>
  <unicode hex="005F"/>
  <note>
	underscore
  </note>
  <outline>
    <contour>
      <point x="1090" y="-291" type="line"/>
      <point x="-95" y="-291" type="line"/>
      <point x="-78" y="-161" type="line"/>
      <point x="1107" y="-161" type="line"/>
    </contour>
  </outline>
</glyph>
<glyph name="grave" format="1">
  <advance width="465"/>
  <unicode hex="0060"/>
  <note>
	grave
  </note>
  <outline>
    <contour>
      <point x="175" y="1499" type="line"/>
      <point x="422" y="1127" type="line"/>
      <point x="365" y="1076" type="line"/>
      <point x="317" y="1095"/>
      <point x="215" y="1177"/>
      <point x="131" y="1262" type="curve" smooth="yes"/>
      <point x="88" y="1305"/>
      <point x="58" y="1341"/>
      <point x="41" y="1372" type="curve"/>
    </contour>
  </outline>
</glyph>
<glyph name="b" format="1">
  <advance width="1022"/>
  <unicode hex="0062"/>
  <note>
	b
  </note>
  <outline>
    <contour>
      <point x="194" y="1313" type="line"/>
      <point x="212" y="1385" type="line"/>
      <point x="422" y="1419" type="line"/>
      <point x="466" y="1396" type="line"/>
      <point x="395" y="862" type="line"/>
      <point x="456" y="941"/>
      <point x="549" y="1000"/>
      <point x="654" y="1000" type="curve" smooth="yes"/>
      <point x="783" y="1000"/>
      <point x="871" y="934"/>
      <point x="915" y="822" type="curve" smooth="yes"/>
      <point x="936" y="766"/>
      <point x="947" y="701"/>
      <point x="947" y="628" type="curve" smooth="yes"/>
      <point x="947" y="440"/>
      <point x="854" y="219"/>
      <point x="687" y="84" type="curve" smooth="yes"/>
      <point x="604" y="17"/>
      <point x="507" y="-17"/>
      <point x="397" y="-17" type="curve" smooth="yes"/>
      <point x="332" y="-17"/>
      <point x="248" y="0"/>
      <point x="192" y="21" type="curve"/>
      <point x="106" y="-17" type="line"/>
      <point x="275" y="1276" type="line"/>
    </contour>
    <contour>
      <point x="295" y="122" type="line"/>
      <point x="326" y="99"/>
      <point x="369" y="88"/>
      <point x="424" y="88" type="curve" smooth="yes"/>
      <point x="572" y="88"/>
      <point x="679" y="214"/>
      <point x="729" y="378" type="curve" smooth="yes"/>
      <point x="754" y="460"/>
      <point x="766" y="540"/>
      <point x="766" y="617" type="curve" smooth="yes"/>
      <point x="766" y="781"/>
      <point x="712" y="876"/>
      <point x="623" y="876" type="curve" smooth="yes"/>
      <point x="527" y="876"/>
      <point x="430" y="797"/>
      <point x="375" y="716" type="curve"/>
    </contour>
  </outline>
</glyph>
<glyph name="f" format="1">
  <advance width="602"/>
  <unicode hex="0066"/>
  <note>
	f
  </note>
  <outline>
    <contour>
      <point x="110" y="869" type="line"/>
      <point x="123" y="935" type="line"/>
      <point x="251" y="988" type="line"/>
      <point x="261" y="1049" type="line" smooth="yes"/>
      <point x="285" y="1188"/>
      <point x="364" y="1314"/>
      <point x="467" y="1384" type="curve" smooth="yes"/>
      <point x="518" y="1419"/>
      <point x="571" y="1436"/>
      <point x="624" y="1436" type="curve" smooth="yes"/>
      <point x="676" y="1436"/>
      <point x="719" y="1431"/>
      <point x="759" y="1414" type="curve"/>
      <point x="709" y="1269" type="line"/>
      <point x="674" y="1293"/>
      <point x="642" y="1311"/>
      <point x="589" y="1311" type="curve" smooth="yes"/>
      <point x="504" y="1311"/>
      <point x="453" y="1220"/>
      <point x="433" y="1071" type="curve" smooth="yes"/>
      <point x="423" y="993" type="line"/>
      <point x="624" y="993" type="line"/>
      <point x="610" y="869" type="line"/>
      <point x="408" y="869" type="line"/>
      <point x="293" y="-43" type="line" smooth="yes"/>
      <point x="274" y="-199"/>
      <point x="209" y="-323"/>
      <point x="116" y="-390" type="curve" smooth="yes"/>
      <point x="69" y="-423"/>
      <point x="18" y="-440"/>
      <point x="-38" y="-441" type="curve" smooth="yes"/>
      <point x="-95" y="-442"/>
      <point x="-153" y="-437"/>
      <point x="-180" y="-430" type="curve"/>
      <point x="-134" y="-285" type="line"/>
      <point x="-111" y="-294"/>
      <point x="-29" y="-318"/>
      <point x="8" y="-317" type="curve" smooth="yes"/>
      <point x="34" y="-317"/>
      <point x="55" y="-298"/>
      <point x="72" y="-261" type="curve" smooth="yes"/>
      <point x="89" y="-224"/>
      <point x="101" y="-174"/>
      <point x="110" y="-110" type="curve" smooth="yes"/>
      <point x="229" y="869" type="line"/>
    </contour>
  </outline>
</glyph>
<glyph name="h" format="1">
  <advance width="1067"/>
  <unicode hex="0068"/>
  <note>
	h
  </note>
  <outline>
    <contour>
      <point x="706" y="413" type="line" smooth="yes"/>
      <point x="731" y="545"/>
      <point x="748" y="645"/>
      <point x="748" y="730" type="curve" smooth="yes"/>
      <point x="748" y="769"/>
      <point x="744" y="798"/>
      <point x="736" y="817" type="curve" smooth="yes"/>
      <point x="719" y="856"/>
      <point x="694" y="863"/>
      <point x="651" y="863" type="curve" smooth="yes"/>
      <point x="564" y="863"/>
      <point x="446" y="773"/>
      <point x="359" y="649" type="curve"/>
      <point x="273" y="0" type="line"/>
      <point x="101" y="0" type="line"/>
      <point x="267" y="1275" type="line"/>
      <point x="164" y="1312" type="line"/>
      <point x="179" y="1383" type="line"/>
      <point x="413" y="1419" type="line"/>
      <point x="458" y="1396" type="line"/>
      <point x="377" y="784" type="line"/>
      <point x="473" y="913"/>
      <point x="601" y="1000"/>
      <point x="729" y="1000" type="curve" smooth="yes"/>
      <point x="857" y="1000"/>
      <point x="925" y="927"/>
      <point x="925" y="740" type="curve" smooth="yes"/>
      <point x="925" y="667"/>
      <point x="909" y="575"/>
      <point x="882" y="434" type="curve" smooth="yes"/>
      <point x="877" y="410" type="line" smooth="yes"/>
      <point x="858" y="301"/>
      <point x="847" y="218"/>
      <point x="843" y="161" type="curve" smooth="yes"/>
      <point x="842" y="139"/>
      <point x="843" y="123"/>
      <point x="846" y="112" type="curve" smooth="yes"/>
      <point x="849" y="101"/>
      <point x="854" y="96"/>
      <point x="862" y="96" type="curve" smooth="yes"/>
      <point x="871" y="96"/>
      <point x="883" y="100"/>
      <point x="897" y="107" type="curve" smooth="yes"/>
      <point x="910" y="114"/>
      <point x="929" y="126"/>
      <point x="953" y="144" type="curve"/>
      <point x="980" y="98" type="line"/>
      <point x="968" y="78"/>
      <point x="921" y="34"/>
      <point x="861" y="5" type="curve" smooth="yes"/>
      <point x="830" y="-10"/>
      <point x="799" y="-17"/>
      <point x="767" y="-17" type="curve" smooth="yes"/>
      <point x="691" y="-17"/>
      <point x="653" y="17"/>
      <point x="658" y="97" type="curve" smooth="yes"/>
      <point x="661" y="152"/>
      <point x="670" y="211"/>
      <point x="690" y="322" type="curve" smooth="yes"/>
      <point x="700" y="381" type="line"/>
    </contour>
  </outline>
</glyph>
<glyph name="l" format="1">
  <advance width="522"/>
  <unicode hex="006C"/>
  <note>
	l
  </note>
  <outline>
    <contour>
      <point x="283" y="1275" type="line"/>
      <point x="177" y="1312" type="line"/>
      <point x="195" y="1383" type="line"/>
      <point x="426" y="1419" type="line"/>
      <point x="467" y="1396" type="line"/>
      <point x="294" y="163" type="line" smooth="yes"/>
      <point x="293" y="156"/>
      <point x="292" y="148"/>
      <point x="292" y="137" type="curve" smooth="yes"/>
      <point x="292" y="112"/>
      <point x="300" y="97"/>
      <point x="312" y="97" type="curve" smooth="yes"/>
      <point x="323" y="97"/>
      <point x="335" y="101"/>
      <point x="349" y="109" type="curve"/>
      <point x="363" y="116"/>
      <point x="381" y="131"/>
      <point x="404" y="153" type="curve"/>
      <point x="431" y="108" type="line"/>
      <point x="418" y="84"/>
      <point x="374" y="38"/>
      <point x="315" y="7" type="curve" smooth="yes"/>
      <point x="285" y="-9"/>
      <point x="254" y="-17"/>
      <point x="223" y="-17" type="curve" smooth="yes"/>
      <point x="151" y="-17"/>
      <point x="120" y="16"/>
      <point x="120" y="99" type="curve" smooth="yes"/>
      <point x="120" y="122"/>
      <point x="122" y="144"/>
      <point x="126" y="165" type="curve"/>
    </contour>
  </outline>
</glyph>
<glyph name="p" format="1">
  <advance width="999"/>
  <unicode hex="0070"/>
  <note>
	p
  </note>
  <outline>
    <contour>
      <point x="200" y="-447" type="line"/>
      <point x="32" y="-447" type="line"/>
      <point x="206" y="843" type="line"/>
      <point x="113" y="888" type="line"/>
      <point x="128" y="955" type="line"/>
      <point x="350" y="1000" type="line"/>
      <point x="390" y="980" type="line"/>
      <point x="378" y="866" type="line"/>
      <point x="439" y="943"/>
      <point x="529" y="1000"/>
      <point x="632" y="1000" type="curve" smooth="yes"/>
      <point x="760" y="1000"/>
      <point x="849" y="934"/>
      <point x="893" y="822" type="curve" smooth="yes"/>
      <point x="914" y="766"/>
      <point x="925" y="701"/>
      <point x="925" y="628" type="curve" smooth="yes"/>
      <point x="925" y="440"/>
      <point x="832" y="219"/>
      <point x="665" y="84" type="curve" smooth="yes"/>
      <point x="581" y="17"/>
      <point x="484" y="-17"/>
      <point x="375" y="-17" type="curve" smooth="yes"/>
      <point x="340" y="-17"/>
      <point x="302" y="-13"/>
      <point x="261" y="-4" type="curve"/>
    </contour>
    <contour>
      <point x="278" y="118" type="line"/>
      <point x="307" y="98"/>
      <point x="349" y="88"/>
      <point x="402" y="88" type="curve" smooth="yes"/>
      <point x="550" y="88"/>
      <point x="655" y="214"/>
      <point x="706" y="378" type="curve" smooth="yes"/>
      <point x="731" y="460"/>
      <point x="744" y="540"/>
      <point x="744" y="617" type="curve" smooth="yes"/>
      <point x="744" y="781"/>
      <point x="689" y="876"/>
      <point x="600" y="876" type="curve" smooth="yes"/>
      <point x="511" y="876"/>
      <point x="422" y="808"/>
      <point x="363" y="731" type="curve"/>
    </contour>
  </outline>
</glyph>
<glyph name="q" format="1">
  <advance width="995"/>
  <unicode hex="0071"/>
  <note>
	q
  </note>
  <outline>
    <contour>
      <point x="71" y="541"/>
      <point x="165" y="763"/>
      <point x="335" y="899" type="curve" smooth="yes"/>
      <point x="420" y="966"/>
      <point x="518" y="1000"/>
      <point x="629" y="1000" type="curve" smooth="yes"/>
      <point x="688" y="1000"/>
      <point x="761" y="985"/>
      <point x="814" y="965" type="curve"/>
      <point x="896" y="974" type="line"/>
      <point x="733" y="-267" type="line"/>
      <point x="732" y="-270"/>
      <point x="732" y="-276"/>
      <point x="732" y="-283" type="curve" smooth="yes"/>
      <point x="732" y="-296"/>
      <point x="734" y="-308"/>
      <point x="738" y="-317" type="curve"/>
      <point x="741" y="-327"/>
      <point x="746" y="-332"/>
      <point x="751" y="-332" type="curve" smooth="yes"/>
      <point x="760" y="-332"/>
      <point x="772" y="-328"/>
      <point x="787" y="-319" type="curve" smooth="yes"/>
      <point x="801" y="-311"/>
      <point x="820" y="-296"/>
      <point x="844" y="-275" type="curve"/>
      <point x="870" y="-322" type="line"/>
      <point x="855" y="-345"/>
      <point x="810" y="-390"/>
      <point x="749" y="-421" type="curve" smooth="yes"/>
      <point x="718" y="-437"/>
      <point x="687" y="-445"/>
      <point x="655" y="-445" type="curve" smooth="yes"/>
      <point x="584" y="-445"/>
      <point x="551" y="-410"/>
      <point x="555" y="-329" type="curve"/>
      <point x="611" y="108" type="line"/>
      <point x="548" y="35"/>
      <point x="458" y="-17"/>
      <point x="355" y="-17" type="curve" smooth="yes"/>
      <point x="230" y="-17"/>
      <point x="143" y="49"/>
      <point x="102" y="161" type="curve" smooth="yes"/>
      <point x="81" y="216"/>
      <point x="71" y="281"/>
      <point x="71" y="354" type="curve" smooth="yes"/>
    </contour>
    <contour>
      <point x="711" y="869" type="line"/>
      <point x="682" y="886"/>
      <point x="646" y="894"/>
      <point x="603" y="894" type="curve" smooth="yes"/>
      <point x="450" y="894"/>
      <point x="342" y="768"/>
      <point x="291" y="604" type="curve" smooth="yes"/>
      <point x="265" y="522"/>
      <point x="252" y="443"/>
      <point x="252" y="366" type="curve" smooth="yes"/>
      <point x="252" y="201"/>
      <point x="303" y="106"/>
      <point x="387" y="106" type="curve" smooth="yes"/>
      <point x="478" y="106"/>
      <point x="573" y="174"/>
      <point x="630" y="250" type="curve"/>
    </contour>
  </outline>
</glyph>
<glyph name="r" format="1">
  <advance width="719"/>
  <unicode hex="0072"/>
  <note>
	r
  </note>
  <outline>
    <contour>
      <point x="133" y="879" type="line"/>
      <point x="149" y="955" type="line"/>
      <point x="360" y="1000" type="line"/>
      <point x="402" y="980" type="line"/>
      <point x="384" y="783" type="line"/>
      <point x="412" y="840"/>
      <point x="470" y="914"/>
      <point x="555" y="963" type="curve" smooth="yes"/>
      <point x="598" y="987"/>
      <point x="644" y="999"/>
      <point x="694" y="999" type="curve" smooth="yes"/>
      <point x="721" y="999"/>
      <point x="739" y="995"/>
      <point x="746" y="988" type="curve"/>
      <point x="708" y="804" type="line"/>
      <point x="692" y="813"/>
      <point x="662" y="817"/>
      <point x="619" y="817" type="curve" smooth="yes"/>
      <point x="526" y="817"/>
      <point x="423" y="756"/>
      <point x="364" y="619" type="curve"/>
      <point x="286" y="0" type="line"/>
      <point x="114" y="0" type="line"/>
      <point x="219" y="827" type="line"/>
    </contour>
  </outline>
</glyph>
<glyph name="s" format="1">
  <advance width="747"/>
  <unicode hex="0073"/>
  <note>
	s
  </note>
  <outline>
    <contour>
      <point x="66" y="165" type="line"/>
      <point x="113" y="133"/>
      <point x="204" y="100"/>
      <point x="297" y="100" type="curve" smooth="yes"/>
      <point x="394" y="100"/>
      <point x="466" y="123"/>
      <point x="466" y="223" type="curve" smooth="yes"/>
      <point x="466" y="282"/>
      <point x="435" y="331"/>
      <point x="395" y="368" type="curve"/>
      <point x="374" y="386"/>
      <point x="348" y="407"/>
      <point x="315" y="431" type="curve" smooth="yes"/>
      <point x="223" y="499"/>
      <point x="135" y="600"/>
      <point x="135" y="721" type="curve" smooth="yes"/>
      <point x="135" y="830"/>
      <point x="202" y="920"/>
      <point x="304" y="966" type="curve" smooth="yes"/>
      <point x="355" y="989"/>
      <point x="410" y="1000"/>
      <point x="470" y="1000" type="curve" smooth="yes"/>
      <point x="555" y="1000"/>
      <point x="658" y="984"/>
      <point x="690" y="968" type="curve"/>
      <point x="657" y="823" type="line"/>
      <point x="653" y="829"/>
      <point x="642" y="837"/>
      <point x="624" y="848" type="curve" smooth="yes"/>
      <point x="587" y="869"/>
      <point x="528" y="888"/>
      <point x="463" y="888" type="curve" smooth="yes"/>
      <point x="379" y="888"/>
      <point x="312" y="857"/>
      <point x="304" y="773" type="curve"/>
      <point x="303" y="769"/>
      <point x="303" y="763"/>
      <point x="303" y="755" type="curve" smooth="yes"/>
      <point x="303" y="682"/>
      <point x="356" y="621"/>
      <point x="440" y="556" type="curve" smooth="yes"/>
      <point x="520" y="493"/>
      <point x="568" y="450"/>
      <point x="605" y="378" type="curve" smooth="yes"/>
      <point x="623" y="342"/>
      <point x="632" y="302"/>
      <point x="632" y="257" type="curve" smooth="yes"/>
      <point x="632" y="142"/>
      <point x="564" y="57"/>
      <point x="460" y="15" type="curve" smooth="yes"/>
      <point x="407" y="-6"/>
      <point x="350" y="-17"/>
      <point x="288" y="-17" type="curve" smooth="yes"/>
      <point x="185" y="-17"/>
      <point x="66" y="7"/>
      <point x="34" y="34" type="curve"/>
    </contour>
  </outline>
</glyph>
<glyph name="v" format="1">
  <advance width="909"/>
  <unicode hex="0076"/>
  <note>
	v
  </note>
  <outline>
    <contour>
      <point x="143" y="828" type="line" smooth="yes"/>
      <point x="134" y="892"/>
      <point x="93" y="884"/>
      <point x="56" y="857" type="curve"/>
      <point x="31" y="910" type="line"/>
      <point x="43" y="927"/>
      <point x="77" y="960"/>
      <point x="126" y="983" type="curve" smooth="yes"/>
      <point x="150" y="994"/>
      <point x="175" y="1000"/>
      <point x="201" y="1000" type="curve" smooth="yes"/>
      <point x="257" y="1000"/>
      <point x="289" y="982"/>
      <point x="303" y="949" type="curve" smooth="yes"/>
      <point x="310" y="932"/>
      <point x="314" y="910"/>
      <point x="317" y="882" type="curve" smooth="yes"/>
      <point x="377" y="309" type="line"/>
      <point x="387" y="149" type="line"/>
      <point x="483" y="290" type="line"/>
      <point x="558" y="409"/>
      <point x="603" y="492"/>
      <point x="643" y="598" type="curve" smooth="yes"/>
      <point x="663" y="651"/>
      <point x="679" y="708"/>
      <point x="690" y="770" type="curve"/>
      <point x="691" y="779"/>
      <point x="691" y="785"/>
      <point x="691" y="790" type="curve" smooth="yes"/>
      <point x="691" y="814"/>
      <point x="686" y="831"/>
      <point x="677" y="859" type="curve" smooth="yes"/>
      <point x="670" y="880"/>
      <point x="666" y="896"/>
      <point x="666" y="906" type="curve" smooth="yes"/>
      <point x="666" y="969"/>
      <point x="698" y="1000"/>
      <point x="750" y="1000" type="curve" smooth="yes"/>
      <point x="825" y="1000"/>
      <point x="862" y="938"/>
      <point x="862" y="827" type="curve" smooth="yes"/>
      <point x="862" y="730"/>
      <point x="800" y="592"/>
      <point x="731" y="473" type="curve" smooth="yes"/>
      <point x="696" y="413"/>
      <point x="655" y="346"/>
      <point x="606" y="271" type="curve"/>
      <point x="408" y="-7" type="line"/>
      <point x="277" y="-17" type="line"/>
      <point x="226" y="305" type="line"/>
    </contour>
  </outline>
</glyph>
<glyph name="braceleft" format="1">
  <advance width="877"/>
  <unicode hex="007B"/>
  <note>
	braceleft
  </note>
  <outline>
    <contour>
      <point x="317" y="517"/>
      <point x="301" y="537"/>
      <point x="273" y="556" type="curve" smooth="yes"/>
      <point x="236" y="580"/>
      <point x="182" y="602"/>
      <point x="131" y="614" type="curve"/>
      <point x="146" y="721" type="line"/>
      <point x="219" y="738"/>
      <point x="274" y="757"/>
      <point x="311" y="777" type="curve"/>
      <point x="346" y="794"/>
      <point x="364" y="812"/>
      <point x="367" y="831" type="curve" smooth="yes"/>
      <point x="433" y="1276" type="line" smooth="yes"/>
      <point x="452" y="1393"/>
      <point x="478" y="1449"/>
      <point x="530" y="1474" type="curve" smooth="yes"/>
      <point x="556" y="1487"/>
      <point x="592" y="1493"/>
      <point x="638" y="1493" type="curve" smooth="yes"/>
      <point x="685" y="1493"/>
      <point x="758" y="1478"/>
      <point x="811" y="1466" type="curve" smooth="yes"/>
      <point x="838" y="1459"/>
      <point x="855" y="1455"/>
      <point x="862" y="1453" type="curve"/>
      <point x="859" y="1440"/>
      <point x="851" y="1390"/>
      <point x="851" y="1377" type="curve"/>
      <point x="613" y="1377" type="line"/>
      <point x="531" y="834" type="line" smooth="yes"/>
      <point x="523" y="791"/>
      <point x="495" y="759"/>
      <point x="446" y="728" type="curve" smooth="yes"/>
      <point x="426" y="715"/>
      <point x="343" y="676"/>
      <point x="322" y="667" type="curve"/>
      <point x="446" y="602"/>
      <point x="480" y="564"/>
      <point x="480" y="508" type="curve" smooth="yes"/>
      <point x="480" y="503"/>
      <point x="480" y="498"/>
      <point x="479" y="494" type="curve"/>
      <point x="397" y="-47" type="line"/>
      <point x="634" y="-47" type="line"/>
      <point x="630" y="-70"/>
      <point x="624" y="-111"/>
      <point x="624" y="-124" type="curve"/>
      <point x="525" y="-152"/>
      <point x="472" y="-164"/>
      <point x="387" y="-164" type="curve" smooth="yes"/>
      <point x="314" y="-164"/>
      <point x="273" y="-151"/>
      <point x="254" y="-115" type="curve"/>
      <point x="244" y="-98"/>
      <point x="239" y="-73"/>
      <point x="240" y="-41" type="curve" smooth="yes"/>
      <point x="241" y="-21"/>
      <point x="301" y="390"/>
      <point x="317" y="498" type="curve"/>
    </contour>
  </outline>
</glyph>
<glyph name="bar" format="1">
  <advance width="734"/>
  <unicode hex="007C"/>
  <note>
	bar
  </note>
  <outline>
    <contour>
      <point x="459" y="1531" type="line"/>
      <point x="459" y="-160" type="line"/>
      <point x="309" y="-160" type="line"/>
      <point x="309" y="1531" type="line"/>
    </contour>
  </outline>
</glyph>
<glyph name="braceright" format="1">
  <advance width="877"/>
  <unicode hex="007D"/>
  <note>
	braceright
  </note>
  <outline>
    <contour>
      <point x="592" y="813"/>
      <point x="608" y="793"/>
      <point x="636" y="774" type="curve" smooth="yes"/>
      <point x="673" y="750"/>
      <point x="727" y="728"/>
      <point x="778" y="716" type="curve"/>
      <point x="763" y="609" type="line"/>
      <point x="690" y="591"/>
      <point x="635" y="572"/>
      <point x="598" y="553" type="curve" smooth="yes"/>
      <point x="563" y="535"/>
      <point x="545" y="517"/>
      <point x="542" y="499" type="curve" smooth="yes"/>
      <point x="476" y="53" type="line" smooth="yes"/>
      <point x="457" y="-63"/>
      <point x="431" y="-120"/>
      <point x="379" y="-144" type="curve" smooth="yes"/>
      <point x="353" y="-157"/>
      <point x="317" y="-163"/>
      <point x="271" y="-163" type="curve" smooth="yes"/>
      <point x="224" y="-163"/>
      <point x="151" y="-148"/>
      <point x="98" y="-135" type="curve" smooth="yes"/>
      <point x="71" y="-129"/>
      <point x="54" y="-125"/>
      <point x="47" y="-123" type="curve"/>
      <point x="50" y="-111"/>
      <point x="58" y="-62"/>
      <point x="58" y="-47" type="curve"/>
      <point x="296" y="-47" type="line"/>
      <point x="378" y="495" type="line" smooth="yes"/>
      <point x="386" y="539"/>
      <point x="414" y="571"/>
      <point x="463" y="602" type="curve" smooth="yes"/>
      <point x="483" y="614"/>
      <point x="566" y="653"/>
      <point x="587" y="662" type="curve"/>
      <point x="463" y="727"/>
      <point x="429" y="765"/>
      <point x="429" y="821" type="curve" smooth="yes"/>
      <point x="429" y="827"/>
      <point x="429" y="832"/>
      <point x="430" y="835" type="curve"/>
      <point x="512" y="1377" type="line"/>
      <point x="275" y="1377" type="line"/>
      <point x="279" y="1400"/>
      <point x="285" y="1440"/>
      <point x="286" y="1453" type="curve"/>
      <point x="383" y="1482"/>
      <point x="437" y="1494"/>
      <point x="522" y="1494" type="curve" smooth="yes"/>
      <point x="595" y="1494"/>
      <point x="636" y="1480"/>
      <point x="656" y="1445" type="curve"/>
      <point x="665" y="1427"/>
      <point x="670" y="1402"/>
      <point x="669" y="1371" type="curve" smooth="yes"/>
      <point x="668" y="1350"/>
      <point x="608" y="939"/>
      <point x="592" y="832" type="curve"/>
    </contour>
  </outline>
</glyph>
<glyph name="asciitilde" format="1">
  <advance width="977"/>
  <unicode hex="007E"/>
  <note>
	asciitilde
  </note>
  <outline>
    <contour>
      <point x="129" y="730" type="line"/>
      <point x="149" y="787"/>
      <point x="204" y="848"/>
      <point x="279" y="884" type="curve" smooth="yes"/>
      <point x="316" y="902"/>
      <point x="356" y="911"/>
      <point x="397" y="911" type="curve" smooth="yes"/>
      <point x="442" y="911"/>
      <point x="482" y="893"/>
      <point x="512" y="873" type="curve"/>
      <point x="527" y="862"/>
      <point x="545" y="848"/>
      <point x="568" y="829" type="curve" smooth="yes"/>
      <point x="621" y="785"/>
      <point x="652" y="764"/>
      <point x="692" y="764" type="curve" smooth="yes"/>
      <point x="763" y="764"/>
      <point x="821" y="797"/>
      <point x="866" y="864" type="curve"/>
      <point x="928" y="800" type="line"/>
      <point x="911" y="737"/>
      <point x="856" y="678"/>
      <point x="780" y="644" type="curve" smooth="yes"/>
      <point x="741" y="627"/>
      <point x="701" y="618"/>
      <point x="660" y="618" type="curve" smooth="yes"/>
      <point x="596" y="618"/>
      <point x="553" y="647"/>
      <point x="489" y="700" type="curve" smooth="yes"/>
      <point x="434" y="745"/>
      <point x="405" y="765"/>
      <point x="364" y="765" type="curve" smooth="yes"/>
      <point x="293" y="765"/>
      <point x="236" y="732"/>
      <point x="191" y="666" type="curve"/>
    </contour>
  </outline>
</glyph>
<glyph name="exclamdown" format="1">
  <advance width="590"/>
  <unicode hex="00A1"/>
  <note>
	exclamdown
  </note>
  <outline>
    <contour>
      <point x="293" y="937"/>
      <point x="259" y="975"/>
      <point x="259" y="1030" type="curve" smooth="yes"/>
      <point x="259" y="1037"/>
      <point x="259" y="1043"/>
      <point x="260" y="1047" type="curve"/>
      <point x="267" y="1096"/>
      <point x="297" y="1138"/>
      <point x="340" y="1159" type="curve" smooth="yes"/>
      <point x="361" y="1170"/>
      <point x="383" y="1175"/>
      <point x="406" y="1175" type="curve" smooth="yes"/>
      <point x="463" y="1175"/>
      <point x="502" y="1138"/>
      <point x="502" y="1081" type="curve" smooth="yes"/>
      <point x="502" y="1029"/>
      <point x="474" y="983"/>
      <point x="431" y="957" type="curve" smooth="yes"/>
      <point x="410" y="944"/>
      <point x="388" y="937"/>
      <point x="365" y="937" type="curve" smooth="yes"/>
    </contour>
    <contour>
      <point x="70" y="-373" type="line"/>
      <point x="280" y="734" type="line"/>
      <point x="401" y="734" type="line"/>
      <point x="284" y="-373" type="line"/>
    </contour>
  </outline>
</glyph>
<glyph name="cent" format="1">
  <advance width="908"/>
  <unicode hex="00A2"/>
  <note>
	cent
  </note>
  <outline>
    <contour>
      <point x="347" y="-9" type="line"/>
      <point x="199" y="24"/>
      <point x="115" y="160"/>
      <point x="115" y="371" type="curve" smooth="yes"/>
      <point x="115" y="535"/>
      <point x="180" y="725"/>
      <point x="304" y="858" type="curve" smooth="yes"/>
      <point x="365" y="924"/>
      <point x="438" y="967"/>
      <point x="522" y="988" type="curve"/>
      <point x="567" y="1168" type="line"/>
      <point x="696" y="1168" type="line"/>
      <point x="654" y="999" type="line"/>
      <point x="710" y="995"/>
      <point x="773" y="979"/>
      <point x="814" y="959" type="curve"/>
      <point x="764" y="788" type="line"/>
      <point x="761" y="789"/>
      <point x="755" y="794"/>
      <point x="744" y="802" type="curve"/>
      <point x="685" y="850"/>
      <point x="631" y="874"/>
      <point x="584" y="874" type="curve" smooth="yes"/>
      <point x="471" y="874"/>
      <point x="383" y="798"/>
      <point x="336" y="655" type="curve" smooth="yes"/>
      <point x="312" y="583"/>
      <point x="300" y="497"/>
      <point x="300" y="396" type="curve" smooth="yes"/>
      <point x="300" y="199"/>
      <point x="364" y="104"/>
      <point x="475" y="104" type="curve" smooth="yes"/>
      <point x="555" y="104"/>
      <point x="605" y="129"/>
      <point x="705" y="202" type="curve"/>
      <point x="740" y="132" type="line"/>
      <point x="687" y="68"/>
      <point x="594" y="1"/>
      <point x="475" y="-14" type="curve"/>
      <point x="443" y="-185" type="line"/>
      <point x="314" y="-185" type="line"/>
    </contour>
  </outline>
</glyph>
<glyph name="sterling" format="1">
  <advance width="1177"/>
  <unicode hex="00A3"/>
  <note>
	sterling
  </note>
  <outline>
    <contour>
      <point x="341" y="753" type="line"/>
      <point x="356" y="843" type="line" smooth="yes"/>
      <point x="383" y="1012"/>
      <point x="476" y="1170"/>
      <point x="612" y="1261" type="curve" smooth="yes"/>
      <point x="679" y="1306"/>
      <point x="753" y="1329"/>
      <point x="832" y="1329" type="curve" smooth="yes"/>
      <point x="943" y="1329"/>
      <point x="1004" y="1315"/>
      <point x="1060" y="1258" type="curve"/>
      <point x="962" y="1110" type="line"/>
      <point x="955" y="1127"/>
      <point x="913" y="1164"/>
      <point x="851" y="1189" type="curve" smooth="yes"/>
      <point x="820" y="1201"/>
      <point x="786" y="1207"/>
      <point x="750" y="1207" type="curve" smooth="yes"/>
      <point x="701" y="1207"/>
      <point x="656" y="1180"/>
      <point x="615" y="1125" type="curve" smooth="yes"/>
      <point x="574" y="1070"/>
      <point x="545" y="978"/>
      <point x="526" y="847" type="curve" smooth="yes"/>
      <point x="524" y="830"/>
      <point x="519" y="799"/>
      <point x="511" y="753" type="curve"/>
      <point x="787" y="753" type="line"/>
      <point x="772" y="639" type="line"/>
      <point x="490" y="639" type="line"/>
      <point x="483" y="594" type="line" smooth="yes"/>
      <point x="462" y="445"/>
      <point x="436" y="354"/>
      <point x="402" y="287" type="curve" smooth="yes"/>
      <point x="385" y="253"/>
      <point x="361" y="214"/>
      <point x="332" y="169" type="curve"/>
      <point x="359" y="162"/>
      <point x="394" y="151"/>
      <point x="439" y="134" type="curve" smooth="yes"/>
      <point x="538" y="99"/>
      <point x="598" y="81"/>
      <point x="673" y="81" type="curve" smooth="yes"/>
      <point x="853" y="81"/>
      <point x="924" y="142"/>
      <point x="924" y="278" type="curve" smooth="yes"/>
      <point x="924" y="322"/>
      <point x="890" y="388"/>
      <point x="861" y="415" type="curve"/>
      <point x="981" y="527" type="line"/>
      <point x="1053" y="471"/>
      <point x="1100" y="381"/>
      <point x="1100" y="288" type="curve" smooth="yes"/>
      <point x="1099" y="125"/>
      <point x="1004" y="-17"/>
      <point x="691" y="-17" type="curve" smooth="yes"/>
      <point x="568" y="-17"/>
      <point x="465" y="13"/>
      <point x="305" y="69" type="curve" smooth="yes"/>
      <point x="254" y="87" type="line"/>
      <point x="207" y="28"/>
      <point x="125" y="-17"/>
      <point x="57" y="-17" type="curve" smooth="yes"/>
      <point x="18" y="-17"/>
      <point x="-12" y="-2"/>
      <point x="-12" y="46" type="curve" smooth="yes"/>
      <point x="-12" y="49"/>
      <point x="-11" y="55"/>
      <point x="-10" y="64" type="curve"/>
      <point x="-3" y="104"/>
      <point x="43" y="151"/>
      <point x="111" y="179" type="curve" smooth="yes"/>
      <point x="145" y="193"/>
      <point x="181" y="200"/>
      <point x="218" y="200" type="curve"/>
      <point x="246" y="240"/>
      <point x="272" y="337"/>
      <point x="287" y="421" type="curve" smooth="yes"/>
      <point x="296" y="474"/>
      <point x="308" y="546"/>
      <point x="323" y="639" type="curve"/>
      <point x="171" y="639" type="line"/>
      <point x="187" y="753" type="line"/>
    </contour>
  </outline>
</glyph>
<glyph name="currency" format="1">
  <advance width="1324"/>
  <unicode hex="00A4"/>
  <note>
	currency
  </note>
  <outline>
    <contour>
      <point x="364" y="374" type="line"/>
      <point x="319" y="437"/>
      <point x="294" y="513"/>
      <point x="294" y="593" type="curve" smooth="yes"/>
      <point x="294" y="673"/>
      <point x="317" y="745"/>
      <point x="362" y="809" type="curve"/>
      <point x="196" y="976" type="line"/>
      <point x="294" y="1075" type="line"/>
      <point x="462" y="906" type="line"/>
      <point x="527" y="949"/>
      <point x="597" y="970"/>
      <point x="673" y="970" type="curve" smooth="yes"/>
      <point x="753" y="970"/>
      <point x="829" y="945"/>
      <point x="892" y="900" type="curve"/>
      <point x="1056" y="1064" type="line"/>
      <point x="1154" y="965" type="line"/>
      <point x="989" y="800" type="line"/>
      <point x="1030" y="738"/>
      <point x="1051" y="669"/>
      <point x="1051" y="593" type="curve" smooth="yes"/>
      <point x="1051" y="515"/>
      <point x="1029" y="444"/>
      <point x="985" y="380" type="curve"/>
      <point x="1152" y="213" type="line"/>
      <point x="1054" y="115" type="line"/>
      <point x="886" y="282" type="line"/>
      <point x="825" y="239"/>
      <point x="750" y="217"/>
      <point x="673" y="217" type="curve" smooth="yes"/>
      <point x="597" y="217"/>
      <point x="527" y="237"/>
      <point x="464" y="278" type="curve"/>
      <point x="298" y="111" type="line"/>
      <point x="199" y="209" type="line"/>
    </contour>
    <contour>
      <point x="762" y="335"/>
      <point x="843" y="384"/>
      <point x="888" y="464" type="curve" smooth="yes"/>
      <point x="910" y="504"/>
      <point x="921" y="547"/>
      <point x="921" y="593" type="curve" smooth="yes"/>
      <point x="921" y="686"/>
      <point x="873" y="772"/>
      <point x="797" y="818" type="curve" smooth="yes"/>
      <point x="759" y="841"/>
      <point x="718" y="852"/>
      <point x="673" y="852" type="curve" smooth="yes"/>
      <point x="582" y="852"/>
      <point x="502" y="803"/>
      <point x="458" y="723" type="curve" smooth="yes"/>
      <point x="435" y="683"/>
      <point x="424" y="640"/>
      <point x="424" y="593" type="curve" smooth="yes"/>
      <point x="424" y="501"/>
      <point x="472" y="416"/>
      <point x="548" y="370" type="curve" smooth="yes"/>
      <point x="586" y="347"/>
      <point x="628" y="335"/>
      <point x="673" y="335" type="curve" smooth="yes"/>
    </contour>
  </outline>
</glyph>
<glyph name="yen" format="1">
  <advance width="1275"/>
  <unicode hex="00A5"/>
  <note>
	yen
  </note>
  <outline>
    <contour>
      <point x="541" y="741" type="line"/>
      <point x="282" y="1207" type="line"/>
      <point x="181" y="1223" type="line"/>
      <point x="190" y="1309" type="line"/>
      <point x="624" y="1309" type="line"/>
      <point x="615" y="1223" type="line"/>
      <point x="464" y="1208" type="line"/>
      <point x="663" y="841" type="line"/>
      <point x="698" y="745" type="line"/>
      <point x="756" y="847" type="line"/>
      <point x="1014" y="1208" type="line"/>
      <point x="895" y="1223" type="line"/>
      <point x="905" y="1309" type="line"/>
      <point x="1306" y="1309" type="line"/>
      <point x="1297" y="1224" type="line"/>
      <point x="1180" y="1200" type="line"/>
      <point x="817" y="741" type="line"/>
      <point x="1109" y="741" type="line"/>
      <point x="1096" y="628" type="line"/>
      <point x="741" y="628" type="line"/>
      <point x="719" y="436" type="line"/>
      <point x="1074" y="436" type="line"/>
      <point x="1061" y="323" type="line"/>
      <point x="705" y="323" type="line"/>
      <point x="679" y="101" type="line"/>
      <point x="871" y="76" type="line"/>
      <point x="863" y="0" type="line"/>
      <point x="328" y="0" type="line"/>
      <point x="335" y="76" type="line"/>
      <point x="523" y="101" type="line"/>
      <point x="550" y="323" type="line"/>
      <point x="197" y="323" type="line"/>
      <point x="210" y="436" type="line"/>
      <point x="562" y="436" type="line"/>
      <point x="586" y="628" type="line"/>
      <point x="232" y="628" type="line"/>
      <point x="244" y="741" type="line"/>
    </contour>
  </outline>
</glyph>
<glyph name="brokenbar" format="1">
  <advance width="734"/>
  <unicode hex="00A6"/>
  <note>
	brokenbar
  </note>
  <outline>
    <contour>
      <point x="459" y="1531" type="line"/>
      <point x="459" y="763" type="line"/>
      <point x="309" y="763" type="line"/>
      <point x="309" y="1531" type="line"/>
    </contour>
    <contour>
      <point x="459" y="608" type="line"/>
      <point x="459" y="-160" type="line"/>
      <point x="309" y="-160" type="line"/>
      <point x="309" y="608" type="line"/>
    </contour>
  </outline>
</glyph>
<glyph name="section" format="1">
  <advance width="1026"/>
  <unicode hex="00A7"/>
  <note>
	section
  </note>
  <outline>
    <contour>
      <point x="175" y="198" type="line"/>
      <point x="205" y="19" type="line"/>
      <point x="257" y="-44"/>
      <point x="345" y="-62"/>
      <point x="454" y="-62" type="curve" smooth="yes"/>
      <point x="529" y="-62"/>
      <point x="614" y="-31"/>
      <point x="671" y="34" type="curve" smooth="yes"/>
      <point x="700" y="66"/>
      <point x="717" y="105"/>
      <point x="722" y="150" type="curve"/>
      <point x="722" y="154"/>
      <point x="722" y="159"/>
      <point x="722" y="165" type="curve" smooth="yes"/>
      <point x="722" y="224"/>
      <point x="673" y="268"/>
      <point x="609" y="300" type="curve" smooth="yes"/>
      <point x="577" y="315"/>
      <point x="533" y="335"/>
      <point x="476" y="358" type="curve" smooth="yes"/>
      <point x="337" y="413"/>
      <point x="258" y="449"/>
      <point x="198" y="521" type="curve" smooth="yes"/>
      <point x="168" y="556"/>
      <point x="153" y="599"/>
      <point x="153" y="650" type="curve" smooth="yes"/>
      <point x="153" y="657"/>
      <point x="154" y="667"/>
      <point x="155" y="680" type="curve" smooth="yes"/>
      <point x="163" y="761"/>
      <point x="207" y="858"/>
      <point x="267" y="927" type="curve"/>
      <point x="222" y="973"/>
      <point x="200" y="1025"/>
      <point x="200" y="1084" type="curve" smooth="yes"/>
      <point x="200" y="1091"/>
      <point x="200" y="1102"/>
      <point x="201" y="1115" type="curve"/>
      <point x="218" y="1263"/>
      <point x="333" y="1361"/>
      <point x="465" y="1406" type="curve" smooth="yes"/>
      <point x="530" y="1428"/>
      <point x="591" y="1439"/>
      <point x="646" y="1439" type="curve" smooth="yes"/>
      <point x="794" y="1439"/>
      <point x="923" y="1406"/>
      <point x="976" y="1373" type="curve"/>
      <point x="943" y="1114" type="line"/>
      <point x="859" y="1114" type="line"/>
      <point x="813" y="1293" type="line"/>
      <point x="781" y="1330"/>
      <point x="710" y="1347"/>
      <point x="622" y="1347" type="curve" smooth="yes"/>
      <point x="558" y="1346"/>
      <point x="479" y="1329"/>
      <point x="419" y="1274" type="curve" smooth="yes"/>
      <point x="389" y="1246"/>
      <point x="371" y="1208"/>
      <point x="366" y="1160" type="curve"/>
      <point x="365" y="1157"/>
      <point x="365" y="1151"/>
      <point x="365" y="1144" type="curve" smooth="yes"/>
      <point x="365" y="1080"/>
      <point x="414" y="1033"/>
      <point x="479" y="998" type="curve" smooth="yes"/>
      <point x="511" y="981"/>
      <point x="555" y="959"/>
      <point x="612" y="934" type="curve" smooth="yes"/>
      <point x="752" y="873"/>
      <point x="830" y="835"/>
      <point x="890" y="759" type="curve" smooth="yes"/>
      <point x="920" y="720"/>
      <point x="935" y="674"/>
      <point x="935" y="621" type="curve" smooth="yes"/>
      <point x="935" y="606"/>
      <point x="934" y="595"/>
      <point x="933" y="587" type="curve" smooth="yes"/>
      <point x="922" y="506"/>
      <point x="883" y="416"/>
      <point x="828" y="348" type="curve"/>
      <point x="865" y="306"/>
      <point x="883" y="259"/>
      <point x="883" y="207" type="curve" smooth="yes"/>
      <point x="883" y="201"/>
      <point x="883" y="191"/>
      <point x="882" y="177" type="curve"/>
      <point x="865" y="37"/>
      <point x="756" y="-68"/>
      <point x="621" y="-120" type="curve" smooth="yes"/>
      <point x="553" y="-147"/>
      <point x="488" y="-160"/>
      <point x="427" y="-160" type="curve" smooth="yes"/>
      <point x="338" y="-160"/>
      <point x="222" y="-142"/>
      <point x="136" y="-118" type="curve" smooth="yes"/>
      <point x="93" y="-107"/>
      <point x="63" y="-96"/>
      <point x="48" y="-86" type="curve"/>
      <point x="83" y="198" type="line"/>
    </contour>
    <contour>
      <point x="316" y="814"/>
      <point x="301" y="767"/>
      <point x="301" y="726" type="curve" smooth="yes"/>
      <point x="301" y="655"/>
      <point x="355" y="602"/>
      <point x="424" y="566" type="curve" smooth="yes"/>
      <point x="459" y="547"/>
      <point x="507" y="525"/>
      <point x="568" y="499" type="curve" smooth="yes"/>
      <point x="653" y="463"/>
      <point x="701" y="442"/>
      <point x="748" y="413" type="curve"/>
      <point x="768" y="451"/>
      <point x="780" y="485"/>
      <point x="783" y="515" type="curve" smooth="yes"/>
      <point x="784" y="526"/>
      <point x="785" y="533"/>
      <point x="785" y="538" type="curve" smooth="yes"/>
      <point x="785" y="615"/>
      <point x="730" y="673"/>
      <point x="659" y="713" type="curve" smooth="yes"/>
      <point x="623" y="733"/>
      <point x="574" y="757"/>
      <point x="511" y="785" type="curve" smooth="yes"/>
      <point x="436" y="818"/>
      <point x="382" y="845"/>
      <point x="347" y="866" type="curve"/>
    </contour>
  </outline>
</glyph>
<glyph name="dieresis" format="1">
  <advance width="695"/>
  <unicode hex="00A8"/>
  <note>
	dieresis
  </note>
  <outline>
    <contour>
      <point x="51" y="1337"/>
      <point x="76" y="1379"/>
      <point x="115" y="1404" type="curve" smooth="yes"/>
      <point x="134" y="1416"/>
      <point x="155" y="1422"/>
      <point x="176" y="1422" type="curve" smooth="yes"/>
      <point x="240" y="1422"/>
      <point x="283" y="1380"/>
      <point x="283" y="1325" type="curve" smooth="yes"/>
      <point x="283" y="1280"/>
      <point x="257" y="1235"/>
      <point x="217" y="1211" type="curve" smooth="yes"/>
      <point x="196" y="1198"/>
      <point x="174" y="1192"/>
      <point x="150" y="1192" type="curve" smooth="yes"/>
      <point x="97" y="1192"/>
      <point x="51" y="1237"/>
      <point x="51" y="1293" type="curve" smooth="yes"/>
    </contour>
    <contour>
      <point x="414" y="1335"/>
      <point x="438" y="1379"/>
      <point x="478" y="1404" type="curve" smooth="yes"/>
      <point x="497" y="1416"/>
      <point x="518" y="1422"/>
      <point x="539" y="1422" type="curve" smooth="yes"/>
      <point x="603" y="1422"/>
      <point x="645" y="1380"/>
      <point x="645" y="1325" type="curve" smooth="yes"/>
      <point x="645" y="1280"/>
      <point x="619" y="1235"/>
      <point x="579" y="1211" type="curve"/>
      <point x="559" y="1198"/>
      <point x="537" y="1192"/>
      <point x="513" y="1192" type="curve" smooth="yes"/>
      <point x="460" y="1192"/>
      <point x="414" y="1236"/>
      <point x="414" y="1291" type="curve" smooth="yes"/>
    </contour>
  </outline>
</glyph>
<glyph name="copyright" format="1">
  <advance width="1520"/>
  <unicode hex="00A9"/>
  <note>
	copyright
  </note>
  <outline>
    <contour>
      <point x="1038" y="1342"/>
      <point x="1249" y="1218"/>
      <point x="1366" y="1019" type="curve" smooth="yes"/>
      <point x="1424" y="919"/>
      <point x="1453" y="810"/>
      <point x="1453" y="693" type="curve" smooth="yes"/>
      <point x="1453" y="457"/>
      <point x="1328" y="247"/>
      <point x="1129" y="131" type="curve" smooth="yes"/>
      <point x="1029" y="73"/>
      <point x="920" y="44"/>
      <point x="802" y="44" type="curve" smooth="yes"/>
      <point x="567" y="44"/>
      <point x="357" y="168"/>
      <point x="240" y="367" type="curve" smooth="yes"/>
      <point x="181" y="466"/>
      <point x="152" y="575"/>
      <point x="152" y="693" type="curve" smooth="yes"/>
      <point x="152" y="928"/>
      <point x="278" y="1139"/>
      <point x="477" y="1255" type="curve" smooth="yes"/>
      <point x="576" y="1313"/>
      <point x="685" y="1342"/>
      <point x="802" y="1342" type="curve" smooth="yes"/>
    </contour>
    <contour>
      <point x="1003" y="136"/>
      <point x="1180" y="243"/>
      <point x="1277" y="414" type="curve" smooth="yes"/>
      <point x="1326" y="499"/>
      <point x="1350" y="592"/>
      <point x="1350" y="693" type="curve" smooth="yes"/>
      <point x="1350" y="896"/>
      <point x="1246" y="1075"/>
      <point x="1079" y="1175" type="curve" smooth="yes"/>
      <point x="995" y="1225"/>
      <point x="903" y="1250"/>
      <point x="802" y="1250" type="curve" smooth="yes"/>
      <point x="602" y="1250"/>
      <point x="425" y="1143"/>
      <point x="328" y="973" type="curve" smooth="yes"/>
      <point x="279" y="888"/>
      <point x="255" y="794"/>
      <point x="255" y="693" type="curve" smooth="yes"/>
      <point x="255" y="492"/>
      <point x="359" y="311"/>
      <point x="527" y="211" type="curve" smooth="yes"/>
      <point x="610" y="161"/>
      <point x="702" y="136"/>
      <point x="802" y="136" type="curve" smooth="yes"/>
    </contour>
    <contour>
      <point x="912" y="1072"/>
      <point x="1000" y="1059"/>
      <point x="1035" y="1040" type="curve"/>
      <point x="1035" y="863" type="line"/>
      <point x="970" y="863" type="line"/>
      <point x="924" y="966" type="line"/>
      <point x="899" y="988"/>
      <point x="857" y="999"/>
      <point x="799" y="999" type="curve" smooth="yes"/>
      <point x="727" y="999"/>
      <point x="663" y="961"/>
      <point x="627" y="881" type="curve" smooth="yes"/>
      <point x="609" y="841"/>
      <point x="600" y="792"/>
      <point x="600" y="735" type="curve" smooth="yes"/>
      <point x="600" y="587"/>
      <point x="650" y="485"/>
      <point x="721" y="438" type="curve" smooth="yes"/>
      <point x="756" y="414"/>
      <point x="793" y="402"/>
      <point x="830" y="402" type="curve" smooth="yes"/>
      <point x="905" y="402"/>
      <point x="971" y="425"/>
      <point x="1019" y="452" type="curve"/>
      <point x="1043" y="394" type="line"/>
      <point x="991" y="350"/>
      <point x="888" y="315"/>
      <point x="791" y="315" type="curve" smooth="yes"/>
      <point x="658" y="315"/>
      <point x="557" y="387"/>
      <point x="505" y="502" type="curve" smooth="yes"/>
      <point x="479" y="559"/>
      <point x="466" y="623"/>
      <point x="466" y="693" type="curve" smooth="yes"/>
      <point x="466" y="832"/>
      <point x="528" y="953"/>
      <point x="639" y="1021" type="curve" smooth="yes"/>
      <point x="694" y="1055"/>
      <point x="759" y="1072"/>
      <point x="833" y="1072" type="curve" smooth="yes"/>
    </contour>
  </outline>
</glyph>
<glyph name="ordfeminine" format="1">
  <advance width="734"/>
  <unicode hex="00AA"/>
  <note>
	ordfeminine
  </note>
  <outline>
    <contour>
      <point x="71" y="1041"/>
      <point x="155" y="1196"/>
      <point x="292" y="1288" type="curve" smooth="yes"/>
      <point x="360" y="1333"/>
      <point x="434" y="1356"/>
      <point x="514" y="1356" type="curve" smooth="yes"/>
      <point x="562" y="1356"/>
      <point x="621" y="1346"/>
      <point x="664" y="1331" type="curve"/>
      <point x="754" y="1364" type="line"/>
      <point x="649" y="767" type="line"/>
      <point x="648" y="752"/>
      <point x="649" y="740"/>
      <point x="651" y="733" type="curve"/>
      <point x="652" y="725"/>
      <point x="655" y="721"/>
      <point x="660" y="721" type="curve" smooth="yes"/>
      <point x="671" y="721"/>
      <point x="687" y="727"/>
      <point x="708" y="738" type="curve"/>
      <point x="728" y="704" type="line"/>
      <point x="721" y="695"/>
      <point x="684" y="668"/>
      <point x="639" y="652" type="curve" smooth="yes"/>
      <point x="616" y="643"/>
      <point x="595" y="639"/>
      <point x="574" y="639" type="curve" smooth="yes"/>
      <point x="530" y="639"/>
      <point x="497" y="673"/>
      <point x="497" y="722" type="curve" smooth="yes"/>
      <point x="497" y="730"/>
      <point x="498" y="738"/>
      <point x="500" y="746" type="curve"/>
      <point x="444" y="683"/>
      <point x="378" y="639"/>
      <point x="285" y="639" type="curve" smooth="yes"/>
      <point x="149" y="639"/>
      <point x="71" y="737"/>
      <point x="71" y="894" type="curve" smooth="yes"/>
    </contour>
    <contour>
      <point x="574" y="1221" type="line"/>
      <point x="553" y="1250"/>
      <point x="520" y="1268"/>
      <point x="493" y="1268" type="curve" smooth="yes"/>
      <point x="378" y="1268"/>
      <point x="299" y="1190"/>
      <point x="261" y="1079" type="curve" smooth="yes"/>
      <point x="242" y="1024"/>
      <point x="232" y="966"/>
      <point x="232" y="907" type="curve" smooth="yes"/>
      <point x="232" y="796"/>
      <point x="273" y="741"/>
      <point x="355" y="741" type="curve" smooth="yes"/>
      <point x="402" y="741"/>
      <point x="456" y="776"/>
      <point x="504" y="820" type="curve"/>
    </contour>
  </outline>
</glyph>
<glyph name="guillemotleft" format="1">
  <advance width="1604"/>
  <unicode hex="00AB"/>
  <note>
	guillemotleft
  </note>
  <outline>
    <contour>
      <point x="822" y="934" type="line"/>
      <point x="856" y="833" type="line"/>
      <point x="419" y="529" type="line"/>
      <point x="774" y="228" type="line"/>
      <point x="712" y="131" type="line"/>
      <point x="207" y="456" type="line"/>
      <point x="226" y="593" type="line"/>
    </contour>
    <contour>
      <point x="1402" y="934" type="line"/>
      <point x="1436" y="833" type="line"/>
      <point x="999" y="529" type="line"/>
      <point x="1354" y="228" type="line"/>
      <point x="1292" y="131" type="line"/>
      <point x="787" y="456" type="line"/>
      <point x="806" y="593" type="line"/>
    </contour>
  </outline>
</glyph>
<glyph name="logicalnot" format="1">
  <advance width="1178"/>
  <unicode hex="00AC"/>
  <note>
	logicalnot
  </note>
  <outline>
    <contour>
      <point x="1023" y="734" type="line"/>
      <point x="969" y="277" type="line"/>
      <point x="815" y="277" type="line"/>
      <point x="856" y="619" type="line"/>
      <point x="183" y="619" type="line"/>
      <point x="196" y="734" type="line"/>
    </contour>
  </outline>
</glyph>
<glyph name="uni00AD" format="1">
  <advance width="969"/>
  <unicode hex="00AD"/>
  <note>
	uni00AD
  </note>
  <outline>
    <contour>
      <point x="824" y="733" type="line"/>
      <point x="808" y="595" type="line"/>
      <point x="192" y="595" type="line"/>
      <point x="207" y="733" type="line"/>
    </contour>
  </outline>
</glyph>
<glyph name="registered" format="1">
  <advance width="1520"/>
  <unicode hex="00AE"/>
  <note>
	registered
  </note>
  <outline>
    <contour>
      <point x="1038" y="1342"/>
      <point x="1249" y="1218"/>
      <point x="1366" y="1019" type="curve" smooth="yes"/>
      <point x="1424" y="919"/>
      <point x="1453" y="810"/>
      <point x="1453" y="693" type="curve" smooth="yes"/>
      <point x="1453" y="457"/>
      <point x="1328" y="247"/>
      <point x="1129" y="131" type="curve" smooth="yes"/>
      <point x="1029" y="73"/>
      <point x="920" y="44"/>
      <point x="802" y="44" type="curve" smooth="yes"/>
      <point x="567" y="44"/>
      <point x="357" y="168"/>
      <point x="240" y="367" type="curve" smooth="yes"/>
      <point x="181" y="466"/>
      <point x="152" y="575"/>
      <point x="152" y="693" type="curve" smooth="yes"/>
      <point x="152" y="928"/>
      <point x="278" y="1139"/>
      <point x="477" y="1255" type="curve" smooth="yes"/>
      <point x="576" y="1313"/>
      <point x="685" y="1342"/>
      <point x="802" y="1342" type="curve" smooth="yes"/>
    </contour>
    <contour>
      <point x="1003" y="136"/>
      <point x="1180" y="243"/>
      <point x="1277" y="414" type="curve" smooth="yes"/>
      <point x="1326" y="499"/>
      <point x="1350" y="592"/>
      <point x="1350" y="693" type="curve" smooth="yes"/>
      <point x="1350" y="896"/>
      <point x="1246" y="1075"/>
      <point x="1079" y="1175" type="curve" smooth="yes"/>
      <point x="995" y="1225"/>
      <point x="903" y="1250"/>
      <point x="802" y="1250" type="curve" smooth="yes"/>
      <point x="602" y="1250"/>
      <point x="425" y="1143"/>
      <point x="328" y="973" type="curve" smooth="yes"/>
      <point x="279" y="888"/>
      <point x="255" y="794"/>
      <point x="255" y="693" type="curve" smooth="yes"/>
      <point x="255" y="492"/>
      <point x="359" y="311"/>
      <point x="527" y="211" type="curve" smooth="yes"/>
      <point x="610" y="161"/>
      <point x="702" y="136"/>
      <point x="802" y="136" type="curve" smooth="yes"/>
    </contour>
    <contour>
      <point x="563" y="403" type="line"/>
      <point x="563" y="975" type="line"/>
      <point x="492" y="994" type="line"/>
      <point x="492" y="1066" type="line"/>
      <point x="616" y="1066" type="line"/>
      <point x="647" y="1066" type="line" smooth="yes"/>
      <point x="656" y="1066"/>
      <point x="674" y="1066"/>
      <point x="701" y="1067" type="curve" smooth="yes"/>
      <point x="761" y="1070"/>
      <point x="801" y="1071"/>
      <point x="820" y="1071" type="curve" smooth="yes"/>
      <point x="992" y="1071"/>
      <point x="1089" y="993"/>
      <point x="1093" y="872" type="curve" smooth="yes"/>
      <point x="1093" y="764"/>
      <point x="1044" y="686"/>
      <point x="892" y="658" type="curve"/>
      <point x="949" y="626"/>
      <point x="979" y="579"/>
      <point x="1023" y="500" type="curve"/>
      <point x="1051" y="445"/>
      <point x="1069" y="417"/>
      <point x="1094" y="400" type="curve"/>
      <point x="1108" y="393"/>
      <point x="1127" y="390"/>
      <point x="1151" y="390" type="curve"/>
      <point x="1151" y="322" type="line"/>
      <point x="1011" y="322" type="line" smooth="yes"/>
      <point x="998" y="322"/>
      <point x="987" y="330"/>
      <point x="976" y="347" type="curve" smooth="yes"/>
      <point x="965" y="364"/>
      <point x="950" y="390"/>
      <point x="933" y="427" type="curve" smooth="yes"/>
      <point x="897" y="500"/>
      <point x="875" y="545"/>
      <point x="833" y="591" type="curve" smooth="yes"/>
      <point x="812" y="614"/>
      <point x="787" y="631"/>
      <point x="760" y="643" type="curve"/>
      <point x="686" y="643" type="line"/>
      <point x="686" y="403" type="line"/>
      <point x="773" y="386" type="line"/>
      <point x="773" y="322" type="line"/>
      <point x="492" y="322" type="line"/>
      <point x="492" y="386" type="line"/>
    </contour>
    <contour>
      <point x="866" y="713"/>
      <point x="913" y="741"/>
      <point x="938" y="784" type="curve" smooth="yes"/>
      <point x="950" y="805"/>
      <point x="956" y="829"/>
      <point x="956" y="854" type="curve" smooth="yes"/>
      <point x="956" y="947"/>
      <point x="897" y="992"/>
      <point x="797" y="992" type="curve" smooth="yes"/>
      <point x="771" y="992" type="line" smooth="yes"/>
      <point x="738" y="992"/>
      <point x="710" y="989"/>
      <point x="686" y="984" type="curve"/>
      <point x="686" y="720" type="line"/>
      <point x="709" y="715"/>
      <point x="751" y="713"/>
      <point x="810" y="713" type="curve" smooth="yes"/>
    </contour>
  </outline>
</glyph>
<glyph name="macron" format="1">
  <advance width="528"/>
  <unicode hex="00AF"/>
  <note>
	macron
  </note>
  <outline>
    <contour>
      <point x="490" y="1355" type="line"/>
      <point x="473" y="1225" type="line"/>
      <point x="34" y="1225" type="line"/>
      <point x="50" y="1355" type="line"/>
    </contour>
  </outline>
</glyph>
<glyph name="degree" format="1">
  <advance width="774"/>
  <unicode hex="00B0"/>
  <note>
	degree
  </note>
  <outline>
    <contour>
      <point x="175" y="1198"/>
      <point x="228" y="1290"/>
      <point x="317" y="1340" type="curve" smooth="yes"/>
      <point x="362" y="1365"/>
      <point x="411" y="1377"/>
      <point x="466" y="1377" type="curve" smooth="yes"/>
      <point x="570" y="1377"/>
      <point x="659" y="1325"/>
      <point x="708" y="1241" type="curve" smooth="yes"/>
      <point x="732" y="1199"/>
      <point x="744" y="1153"/>
      <point x="744" y="1104" type="curve" smooth="yes"/>
      <point x="744" y="997"/>
      <point x="688" y="906"/>
      <point x="599" y="857" type="curve" smooth="yes"/>
      <point x="554" y="832"/>
      <point x="505" y="820"/>
      <point x="450" y="820" type="curve" smooth="yes"/>
      <point x="346" y="820"/>
      <point x="259" y="873"/>
      <point x="211" y="957" type="curve" smooth="yes"/>
      <point x="187" y="999"/>
      <point x="175" y="1045"/>
      <point x="175" y="1094" type="curve" smooth="yes"/>
    </contour>
    <contour>
      <point x="622" y="1164"/>
      <point x="592" y="1219"/>
      <point x="544" y="1249" type="curve" smooth="yes"/>
      <point x="519" y="1264"/>
      <point x="492" y="1271"/>
      <point x="462" y="1271" type="curve" smooth="yes"/>
      <point x="399" y="1271"/>
      <point x="346" y="1239"/>
      <point x="318" y="1186" type="curve" smooth="yes"/>
      <point x="304" y="1159"/>
      <point x="297" y="1129"/>
      <point x="297" y="1096" type="curve" smooth="yes"/>
      <point x="297" y="1033"/>
      <point x="327" y="980"/>
      <point x="375" y="949" type="curve" smooth="yes"/>
      <point x="399" y="934"/>
      <point x="426" y="926"/>
      <point x="456" y="926" type="curve" smooth="yes"/>
      <point x="519" y="926"/>
      <point x="572" y="959"/>
      <point x="601" y="1013" type="curve" smooth="yes"/>
      <point x="615" y="1040"/>
      <point x="622" y="1070"/>
      <point x="622" y="1103" type="curve" smooth="yes"/>
    </contour>
  </outline>
</glyph>
<glyph name="plusminus" format="1">
  <advance width="1176"/>
  <unicode hex="00B1"/>
  <note>
	plusminus
  </note>
  <outline>
    <contour>
      <point x="528" y="601" type="line"/>
      <point x="407" y="595" type="line"/>
      <point x="214" y="595" type="line"/>
      <point x="230" y="733" type="line"/>
      <point x="423" y="733" type="line"/>
      <point x="543" y="723" type="line"/>
      <point x="544" y="743"/>
      <point x="546" y="771"/>
      <point x="550" y="808" type="curve" smooth="yes"/>
      <point x="555" y="865" type="line"/>
      <point x="577" y="1063" type="line"/>
      <point x="731" y="1063" type="line"/>
      <point x="709" y="865" type="line"/>
      <point x="684" y="724" type="line"/>
      <point x="783" y="733" type="line"/>
      <point x="1001" y="733" type="line"/>
      <point x="986" y="595" type="line"/>
      <point x="766" y="595" type="line"/>
      <point x="670" y="601" type="line"/>
      <point x="669" y="584"/>
      <point x="668" y="561"/>
      <point x="666" y="531" type="curve" smooth="yes"/>
      <point x="660" y="460" type="line"/>
      <point x="637" y="253" type="line"/>
      <point x="482" y="253" type="line"/>
      <point x="506" y="460" type="line"/>
    </contour>
    <contour>
      <point x="916" y="155" type="line"/>
      <point x="901" y="25" type="line"/>
      <point x="155" y="25" type="line"/>
      <point x="169" y="155" type="line"/>
    </contour>
  </outline>
</glyph>
<glyph name="uni00B2" format="1">
  <advance width="878"/>
  <unicode hex="00B2"/>
  <note>
	uni00B2
  </note>
  <outline>
    <contour>
      <point x="123" y="688" type="line"/>
      <point x="240" y="757"/>
      <point x="418" y="880"/>
      <point x="546" y="1026" type="curve" smooth="yes"/>
      <point x="609" y="1099"/>
      <point x="641" y="1167"/>
      <point x="641" y="1230" type="curve" smooth="yes"/>
      <point x="641" y="1305"/>
      <point x="592" y="1355"/>
      <point x="501" y="1355" type="curve" smooth="yes"/>
      <point x="412" y="1355"/>
      <point x="312" y="1311"/>
      <point x="265" y="1263" type="curve"/>
      <point x="213" y="1324" type="line"/>
      <point x="248" y="1367"/>
      <point x="316" y="1417"/>
      <point x="403" y="1448" type="curve" smooth="yes"/>
      <point x="446" y="1463"/>
      <point x="490" y="1471"/>
      <point x="535" y="1471" type="curve" smooth="yes"/>
      <point x="647" y="1471"/>
      <point x="729" y="1433"/>
      <point x="770" y="1372" type="curve" smooth="yes"/>
      <point x="790" y="1341"/>
      <point x="800" y="1307"/>
      <point x="800" y="1268" type="curve" smooth="yes"/>
      <point x="800" y="1156"/>
      <point x="687" y="1005"/>
      <point x="532" y="873" type="curve" smooth="yes"/>
      <point x="454" y="807"/>
      <point x="375" y="752"/>
      <point x="296" y="707" type="curve"/>
      <point x="676" y="732" type="line"/>
      <point x="740" y="847" type="line"/>
      <point x="826" y="829" type="line"/>
      <point x="772" y="605" type="line"/>
      <point x="147" y="605" type="line"/>
    </contour>
  </outline>
</glyph>
<glyph name="uni00B3" format="1">
  <advance width="878"/>
  <unicode hex="00B3"/>
  <note>
	uni00B3
  </note>
  <outline>
    <contour>
      <point x="178" y="730" type="line"/>
      <point x="253" y="703"/>
      <point x="321" y="689"/>
      <point x="380" y="689" type="curve" smooth="yes"/>
      <point x="563" y="689"/>
      <point x="654" y="743"/>
      <point x="669" y="862" type="curve"/>
      <point x="670" y="865"/>
      <point x="670" y="869"/>
      <point x="670" y="875" type="curve" smooth="yes"/>
      <point x="670" y="922"/>
      <point x="640" y="964"/>
      <point x="590" y="989" type="curve" smooth="yes"/>
      <point x="565" y="1001"/>
      <point x="537" y="1007"/>
      <point x="506" y="1007" type="curve" smooth="yes"/>
      <point x="497" y="1007"/>
      <point x="491" y="1007"/>
      <point x="486" y="1006" type="curve"/>
      <point x="379" y="966" type="line"/>
      <point x="365" y="1058" type="line"/>
      <point x="449" y="1079"/>
      <point x="538" y="1121"/>
      <point x="590" y="1170" type="curve" smooth="yes"/>
      <point x="616" y="1195"/>
      <point x="631" y="1222"/>
      <point x="635" y="1253" type="curve"/>
      <point x="636" y="1264"/>
      <point x="637" y="1272"/>
      <point x="637" y="1277" type="curve" smooth="yes"/>
      <point x="637" y="1334"/>
      <point x="605" y="1365"/>
      <point x="502" y="1365" type="curve" smooth="yes"/>
      <point x="427" y="1365"/>
      <point x="344" y="1330"/>
      <point x="285" y="1281" type="curve"/>
      <point x="243" y="1355" type="line"/>
      <point x="316" y="1420"/>
      <point x="433" y="1473"/>
      <point x="558" y="1473" type="curve" smooth="yes"/>
      <point x="657" y="1473"/>
      <point x="731" y="1443"/>
      <point x="771" y="1394" type="curve" smooth="yes"/>
      <point x="790" y="1369"/>
      <point x="800" y="1341"/>
      <point x="800" y="1309" type="curve" smooth="yes"/>
      <point x="800" y="1301"/>
      <point x="800" y="1295"/>
      <point x="799" y="1290" type="curve"/>
      <point x="787" y="1198"/>
      <point x="729" y="1117"/>
      <point x="574" y="1058" type="curve"/>
      <point x="590" y="1059"/>
      <point x="601" y="1060"/>
      <point x="608" y="1060" type="curve" smooth="yes"/>
      <point x="712" y="1060"/>
      <point x="779" y="1020"/>
      <point x="809" y="965" type="curve" smooth="yes"/>
      <point x="824" y="938"/>
      <point x="831" y="909"/>
      <point x="831" y="880" type="curve" smooth="yes"/>
      <point x="831" y="872"/>
      <point x="831" y="866"/>
      <point x="830" y="862" type="curve"/>
      <point x="818" y="761"/>
      <point x="743" y="675"/>
      <point x="618" y="628" type="curve" smooth="yes"/>
      <point x="555" y="604"/>
      <point x="483" y="592"/>
      <point x="402" y="592" type="curve" smooth="yes"/>
      <point x="327" y="592"/>
      <point x="237" y="608"/>
      <point x="168" y="641" type="curve"/>
    </contour>
  </outline>
</glyph>
<glyph name="acute" format="1">
  <advance width="480"/>
  <unicode hex="00B4"/>
  <note>
	acute
  </note>
  <outline>
    <contour>
      <point x="316" y="1499" type="line"/>
      <point x="439" y="1380" type="line"/>
      <point x="418" y="1340"/>
      <point x="319" y="1235"/>
      <point x="220" y="1154" type="curve" smooth="yes"/>
      <point x="171" y="1113"/>
      <point x="130" y="1087"/>
      <point x="99" y="1075" type="curve"/>
      <point x="43" y="1128" type="line"/>
    </contour>
  </outline>
</glyph>
<glyph name="uni00B5" format="1">
  <advance width="1173"/>
  <unicode hex="00B5"/>
  <note>
	uni00B5
  </note>
  <outline>
    <contour>
      <point x="101" y="-320" type="line"/>
      <point x="194" y="308" type="line" smooth="yes"/>
      <point x="201" y="357"/>
      <point x="210" y="417"/>
      <point x="222" y="488" type="curve" smooth="yes"/>
      <point x="246" y="637"/>
      <point x="257" y="710"/>
      <point x="265" y="810" type="curve" smooth="yes"/>
      <point x="266" y="832"/>
      <point x="266" y="848"/>
      <point x="263" y="859" type="curve" smooth="yes"/>
      <point x="260" y="870"/>
      <point x="254" y="875"/>
      <point x="246" y="875" type="curve" smooth="yes"/>
      <point x="233" y="875"/>
      <point x="213" y="867"/>
      <point x="187" y="852" type="curve"/>
      <point x="162" y="898" type="line"/>
      <point x="173" y="915"/>
      <point x="211" y="949"/>
      <point x="263" y="973" type="curve" smooth="yes"/>
      <point x="289" y="984"/>
      <point x="316" y="990"/>
      <point x="343" y="990" type="curve" smooth="yes"/>
      <point x="414" y="990"/>
      <point x="449" y="959"/>
      <point x="445" y="879" type="curve" smooth="yes"/>
      <point x="440" y="804"/>
      <point x="430" y="733"/>
      <point x="410" y="609" type="curve" smooth="yes"/>
      <point x="407" y="586" type="line"/>
      <point x="405" y="574"/>
      <point x="402" y="556"/>
      <point x="397" y="531" type="curve"/>
      <point x="378" y="414"/>
      <point x="369" y="350"/>
      <point x="369" y="273" type="curve" smooth="yes"/>
      <point x="369" y="149"/>
      <point x="408" y="102"/>
      <point x="485" y="102" type="curve" smooth="yes"/>
      <point x="564" y="102"/>
      <point x="659" y="170"/>
      <point x="727" y="239" type="curve"/>
      <point x="823" y="981" type="line"/>
      <point x="995" y="981" type="line"/>
      <point x="889" y="164" type="line" smooth="yes"/>
      <point x="888" y="157"/>
      <point x="888" y="148"/>
      <point x="888" y="137" type="curve" smooth="yes"/>
      <point x="888" y="112"/>
      <point x="895" y="99"/>
      <point x="908" y="99" type="curve" smooth="yes"/>
      <point x="921" y="99"/>
      <point x="941" y="107"/>
      <point x="967" y="122" type="curve"/>
      <point x="994" y="76" type="line"/>
      <point x="982" y="59"/>
      <point x="943" y="25"/>
      <point x="891" y="2" type="curve" smooth="yes"/>
      <point x="865" y="-9"/>
      <point x="839" y="-15"/>
      <point x="813" y="-15" type="curve" smooth="yes"/>
      <point x="744" y="-15"/>
      <point x="710" y="6"/>
      <point x="710" y="75" type="curve" smooth="yes"/>
      <point x="710" y="80"/>
      <point x="710" y="89"/>
      <point x="711" y="101" type="curve"/>
      <point x="636" y="32"/>
      <point x="545" y="-17"/>
      <point x="421" y="-17" type="curve" smooth="yes"/>
      <point x="382" y="-16"/>
      <point x="346" y="-6"/>
      <point x="313" y="11" type="curve"/>
      <point x="263" y="-320" type="line"/>
    </contour>
  </outline>
</glyph>
<glyph name="paragraph" format="1">
  <advance width="1173"/>
  <unicode hex="00B6"/>
  <note>
	paragraph
  </note>
  <outline>
    <contour>
      <point x="366" y="101" type="line"/>
      <point x="434" y="636" type="line"/>
      <point x="245" y="641"/>
      <point x="131" y="751"/>
      <point x="131" y="943" type="curve" smooth="yes"/>
      <point x="131" y="1183"/>
      <point x="283" y="1325"/>
      <point x="611" y="1325" type="curve" smooth="yes"/>
      <point x="652" y="1325"/>
      <point x="710" y="1322"/>
      <point x="783" y="1317" type="curve" smooth="yes"/>
      <point x="800" y="1316"/>
      <point x="883" y="1309"/>
      <point x="951" y="1309" type="curve" smooth="yes"/>
      <point x="1159" y="1309" type="line"/>
      <point x="1150" y="1220" type="line"/>
      <point x="1028" y="1192" type="line"/>
      <point x="891" y="100" type="line"/>
      <point x="1007" y="74" type="line"/>
      <point x="999" y="0" type="line"/>
      <point x="706" y="0" type="line"/>
      <point x="853" y="1190" type="line"/>
      <point x="675" y="1190" type="line"/>
      <point x="520" y="0" type="line"/>
      <point x="216" y="0" type="line"/>
      <point x="223" y="75" type="line"/>
    </contour>
  </outline>
</glyph>
<glyph name="periodcentered" format="1">
  <advance width="590"/>
  <unicode hex="00B7"/>
  <note>
	periodcentered
  </note>
  <outline>
    <contour>
      <point x="382" y="743"/>
      <point x="418" y="707"/>
      <point x="418" y="651" type="curve" smooth="yes"/>
      <point x="418" y="595"/>
      <point x="387" y="549"/>
      <point x="342" y="525" type="curve" smooth="yes"/>
      <point x="319" y="512"/>
      <point x="296" y="506"/>
      <point x="271" y="506" type="curve" smooth="yes"/>
      <point x="214" y="506"/>
      <point x="175" y="542"/>
      <point x="175" y="598" type="curve" smooth="yes"/>
      <point x="175" y="651"/>
      <point x="205" y="698"/>
      <point x="247" y="724" type="curve" smooth="yes"/>
      <point x="268" y="737"/>
      <point x="290" y="743"/>
      <point x="313" y="743" type="curve" smooth="yes"/>
    </contour>
  </outline>
</glyph>
<glyph name="cedilla" format="1">
  <advance width="411"/>
  <unicode hex="00B8"/>
  <note>
	cedilla
  </note>
  <outline>
    <contour>
      <point x="332" y="26" type="line"/>
      <point x="349" y="3"/>
      <point x="358" y="-44"/>
      <point x="358" y="-99" type="curve" smooth="yes"/>
      <point x="358" y="-231"/>
      <point x="312" y="-322"/>
      <point x="239" y="-366" type="curve" smooth="yes"/>
      <point x="202" y="-389"/>
      <point x="161" y="-400"/>
      <point x="114" y="-400" type="curve" smooth="yes"/>
      <point x="69" y="-400"/>
      <point x="21" y="-389"/>
      <point x="2" y="-376" type="curve"/>
      <point x="15" y="-246" type="line"/>
      <point x="30" y="-253"/>
      <point x="65" y="-258"/>
      <point x="94" y="-258" type="curve" smooth="yes"/>
      <point x="190" y="-258"/>
      <point x="250" y="-175"/>
      <point x="251" y="-44" type="curve" smooth="yes"/>
      <point x="251" y="-18"/>
      <point x="248" y="5"/>
      <point x="243" y="26" type="curve"/>
      <point x="286" y="29" type="line"/>
    </contour>
  </outline>
</glyph>
<glyph name="uni00B9" format="1">
  <advance width="878"/>
  <unicode hex="00B9"/>
  <note>
	uni00B9
  </note>
  <outline>
    <contour>
      <point x="429" y="710" type="line"/>
      <point x="501" y="1287" type="line"/>
      <point x="438" y="1266"/>
      <point x="370" y="1256"/>
      <point x="265" y="1244" type="curve"/>
      <point x="256" y="1332" type="line"/>
      <point x="403" y="1372"/>
      <point x="509" y="1406"/>
      <point x="601" y="1471" type="curve"/>
      <point x="604" y="1471" type="line"/>
      <point x="671" y="1457" type="line"/>
      <point x="580" y="710" type="line"/>
      <point x="783" y="689" type="line"/>
      <point x="772" y="605" type="line"/>
      <point x="207" y="605" type="line"/>
      <point x="218" y="689" type="line"/>
    </contour>
  </outline>
</glyph>
<glyph name="ordmasculine" format="1">
  <advance width="734"/>
  <unicode hex="00BA"/>
  <note>
	ordmasculine
  </note>
  <outline>
    <contour>
      <point x="78" y="1109"/>
      <point x="167" y="1245"/>
      <point x="288" y="1315" type="curve" smooth="yes"/>
      <point x="349" y="1350"/>
      <point x="410" y="1367"/>
      <point x="471" y="1367" type="curve" smooth="yes"/>
      <point x="592" y="1367"/>
      <point x="678" y="1312"/>
      <point x="722" y="1221" type="curve" smooth="yes"/>
      <point x="744" y="1175"/>
      <point x="755" y="1122"/>
      <point x="755" y="1061" type="curve" smooth="yes"/>
      <point x="755" y="886"/>
      <point x="672" y="751"/>
      <point x="552" y="682" type="curve" smooth="yes"/>
      <point x="491" y="647"/>
      <point x="429" y="630"/>
      <point x="365" y="630" type="curve" smooth="yes"/>
      <point x="252" y="630"/>
      <point x="162" y="681"/>
      <point x="114" y="773" type="curve" smooth="yes"/>
      <point x="90" y="818"/>
      <point x="78" y="872"/>
      <point x="78" y="933" type="curve" smooth="yes"/>
    </contour>
    <contour>
      <point x="584" y="1138"/>
      <point x="563" y="1212"/>
      <point x="524" y="1252" type="curve" smooth="yes"/>
      <point x="504" y="1272"/>
      <point x="481" y="1282"/>
      <point x="454" y="1282" type="curve" smooth="yes"/>
      <point x="354" y="1282"/>
      <point x="293" y="1203"/>
      <point x="267" y="1103" type="curve" smooth="yes"/>
      <point x="254" y="1052"/>
      <point x="247" y="1001"/>
      <point x="247" y="949" type="curve" smooth="yes"/>
      <point x="247" y="860"/>
      <point x="271" y="786"/>
      <point x="308" y="749" type="curve" smooth="yes"/>
      <point x="327" y="730"/>
      <point x="348" y="721"/>
      <point x="371" y="721" type="curve" smooth="yes"/>
      <point x="526" y="721"/>
      <point x="584" y="866"/>
      <point x="584" y="1046" type="curve" smooth="yes"/>
    </contour>
  </outline>
</glyph>
<glyph name="guillemotright" format="1">
  <advance width="1604"/>
  <unicode hex="00BB"/>
  <note>
	guillemotright
  </note>
  <outline>
    <contour>
      <point x="142" y="131" type="line"/>
      <point x="108" y="231" type="line"/>
      <point x="545" y="536" type="line"/>
      <point x="190" y="837" type="line"/>
      <point x="252" y="934" type="line"/>
      <point x="757" y="609" type="line"/>
      <point x="738" y="471" type="line"/>
    </contour>
    <contour>
      <point x="723" y="131" type="line"/>
      <point x="690" y="231" type="line"/>
      <point x="1127" y="536" type="line"/>
      <point x="771" y="837" type="line"/>
      <point x="833" y="934" type="line"/>
      <point x="1338" y="609" type="line"/>
      <point x="1319" y="471" type="line"/>
    </contour>
  </outline>
</glyph>
<glyph name="onequarter" format="1">
  <advance width="2155"/>
  <unicode hex="00BC"/>
  <note>
	onequarter
  </note>
  <outline>
    <contour>
      <point x="404" y="560" type="line"/>
      <point x="476" y="1137" type="line"/>
      <point x="413" y="1116"/>
      <point x="345" y="1106"/>
      <point x="240" y="1094" type="curve"/>
      <point x="231" y="1182" type="line"/>
      <point x="378" y="1222"/>
      <point x="484" y="1256"/>
      <point x="576" y="1321" type="curve"/>
      <point x="579" y="1321" type="line"/>
      <point x="646" y="1307" type="line"/>
      <point x="555" y="560" type="line"/>
      <point x="758" y="539" type="line"/>
      <point x="747" y="455" type="line"/>
      <point x="182" y="455" type="line"/>
      <point x="193" y="539" type="line"/>
    </contour>
    <contour>
      <point x="1680" y="892" type="line"/>
      <point x="1733" y="892" type="line"/>
      <point x="1816" y="820" type="line"/>
      <point x="1408" y="309" type="line"/>
      <point x="1354" y="239" type="line"/>
      <point x="1676" y="262" type="line"/>
      <point x="1701" y="464" type="line"/>
      <point x="1850" y="480" type="line"/>
      <point x="1824" y="273" type="line"/>
      <point x="1971" y="284" type="line"/>
      <point x="1957" y="156" type="line"/>
      <point x="1809" y="156" type="line"/>
      <point x="1789" y="-13" type="line"/>
      <point x="1642" y="-13" type="line"/>
      <point x="1662" y="156" type="line"/>
      <point x="1229" y="156" type="line"/>
      <point x="1196" y="230" type="line"/>
    </contour>
    <contour>
      <point x="1411" y="1316" type="line"/>
      <point x="826" y="0" type="line"/>
      <point x="688" y="0" type="line"/>
      <point x="1274" y="1316" type="line"/>
    </contour>
  </outline>
</glyph>
<glyph name="onehalf" format="1">
  <advance width="2155"/>
  <unicode hex="00BD"/>
  <note>
	onehalf
  </note>
  <outline>
    <contour>
      <point x="404" y="560" type="line"/>
      <point x="476" y="1137" type="line"/>
      <point x="413" y="1116"/>
      <point x="345" y="1106"/>
      <point x="240" y="1094" type="curve"/>
      <point x="231" y="1182" type="line"/>
      <point x="378" y="1222"/>
      <point x="484" y="1256"/>
      <point x="576" y="1321" type="curve"/>
      <point x="579" y="1321" type="line"/>
      <point x="646" y="1307" type="line"/>
      <point x="555" y="560" type="line"/>
      <point x="758" y="539" type="line"/>
      <point x="747" y="455" type="line"/>
      <point x="182" y="455" type="line"/>
      <point x="193" y="539" type="line"/>
    </contour>
    <contour>
      <point x="1412" y="1316" type="line"/>
      <point x="827" y="0" type="line"/>
      <point x="689" y="0" type="line"/>
      <point x="1275" y="1316" type="line"/>
    </contour>
    <contour>
      <point x="1244" y="83" type="line"/>
      <point x="1361" y="152"/>
      <point x="1539" y="275"/>
      <point x="1667" y="421" type="curve" smooth="yes"/>
      <point x="1730" y="494"/>
      <point x="1762" y="562"/>
      <point x="1762" y="625" type="curve" smooth="yes"/>
      <point x="1762" y="700"/>
      <point x="1713" y="750"/>
      <point x="1622" y="750" type="curve" smooth="yes"/>
      <point x="1533" y="750"/>
      <point x="1433" y="706"/>
      <point x="1386" y="658" type="curve"/>
      <point x="1334" y="719" type="line"/>
      <point x="1369" y="762"/>
      <point x="1437" y="812"/>
      <point x="1524" y="843" type="curve" smooth="yes"/>
      <point x="1567" y="858"/>
      <point x="1611" y="866"/>
      <point x="1656" y="866" type="curve" smooth="yes"/>
      <point x="1768" y="866"/>
      <point x="1850" y="828"/>
      <point x="1891" y="767" type="curve" smooth="yes"/>
      <point x="1911" y="736"/>
      <point x="1921" y="702"/>
      <point x="1921" y="663" type="curve" smooth="yes"/>
      <point x="1921" y="551"/>
      <point x="1808" y="400"/>
      <point x="1653" y="268" type="curve" smooth="yes"/>
      <point x="1575" y="202"/>
      <point x="1496" y="147"/>
      <point x="1417" y="102" type="curve"/>
      <point x="1797" y="127" type="line"/>
      <point x="1861" y="242" type="line"/>
      <point x="1947" y="224" type="line"/>
      <point x="1893" y="0" type="line"/>
      <point x="1268" y="0" type="line"/>
    </contour>
  </outline>
</glyph>
<glyph name="threequarters" format="1">
  <advance width="2155"/>
  <unicode hex="00BE"/>
  <note>
	threequarters
  </note>
  <outline>
    <contour>
      <point x="155" y="580" type="line"/>
      <point x="230" y="553"/>
      <point x="298" y="539"/>
      <point x="357" y="539" type="curve" smooth="yes"/>
      <point x="540" y="539"/>
      <point x="631" y="593"/>
      <point x="646" y="712" type="curve"/>
      <point x="647" y="715"/>
      <point x="647" y="719"/>
      <point x="647" y="725" type="curve" smooth="yes"/>
      <point x="647" y="772"/>
      <point x="617" y="814"/>
      <point x="567" y="839" type="curve" smooth="yes"/>
      <point x="542" y="851"/>
      <point x="514" y="857"/>
      <point x="483" y="857" type="curve" smooth="yes"/>
      <point x="474" y="857"/>
      <point x="468" y="857"/>
      <point x="463" y="856" type="curve"/>
      <point x="356" y="816" type="line"/>
      <point x="342" y="908" type="line"/>
      <point x="426" y="929"/>
      <point x="515" y="971"/>
      <point x="567" y="1020" type="curve" smooth="yes"/>
      <point x="593" y="1045"/>
      <point x="608" y="1072"/>
      <point x="612" y="1103" type="curve"/>
      <point x="613" y="1114"/>
      <point x="614" y="1122"/>
      <point x="614" y="1127" type="curve" smooth="yes"/>
      <point x="614" y="1184"/>
      <point x="582" y="1215"/>
      <point x="479" y="1215" type="curve" smooth="yes"/>
      <point x="404" y="1215"/>
      <point x="321" y="1180"/>
      <point x="262" y="1131" type="curve"/>
      <point x="220" y="1205" type="line"/>
      <point x="293" y="1270"/>
      <point x="410" y="1323"/>
      <point x="535" y="1323" type="curve" smooth="yes"/>
      <point x="634" y="1323"/>
      <point x="708" y="1293"/>
      <point x="748" y="1244" type="curve" smooth="yes"/>
      <point x="767" y="1219"/>
      <point x="777" y="1191"/>
      <point x="777" y="1159" type="curve" smooth="yes"/>
      <point x="777" y="1151"/>
      <point x="777" y="1145"/>
      <point x="776" y="1140" type="curve"/>
      <point x="764" y="1048"/>
      <point x="706" y="967"/>
      <point x="551" y="908" type="curve"/>
      <point x="567" y="909"/>
      <point x="578" y="910"/>
      <point x="585" y="910" type="curve" smooth="yes"/>
      <point x="689" y="910"/>
      <point x="756" y="870"/>
      <point x="786" y="815" type="curve" smooth="yes"/>
      <point x="801" y="788"/>
      <point x="808" y="759"/>
      <point x="808" y="730" type="curve" smooth="yes"/>
      <point x="808" y="722"/>
      <point x="808" y="716"/>
      <point x="807" y="712" type="curve"/>
      <point x="795" y="611"/>
      <point x="720" y="525"/>
      <point x="595" y="478" type="curve" smooth="yes"/>
      <point x="532" y="454"/>
      <point x="460" y="442"/>
      <point x="379" y="442" type="curve" smooth="yes"/>
      <point x="304" y="442"/>
      <point x="214" y="458"/>
      <point x="145" y="491" type="curve"/>
    </contour>
    <contour>
      <point x="1680" y="892" type="line"/>
      <point x="1733" y="892" type="line"/>
      <point x="1816" y="820" type="line"/>
      <point x="1408" y="309" type="line"/>
      <point x="1354" y="239" type="line"/>
      <point x="1676" y="262" type="line"/>
      <point x="1701" y="464" type="line"/>
      <point x="1850" y="480" type="line"/>
      <point x="1824" y="273" type="line"/>
      <point x="1971" y="284" type="line"/>
      <point x="1957" y="156" type="line"/>
      <point x="1809" y="156" type="line"/>
      <point x="1789" y="-13" type="line"/>
      <point x="1642" y="-13" type="line"/>
      <point x="1662" y="156" type="line"/>
      <point x="1229" y="156" type="line"/>
      <point x="1196" y="230" type="line"/>
    </contour>
    <contour>
      <point x="1412" y="1316" type="line"/>
      <point x="827" y="0" type="line"/>
      <point x="689" y="0" type="line"/>
      <point x="1275" y="1316" type="line"/>
    </contour>
  </outline>
</glyph>
<glyph name="questiondown" format="1">
  <advance width="883"/>
  <unicode hex="00BF"/>
  <note>
	questiondown
  </note>
  <outline>
    <contour>
      <point x="635" y="328"/>
      <point x="275" y="304"/>
      <point x="220" y="40" type="curve" smooth="yes"/>
      <point x="190" y="-101"/>
      <point x="259" y="-192"/>
      <point x="438" y="-192" type="curve" smooth="yes"/>
      <point x="517" y="-192"/>
      <point x="615" y="-169"/>
      <point x="696" y="-121" type="curve"/>
      <point x="707" y="-195" type="line"/>
      <point x="639" y="-245"/>
      <point x="505" y="-316"/>
      <point x="355" y="-316" type="curve" smooth="yes"/>
      <point x="100" y="-316"/>
      <point x="-18" y="-195"/>
      <point x="27" y="18" type="curve" smooth="yes"/>
      <point x="93" y="333"/>
      <point x="551" y="393"/>
      <point x="611" y="676" type="curve" smooth="yes"/>
      <point x="617" y="710"/>
      <point x="617" y="741"/>
      <point x="620" y="779" type="curve"/>
      <point x="713" y="779" type="line"/>
      <point x="714" y="736"/>
      <point x="712" y="698"/>
      <point x="705" y="660" type="curve" smooth="yes"/>
    </contour>
    <contour>
      <point x="622" y="1002"/>
      <point x="587" y="1038"/>
      <point x="587" y="1094" type="curve" smooth="yes"/>
      <point x="587" y="1150"/>
      <point x="618" y="1196"/>
      <point x="662" y="1220" type="curve" smooth="yes"/>
      <point x="685" y="1233"/>
      <point x="708" y="1239"/>
      <point x="733" y="1239" type="curve" smooth="yes"/>
      <point x="790" y="1239"/>
      <point x="829" y="1203"/>
      <point x="829" y="1147" type="curve" smooth="yes"/>
      <point x="829" y="1094"/>
      <point x="800" y="1047"/>
      <point x="758" y="1021" type="curve" smooth="yes"/>
      <point x="737" y="1008"/>
      <point x="715" y="1002"/>
      <point x="691" y="1002" type="curve" smooth="yes"/>
    </contour>
  </outline>
</glyph>
<glyph name="Agrave" format="1">
  <advance width="1154"/>
  <unicode hex="00C0"/>
  <note>
	Agrave
  </note>
  <outline>
    <contour>
      <point x="791" y="1309" type="line"/>
      <point x="1009" y="102" type="line"/>
      <point x="1143" y="75" type="line"/>
      <point x="1137" y="0" type="line"/>
      <point x="694" y="0" type="line"/>
      <point x="698" y="75" type="line"/>
      <point x="832" y="100" type="line"/>
      <point x="789" y="374" type="line"/>
      <point x="302" y="374" type="line"/>
      <point x="173" y="101" type="line"/>
      <point x="310" y="75" type="line"/>
      <point x="305" y="0" type="line"/>
      <point x="-103" y="0" type="line"/>
      <point x="-95" y="75" type="line"/>
      <point x="7" y="100" type="line"/>
      <point x="615" y="1309" type="line"/>
    </contour>
    <contour>
      <point x="773" y="479" type="line"/>
      <point x="684" y="1060" type="line"/>
      <point x="674" y="1164" type="line"/>
      <point x="351" y="479" type="line"/>
    </contour>
    <contour>
      <point x="539" y="1721" type="line"/>
      <point x="765" y="1427" type="line"/>
      <point x="707" y="1385" type="line"/>
      <point x="648" y="1408"/>
      <point x="560" y="1462"/>
      <point x="492" y="1526" type="curve" smooth="yes"/>
      <point x="458" y="1558"/>
      <point x="435" y="1588"/>
      <point x="423" y="1617" type="curve"/>
    </contour>
  </outline>
</glyph>
<glyph name="Aacute" format="1">
  <advance width="1154"/>
  <unicode hex="00C1"/>
  <note>
	Aacute
  </note>
  <outline>
    <contour>
      <point x="791" y="1309" type="line"/>
      <point x="1009" y="102" type="line"/>
      <point x="1143" y="75" type="line"/>
      <point x="1137" y="0" type="line"/>
      <point x="694" y="0" type="line"/>
      <point x="698" y="75" type="line"/>
      <point x="832" y="100" type="line"/>
      <point x="789" y="374" type="line"/>
      <point x="302" y="374" type="line"/>
      <point x="173" y="101" type="line"/>
      <point x="310" y="75" type="line"/>
      <point x="305" y="0" type="line"/>
      <point x="-103" y="0" type="line"/>
      <point x="-95" y="75" type="line"/>
      <point x="7" y="100" type="line"/>
      <point x="615" y="1309" type="line"/>
    </contour>
    <contour>
      <point x="773" y="479" type="line"/>
      <point x="684" y="1060" type="line"/>
      <point x="674" y="1164" type="line"/>
      <point x="351" y="479" type="line"/>
    </contour>
    <contour>
      <point x="880" y="1721" type="line"/>
      <point x="989" y="1617" type="line"/>
      <point x="961" y="1557"/>
      <point x="884" y="1490"/>
      <point x="804" y="1440" type="curve" smooth="yes"/>
      <point x="763" y="1415"/>
      <point x="728" y="1396"/>
      <point x="699" y="1385" type="curve"/>
      <point x="643" y="1427" type="line"/>
    </contour>
  </outline>
</glyph>
<glyph name="Atilde" format="1">
  <advance width="1154"/>
  <unicode hex="00C3"/>
  <note>
	Atilde
  </note>
  <outline>
    <contour>
      <point x="791" y="1309" type="line"/>
      <point x="1009" y="102" type="line"/>
      <point x="1143" y="75" type="line"/>
      <point x="1137" y="0" type="line"/>
      <point x="694" y="0" type="line"/>
      <point x="698" y="75" type="line"/>
      <point x="832" y="100" type="line"/>
      <point x="789" y="374" type="line"/>
      <point x="302" y="374" type="line"/>
      <point x="173" y="101" type="line"/>
      <point x="310" y="75" type="line"/>
      <point x="305" y="0" type="line"/>
      <point x="-103" y="0" type="line"/>
      <point x="-95" y="75" type="line"/>
      <point x="7" y="100" type="line"/>
      <point x="615" y="1309" type="line"/>
    </contour>
    <contour>
      <point x="773" y="479" type="line"/>
      <point x="684" y="1060" type="line"/>
      <point x="674" y="1164" type="line"/>
      <point x="351" y="479" type="line"/>
    </contour>
    <contour>
      <point x="421" y="1549" type="line"/>
      <point x="452" y="1630"/>
      <point x="522" y="1695"/>
      <point x="614" y="1695" type="curve" smooth="yes"/>
      <point x="670" y="1695"/>
      <point x="706" y="1672"/>
      <point x="759" y="1628" type="curve"/>
      <point x="807" y="1591"/>
      <point x="831" y="1574"/>
      <point x="868" y="1574" type="curve" smooth="yes"/>
      <point x="911" y="1574"/>
      <point x="942" y="1592"/>
      <point x="960" y="1610" type="curve" smooth="yes"/>
      <point x="969" y="1619"/>
      <point x="980" y="1632"/>
      <point x="994" y="1649" type="curve"/>
      <point x="1044" y="1578" type="line"/>
      <point x="1016" y="1501"/>
      <point x="949" y="1432"/>
      <point x="852" y="1432" type="curve" smooth="yes"/>
      <point x="793" y="1432"/>
      <point x="758" y="1454"/>
      <point x="706" y="1498" type="curve" smooth="yes"/>
      <point x="661" y="1535"/>
      <point x="635" y="1553"/>
      <point x="595" y="1553" type="curve" smooth="yes"/>
      <point x="544" y="1553"/>
      <point x="507" y="1526"/>
      <point x="471" y="1478" type="curve"/>
    </contour>
  </outline>
</glyph>
<glyph name="Aring" format="1">
  <advance width="1154"/>
  <unicode hex="00C5"/>
  <note>
	Aring
  </note>
  <outline>
    <contour>
      <point x="610" y="1299" type="line"/>
      <point x="514" y="1324"/>
      <point x="461" y="1394"/>
      <point x="461" y="1487" type="curve" smooth="yes"/>
      <point x="461" y="1580"/>
      <point x="528" y="1653"/>
      <point x="621" y="1692" type="curve" smooth="yes"/>
      <point x="668" y="1711"/>
      <point x="715" y="1721"/>
      <point x="763" y="1721" type="curve" smooth="yes"/>
      <point x="860" y="1721"/>
      <point x="933" y="1686"/>
      <point x="972" y="1629" type="curve" smooth="yes"/>
      <point x="991" y="1600"/>
      <point x="1001" y="1568"/>
      <point x="1001" y="1532" type="curve" smooth="yes"/>
      <point x="1001" y="1409"/>
      <point x="913" y="1326"/>
      <point x="793" y="1298" type="curve"/>
      <point x="1009" y="102" type="line"/>
      <point x="1143" y="75" type="line"/>
      <point x="1137" y="0" type="line"/>
      <point x="694" y="0" type="line"/>
      <point x="698" y="75" type="line"/>
      <point x="832" y="100" type="line"/>
      <point x="789" y="374" type="line"/>
      <point x="302" y="374" type="line"/>
      <point x="173" y="101" type="line"/>
      <point x="310" y="75" type="line"/>
      <point x="305" y="0" type="line"/>
      <point x="-103" y="0" type="line"/>
      <point x="-95" y="75" type="line"/>
      <point x="7" y="100" type="line"/>
    </contour>
    <contour>
      <point x="878" y="1568"/>
      <point x="855" y="1607"/>
      <point x="816" y="1628" type="curve" smooth="yes"/>
      <point x="796" y="1638"/>
      <point x="774" y="1643"/>
      <point x="749" y="1643" type="curve" smooth="yes"/>
      <point x="692" y="1643"/>
      <point x="639" y="1618"/>
      <point x="608" y="1574" type="curve"/>
      <point x="593" y="1551"/>
      <point x="585" y="1525"/>
      <point x="585" y="1496" type="curve" smooth="yes"/>
      <point x="585" y="1420"/>
      <point x="635" y="1363"/>
      <point x="716" y="1363" type="curve" smooth="yes"/>
      <point x="809" y="1363"/>
      <point x="878" y="1417"/>
      <point x="878" y="1524" type="curve" smooth="yes"/>
    </contour>
    <contour>
      <point x="773" y="479" type="line"/>
      <point x="684" y="1060" type="line"/>
      <point x="674" y="1164" type="line"/>
      <point x="351" y="479" type="line"/>
    </contour>
  </outline>
</glyph>
<glyph name="Egrave" format="1">
  <advance width="1059"/>
  <unicode hex="00C8"/>
  <note>
	Egrave
  </note>
  <outline>
    <contour>
      <point x="482" y="1721" type="line"/>
      <point x="708" y="1427" type="line"/>
      <point x="650" y="1385" type="line"/>
      <point x="591" y="1408"/>
      <point x="503" y="1462"/>
      <point x="435" y="1526" type="curve" smooth="yes"/>
      <point x="401" y="1558"/>
      <point x="378" y="1588"/>
      <point x="366" y="1617" type="curve"/>
    </contour>
    <contour>
      <point x="159" y="100" type="line"/>
      <point x="297" y="1202" type="line"/>
      <point x="182" y="1222" type="line"/>
      <point x="193" y="1309" type="line"/>
      <point x="996" y="1309" type="line"/>
      <point x="989" y="1041" type="line"/>
      <point x="894" y="1041" type="line"/>
      <point x="853" y="1203" type="line"/>
      <point x="477" y="1216" type="line"/>
      <point x="415" y="735" type="line"/>
      <point x="801" y="742" type="line"/>
      <point x="789" y="605" type="line"/>
      <point x="405" y="620" type="line"/>
      <point x="334" y="101" type="line"/>
      <point x="804" y="121" type="line"/>
      <point x="906" y="303" type="line"/>
      <point x="1000" y="277" type="line"/>
      <point x="924" y="0" type="line"/>
      <point x="22" y="0" type="line"/>
      <point x="31" y="75" type="line"/>
    </contour>
  </outline>
</glyph>
<glyph name="Eacute" format="1">
  <advance width="1059"/>
  <unicode hex="00C9"/>
  <note>
	Eacute
  </note>
  <outline>
    <contour>
      <point x="824" y="1721" type="line"/>
      <point x="933" y="1617" type="line"/>
      <point x="905" y="1557"/>
      <point x="828" y="1490"/>
      <point x="748" y="1440" type="curve" smooth="yes"/>
      <point x="707" y="1415"/>
      <point x="672" y="1396"/>
      <point x="643" y="1385" type="curve"/>
      <point x="587" y="1427" type="line"/>
    </contour>
    <contour>
      <point x="159" y="100" type="line"/>
      <point x="297" y="1202" type="line"/>
      <point x="182" y="1222" type="line"/>
      <point x="193" y="1309" type="line"/>
      <point x="996" y="1309" type="line"/>
      <point x="989" y="1041" type="line"/>
      <point x="894" y="1041" type="line"/>
      <point x="853" y="1203" type="line"/>
      <point x="477" y="1216" type="line"/>
      <point x="415" y="735" type="line"/>
      <point x="801" y="742" type="line"/>
      <point x="789" y="605" type="line"/>
      <point x="405" y="620" type="line"/>
      <point x="334" y="101" type="line"/>
      <point x="804" y="121" type="line"/>
      <point x="906" y="303" type="line"/>
      <point x="1000" y="277" type="line"/>
      <point x="924" y="0" type="line"/>
      <point x="22" y="0" type="line"/>
      <point x="31" y="75" type="line"/>
    </contour>
  </outline>
</glyph>
<glyph name="Ecircumflex" format="1">
  <advance width="1059"/>
  <unicode hex="00CA"/>
  <note>
	Ecircumflex
  </note>
  <outline>
    <contour>
      <point x="159" y="100" type="line"/>
      <point x="297" y="1202" type="line"/>
      <point x="182" y="1222" type="line"/>
      <point x="193" y="1309" type="line"/>
      <point x="996" y="1309" type="line"/>
      <point x="989" y="1041" type="line"/>
      <point x="894" y="1041" type="line"/>
      <point x="853" y="1203" type="line"/>
      <point x="477" y="1216" type="line"/>
      <point x="415" y="735" type="line"/>
      <point x="801" y="742" type="line"/>
      <point x="789" y="605" type="line"/>
      <point x="405" y="620" type="line"/>
      <point x="334" y="101" type="line"/>
      <point x="804" y="121" type="line"/>
      <point x="906" y="303" type="line"/>
      <point x="1000" y="277" type="line"/>
      <point x="924" y="0" type="line"/>
      <point x="22" y="0" type="line"/>
      <point x="31" y="75" type="line"/>
    </contour>
    <contour>
      <point x="637" y="1721" type="line"/>
      <point x="789" y="1721" type="line"/>
      <point x="972" y="1447" type="line"/>
      <point x="910" y="1396" type="line"/>
      <point x="705" y="1591" type="line"/>
      <point x="426" y="1397" type="line"/>
      <point x="372" y="1447" type="line"/>
    </contour>
  </outline>
</glyph>
<glyph name="Edieresis" format="1">
  <advance width="1059"/>
  <unicode hex="00CB"/>
  <note>
	Edieresis
  </note>
  <outline>
    <contour>
      <point x="394" y="1627"/>
      <point x="422" y="1669"/>
      <point x="460" y="1693" type="curve" smooth="yes"/>
      <point x="479" y="1705"/>
      <point x="498" y="1711"/>
      <point x="518" y="1711" type="curve" smooth="yes"/>
      <point x="581" y="1711"/>
      <point x="624" y="1669"/>
      <point x="624" y="1614" type="curve" smooth="yes"/>
      <point x="624" y="1569"/>
      <point x="597" y="1526"/>
      <point x="557" y="1502" type="curve" smooth="yes"/>
      <point x="536" y="1489"/>
      <point x="515" y="1483"/>
      <point x="492" y="1483" type="curve" smooth="yes"/>
      <point x="439" y="1483"/>
      <point x="394" y="1529"/>
      <point x="394" y="1582" type="curve" smooth="yes"/>
    </contour>
    <contour>
      <point x="754" y="1628"/>
      <point x="783" y="1670"/>
      <point x="822" y="1694" type="curve" smooth="yes"/>
      <point x="841" y="1705"/>
      <point x="861" y="1711"/>
      <point x="880" y="1711" type="curve" smooth="yes"/>
      <point x="943" y="1711"/>
      <point x="985" y="1670"/>
      <point x="985" y="1615" type="curve" smooth="yes"/>
      <point x="985" y="1570"/>
      <point x="959" y="1526"/>
      <point x="919" y="1502" type="curve" smooth="yes"/>
      <point x="898" y="1489"/>
      <point x="876" y="1483"/>
      <point x="853" y="1483" type="curve" smooth="yes"/>
      <point x="800" y="1483"/>
      <point x="754" y="1528"/>
      <point x="754" y="1584" type="curve" smooth="yes"/>
    </contour>
    <contour>
      <point x="159" y="100" type="line"/>
      <point x="297" y="1202" type="line"/>
      <point x="182" y="1222" type="line"/>
      <point x="193" y="1309" type="line"/>
      <point x="996" y="1309" type="line"/>
      <point x="989" y="1041" type="line"/>
      <point x="894" y="1041" type="line"/>
      <point x="853" y="1203" type="line"/>
      <point x="477" y="1216" type="line"/>
      <point x="415" y="735" type="line"/>
      <point x="801" y="742" type="line"/>
      <point x="789" y="605" type="line"/>
      <point x="405" y="620" type="line"/>
      <point x="334" y="101" type="line"/>
      <point x="804" y="121" type="line"/>
      <point x="906" y="303" type="line"/>
      <point x="1000" y="277" type="line"/>
      <point x="924" y="0" type="line"/>
      <point x="22" y="0" type="line"/>
      <point x="31" y="75" type="line"/>
    </contour>
  </outline>
</glyph>
<glyph name="Igrave" format="1">
  <advance width="608"/>
  <unicode hex="00CC"/>
  <note>
	Igrave
  </note>
  <outline>
    <contour>
      <point x="159" y="101" type="line"/>
      <point x="298" y="1202" type="line"/>
      <point x="183" y="1222" type="line"/>
      <point x="194" y="1309" type="line"/>
      <point x="615" y="1309" type="line"/>
      <point x="605" y="1222" type="line"/>
      <point x="474" y="1202" type="line"/>
      <point x="335" y="101" type="line"/>
      <point x="470" y="76" type="line"/>
      <point x="464" y="0" type="line"/>
      <point x="24" y="0" type="line"/>
      <point x="32" y="75" type="line"/>
    </contour>
    <contour>
      <point x="263" y="1721" type="line"/>
      <point x="489" y="1427" type="line"/>
      <point x="431" y="1385" type="line"/>
      <point x="372" y="1408"/>
      <point x="284" y="1462"/>
      <point x="216" y="1526" type="curve" smooth="yes"/>
      <point x="182" y="1558"/>
      <point x="159" y="1588"/>
      <point x="147" y="1617" type="curve"/>
    </contour>
  </outline>
</glyph>
<glyph name="Iacute" format="1">
  <advance width="608"/>
  <unicode hex="00CD"/>
  <note>
	Iacute
  </note>
  <outline>
    <contour>
      <point x="159" y="101" type="line"/>
      <point x="298" y="1202" type="line"/>
      <point x="183" y="1222" type="line"/>
      <point x="194" y="1309" type="line"/>
      <point x="615" y="1309" type="line"/>
      <point x="605" y="1222" type="line"/>
      <point x="474" y="1202" type="line"/>
      <point x="335" y="101" type="line"/>
      <point x="470" y="76" type="line"/>
      <point x="464" y="0" type="line"/>
      <point x="24" y="0" type="line"/>
      <point x="32" y="75" type="line"/>
    </contour>
    <contour>
      <point x="604" y="1721" type="line"/>
      <point x="713" y="1617" type="line"/>
      <point x="685" y="1557"/>
      <point x="608" y="1490"/>
      <point x="528" y="1440" type="curve" smooth="yes"/>
      <point x="487" y="1415"/>
      <point x="452" y="1396"/>
      <point x="423" y="1385" type="curve"/>
      <point x="367" y="1427" type="line"/>
    </contour>
  </outline>
</glyph>
<glyph name="Ntilde" format="1">
  <advance width="1305"/>
  <unicode hex="00D1"/>
  <note>
	Ntilde
  </note>
  <outline>
    <contour>
      <point x="457" y="1549" type="line"/>
      <point x="488" y="1630"/>
      <point x="558" y="1695"/>
      <point x="650" y="1695" type="curve" smooth="yes"/>
      <point x="706" y="1695"/>
      <point x="742" y="1672"/>
      <point x="795" y="1628" type="curve"/>
      <point x="843" y="1591"/>
      <point x="867" y="1574"/>
      <point x="904" y="1574" type="curve" smooth="yes"/>
      <point x="947" y="1574"/>
      <point x="978" y="1592"/>
      <point x="996" y="1610" type="curve" smooth="yes"/>
      <point x="1005" y="1619"/>
      <point x="1016" y="1632"/>
      <point x="1030" y="1649" type="curve"/>
      <point x="1080" y="1578" type="line"/>
      <point x="1052" y="1501"/>
      <point x="985" y="1432"/>
      <point x="888" y="1432" type="curve" smooth="yes"/>
      <point x="829" y="1432"/>
      <point x="794" y="1454"/>
      <point x="742" y="1498" type="curve" smooth="yes"/>
      <point x="697" y="1535"/>
      <point x="671" y="1553"/>
      <point x="631" y="1553" type="curve" smooth="yes"/>
      <point x="580" y="1553"/>
      <point x="543" y="1526"/>
      <point x="507" y="1478" type="curve"/>
    </contour>
    <contour>
      <point x="151" y="99" type="line"/>
      <point x="298" y="1202" type="line"/>
      <point x="171" y="1222" type="line"/>
      <point x="186" y="1309" type="line"/>
      <point x="485" y="1309" type="line"/>
      <point x="884" y="364" type="line"/>
      <point x="945" y="163" type="line"/>
      <point x="1069" y="1202" type="line"/>
      <point x="939" y="1222" type="line"/>
      <point x="949" y="1309" type="line"/>
      <point x="1339" y="1309" type="line"/>
      <point x="1330" y="1222" type="line"/>
      <point x="1206" y="1202" type="line"/>
      <point x="1031" y="0" type="line"/>
      <point x="863" y="0" type="line"/>
      <point x="459" y="949" type="line"/>
      <point x="406" y="1140" type="line"/>
      <point x="297" y="101" type="line"/>
      <point x="436" y="76" type="line"/>
      <point x="428" y="0" type="line"/>
      <point x="28" y="0" type="line"/>
      <point x="34" y="75" type="line"/>
    </contour>
  </outline>
</glyph>
<glyph name="Ograve" format="1">
  <advance width="1189"/>
  <unicode hex="00D2"/>
  <note>
	Ograve
  </note>
  <outline>
    <contour>
      <point x="538" y="1721" type="line"/>
      <point x="764" y="1427" type="line"/>
      <point x="706" y="1385" type="line"/>
      <point x="647" y="1408"/>
      <point x="559" y="1462"/>
      <point x="491" y="1526" type="curve" smooth="yes"/>
      <point x="457" y="1558"/>
      <point x="434" y="1588"/>
      <point x="422" y="1617" type="curve"/>
    </contour>
    <contour>
      <point x="889" y="1326"/>
      <point x="1019" y="1219"/>
      <point x="1082" y="1049" type="curve" smooth="yes"/>
      <point x="1113" y="964"/>
      <point x="1129" y="869"/>
      <point x="1129" y="764" type="curve" smooth="yes"/>
      <point x="1129" y="471"/>
      <point x="1019" y="221"/>
      <point x="839" y="85" type="curve" smooth="yes"/>
      <point x="748" y="17"/>
      <point x="646" y="-17"/>
      <point x="533" y="-17" type="curve" smooth="yes"/>
      <point x="342" y="-17"/>
      <point x="212" y="93"/>
      <point x="149" y="265" type="curve" smooth="yes"/>
      <point x="118" y="351"/>
      <point x="102" y="447"/>
      <point x="102" y="552" type="curve" smooth="yes"/>
      <point x="102" y="844"/>
      <point x="212" y="1092"/>
      <point x="394" y="1226" type="curve" smooth="yes"/>
      <point x="485" y="1293"/>
      <point x="586" y="1326"/>
      <point x="698" y="1326" type="curve" smooth="yes"/>
    </contour>
    <contour>
      <point x="945" y="931"/>
      <point x="904" y="1079"/>
      <point x="821" y="1159" type="curve" smooth="yes"/>
      <point x="780" y="1199"/>
      <point x="729" y="1219"/>
      <point x="669" y="1219" type="curve" smooth="yes"/>
      <point x="524" y="1219"/>
      <point x="400" y="1103"/>
      <point x="332" y="908" type="curve" smooth="yes"/>
      <point x="298" y="811"/>
      <point x="281" y="701"/>
      <point x="281" y="578" type="curve" smooth="yes"/>
      <point x="281" y="383"/>
      <point x="322" y="231"/>
      <point x="405" y="148" type="curve" smooth="yes"/>
      <point x="446" y="107"/>
      <point x="497" y="86"/>
      <point x="557" y="86" type="curve" smooth="yes"/>
      <point x="702" y="86"/>
      <point x="827" y="204"/>
      <point x="895" y="401" type="curve" smooth="yes"/>
      <point x="928" y="500"/>
      <point x="945" y="611"/>
      <point x="945" y="734" type="curve" smooth="yes"/>
    </contour>
  </outline>
</glyph>
<glyph name="Oacute" format="1">
  <advance width="1189"/>
  <unicode hex="00D3"/>
  <note>
	Oacute
  </note>
  <outline>
    <contour>
      <point x="880" y="1721" type="line"/>
      <point x="989" y="1617" type="line"/>
      <point x="961" y="1557"/>
      <point x="884" y="1490"/>
      <point x="804" y="1440" type="curve" smooth="yes"/>
      <point x="763" y="1415"/>
      <point x="728" y="1396"/>
      <point x="699" y="1385" type="curve"/>
      <point x="643" y="1427" type="line"/>
    </contour>
    <contour>
      <point x="889" y="1326"/>
      <point x="1019" y="1219"/>
      <point x="1082" y="1049" type="curve" smooth="yes"/>
      <point x="1113" y="964"/>
      <point x="1129" y="869"/>
      <point x="1129" y="764" type="curve" smooth="yes"/>
      <point x="1129" y="471"/>
      <point x="1019" y="221"/>
      <point x="839" y="85" type="curve" smooth="yes"/>
      <point x="748" y="17"/>
      <point x="646" y="-17"/>
      <point x="533" y="-17" type="curve" smooth="yes"/>
      <point x="342" y="-17"/>
      <point x="212" y="93"/>
      <point x="149" y="265" type="curve" smooth="yes"/>
      <point x="118" y="351"/>
      <point x="102" y="447"/>
      <point x="102" y="552" type="curve" smooth="yes"/>
      <point x="102" y="844"/>
      <point x="212" y="1092"/>
      <point x="394" y="1226" type="curve" smooth="yes"/>
      <point x="485" y="1293"/>
      <point x="586" y="1326"/>
      <point x="698" y="1326" type="curve" smooth="yes"/>
    </contour>
    <contour>
      <point x="945" y="931"/>
      <point x="904" y="1079"/>
      <point x="821" y="1159" type="curve" smooth="yes"/>
      <point x="780" y="1199"/>
      <point x="729" y="1219"/>
      <point x="669" y="1219" type="curve" smooth="yes"/>
      <point x="524" y="1219"/>
      <point x="400" y="1103"/>
      <point x="332" y="908" type="curve" smooth="yes"/>
      <point x="298" y="811"/>
      <point x="281" y="701"/>
      <point x="281" y="578" type="curve" smooth="yes"/>
      <point x="281" y="383"/>
      <point x="322" y="231"/>
      <point x="405" y="148" type="curve" smooth="yes"/>
      <point x="446" y="107"/>
      <point x="497" y="86"/>
      <point x="557" y="86" type="curve" smooth="yes"/>
      <point x="702" y="86"/>
      <point x="827" y="204"/>
      <point x="895" y="401" type="curve" smooth="yes"/>
      <point x="928" y="500"/>
      <point x="945" y="611"/>
      <point x="945" y="734" type="curve" smooth="yes"/>
    </contour>
  </outline>
</glyph>
<glyph name="Otilde" format="1">
  <advance width="1189"/>
  <unicode hex="00D5"/>
  <note>
	Otilde
  </note>
  <outline>
    <contour>
      <point x="420" y="1549" type="line"/>
      <point x="451" y="1630"/>
      <point x="521" y="1695"/>
      <point x="613" y="1695" type="curve" smooth="yes"/>
      <point x="669" y="1695"/>
      <point x="705" y="1672"/>
      <point x="758" y="1628" type="curve"/>
      <point x="806" y="1591"/>
      <point x="830" y="1574"/>
      <point x="867" y="1574" type="curve" smooth="yes"/>
      <point x="910" y="1574"/>
      <point x="941" y="1592"/>
      <point x="959" y="1610" type="curve" smooth="yes"/>
      <point x="968" y="1619"/>
      <point x="979" y="1632"/>
      <point x="993" y="1649" type="curve"/>
      <point x="1043" y="1578" type="line"/>
      <point x="1015" y="1501"/>
      <point x="948" y="1432"/>
      <point x="851" y="1432" type="curve" smooth="yes"/>
      <point x="792" y="1432"/>
      <point x="757" y="1454"/>
      <point x="705" y="1498" type="curve" smooth="yes"/>
      <point x="660" y="1535"/>
      <point x="634" y="1553"/>
      <point x="594" y="1553" type="curve" smooth="yes"/>
      <point x="543" y="1553"/>
      <point x="506" y="1526"/>
      <point x="470" y="1478" type="curve"/>
    </contour>
    <contour>
      <point x="889" y="1326"/>
      <point x="1019" y="1219"/>
      <point x="1082" y="1049" type="curve" smooth="yes"/>
      <point x="1113" y="964"/>
      <point x="1129" y="869"/>
      <point x="1129" y="764" type="curve" smooth="yes"/>
      <point x="1129" y="471"/>
      <point x="1019" y="221"/>
      <point x="839" y="85" type="curve" smooth="yes"/>
      <point x="748" y="17"/>
      <point x="646" y="-17"/>
      <point x="533" y="-17" type="curve" smooth="yes"/>
      <point x="342" y="-17"/>
      <point x="212" y="93"/>
      <point x="149" y="265" type="curve" smooth="yes"/>
      <point x="118" y="351"/>
      <point x="102" y="447"/>
      <point x="102" y="552" type="curve" smooth="yes"/>
      <point x="102" y="844"/>
      <point x="212" y="1092"/>
      <point x="394" y="1226" type="curve" smooth="yes"/>
      <point x="485" y="1293"/>
      <point x="586" y="1326"/>
      <point x="698" y="1326" type="curve" smooth="yes"/>
    </contour>
    <contour>
      <point x="945" y="931"/>
      <point x="904" y="1079"/>
      <point x="821" y="1159" type="curve" smooth="yes"/>
      <point x="780" y="1199"/>
      <point x="729" y="1219"/>
      <point x="669" y="1219" type="curve" smooth="yes"/>
      <point x="524" y="1219"/>
      <point x="400" y="1103"/>
      <point x="332" y="908" type="curve" smooth="yes"/>
      <point x="298" y="811"/>
      <point x="281" y="701"/>
      <point x="281" y="578" type="curve" smooth="yes"/>
      <point x="281" y="383"/>
      <point x="322" y="231"/>
      <point x="405" y="148" type="curve" smooth="yes"/>
      <point x="446" y="107"/>
      <point x="497" y="86"/>
      <point x="557" y="86" type="curve" smooth="yes"/>
      <point x="702" y="86"/>
      <point x="827" y="204"/>
      <point x="895" y="401" type="curve" smooth="yes"/>
      <point x="928" y="500"/>
      <point x="945" y="611"/>
      <point x="945" y="734" type="curve" smooth="yes"/>
    </contour>
  </outline>
</glyph>
<glyph name="Odieresis" format="1">
  <advance width="1189"/>
  <unicode hex="00D6"/>
  <note>
	Odieresis
  </note>
  <outline>
    <contour>
      <point x="450" y="1627"/>
      <point x="478" y="1669"/>
      <point x="516" y="1693" type="curve" smooth="yes"/>
      <point x="535" y="1705"/>
      <point x="554" y="1711"/>
      <point x="574" y="1711" type="curve" smooth="yes"/>
      <point x="637" y="1711"/>
      <point x="680" y="1669"/>
      <point x="680" y="1614" type="curve" smooth="yes"/>
      <point x="680" y="1569"/>
      <point x="653" y="1526"/>
      <point x="613" y="1502" type="curve" smooth="yes"/>
      <point x="592" y="1489"/>
      <point x="571" y="1483"/>
      <point x="548" y="1483" type="curve" smooth="yes"/>
      <point x="495" y="1483"/>
      <point x="450" y="1529"/>
      <point x="450" y="1582" type="curve" smooth="yes"/>
    </contour>
    <contour>
      <point x="810" y="1628"/>
      <point x="839" y="1670"/>
      <point x="878" y="1694" type="curve" smooth="yes"/>
      <point x="897" y="1705"/>
      <point x="917" y="1711"/>
      <point x="936" y="1711" type="curve" smooth="yes"/>
      <point x="999" y="1711"/>
      <point x="1041" y="1670"/>
      <point x="1041" y="1615" type="curve" smooth="yes"/>
      <point x="1041" y="1570"/>
      <point x="1015" y="1526"/>
      <point x="975" y="1502" type="curve" smooth="yes"/>
      <point x="954" y="1489"/>
      <point x="932" y="1483"/>
      <point x="909" y="1483" type="curve" smooth="yes"/>
      <point x="856" y="1483"/>
      <point x="810" y="1528"/>
      <point x="810" y="1584" type="curve" smooth="yes"/>
    </contour>
    <contour>
      <point x="889" y="1326"/>
      <point x="1019" y="1219"/>
      <point x="1082" y="1049" type="curve" smooth="yes"/>
      <point x="1113" y="964"/>
      <point x="1129" y="869"/>
      <point x="1129" y="764" type="curve" smooth="yes"/>
      <point x="1129" y="471"/>
      <point x="1019" y="221"/>
      <point x="839" y="85" type="curve" smooth="yes"/>
      <point x="748" y="17"/>
      <point x="646" y="-17"/>
      <point x="533" y="-17" type="curve" smooth="yes"/>
      <point x="342" y="-17"/>
      <point x="212" y="93"/>
      <point x="149" y="265" type="curve" smooth="yes"/>
      <point x="118" y="351"/>
      <point x="102" y="447"/>
      <point x="102" y="552" type="curve" smooth="yes"/>
      <point x="102" y="844"/>
      <point x="212" y="1092"/>
      <point x="394" y="1226" type="curve" smooth="yes"/>
      <point x="485" y="1293"/>
      <point x="586" y="1326"/>
      <point x="698" y="1326" type="curve" smooth="yes"/>
    </contour>
    <contour>
      <point x="945" y="931"/>
      <point x="904" y="1079"/>
      <point x="821" y="1159" type="curve" smooth="yes"/>
      <point x="780" y="1199"/>
      <point x="729" y="1219"/>
      <point x="669" y="1219" type="curve" smooth="yes"/>
      <point x="524" y="1219"/>
      <point x="400" y="1103"/>
      <point x="332" y="908" type="curve" smooth="yes"/>
      <point x="298" y="811"/>
      <point x="281" y="701"/>
      <point x="281" y="578" type="curve" smooth="yes"/>
      <point x="281" y="383"/>
      <point x="322" y="231"/>
      <point x="405" y="148" type="curve" smooth="yes"/>
      <point x="446" y="107"/>
      <point x="497" y="86"/>
      <point x="557" y="86" type="curve" smooth="yes"/>
      <point x="702" y="86"/>
      <point x="827" y="204"/>
      <point x="895" y="401" type="curve" smooth="yes"/>
      <point x="928" y="500"/>
      <point x="945" y="611"/>
      <point x="945" y="734" type="curve" smooth="yes"/>
    </contour>
  </outline>
</glyph>
<glyph name="multiply" format="1">
  <advance width="1178"/>
  <unicode hex="00D7"/>
  <note>
	multiply
  </note>
  <outline>
    <contour>
      <point x="527" y="658" type="line"/>
      <point x="268" y="939" type="line"/>
      <point x="383" y="1046" type="line"/>
      <point x="624" y="745" type="line"/>
      <point x="658" y="777"/>
      <point x="711" y="827"/>
      <point x="783" y="896" type="curve" smooth="yes"/>
      <point x="855" y="964"/>
      <point x="908" y="1014"/>
      <point x="942" y="1046" type="curve"/>
      <point x="1030" y="939" type="line"/>
      <point x="701" y="658" type="line"/>
      <point x="960" y="377" type="line"/>
      <point x="845" y="270" type="line"/>
      <point x="604" y="571" type="line"/>
      <point x="570" y="539"/>
      <point x="517" y="489"/>
      <point x="445" y="421" type="curve" smooth="yes"/>
      <point x="373" y="352"/>
      <point x="320" y="302"/>
      <point x="286" y="270" type="curve"/>
      <point x="198" y="377" type="line"/>
    </contour>
  </outline>
</glyph>
<glyph name="Ugrave" format="1">
  <advance width="1188"/>
  <unicode hex="00D9"/>
  <note>
	Ugrave
  </note>
  <outline>
    <contour>
      <point x="526" y="1721" type="line"/>
      <point x="752" y="1427" type="line"/>
      <point x="694" y="1385" type="line"/>
      <point x="635" y="1408"/>
      <point x="547" y="1462"/>
      <point x="479" y="1526" type="curve" smooth="yes"/>
      <point x="445" y="1558"/>
      <point x="422" y="1588"/>
      <point x="410" y="1617" type="curve"/>
    </contour>
    <contour>
      <point x="224" y="1202" type="line"/>
      <point x="109" y="1223" type="line"/>
      <point x="120" y="1309" type="line"/>
      <point x="542" y="1309" type="line"/>
      <point x="532" y="1223" type="line"/>
      <point x="401" y="1201" type="line"/>
      <point x="311" y="525" type="line" smooth="yes"/>
      <point x="305" y="465"/>
      <point x="302" y="415"/>
      <point x="302" y="374" type="curve" smooth="yes"/>
      <point x="302" y="182"/>
      <point x="388" y="78"/>
      <point x="544" y="78" type="curve" smooth="yes"/>
      <point x="737" y="78"/>
      <point x="853" y="235"/>
      <point x="888" y="538" type="curve" smooth="yes"/>
      <point x="976" y="1201" type="line"/>
      <point x="861" y="1222" type="line"/>
      <point x="870" y="1309" type="line"/>
      <point x="1244" y="1309" type="line"/>
      <point x="1233" y="1222" type="line"/>
      <point x="1127" y="1202" type="line"/>
      <point x="1037" y="539" type="line" smooth="yes"/>
      <point x="1002" y="272"/>
      <point x="916" y="113"/>
      <point x="774" y="39" type="curve" smooth="yes"/>
      <point x="703" y="2"/>
      <point x="617" y="-17"/>
      <point x="517" y="-17" type="curve" smooth="yes"/>
      <point x="352" y="-17"/>
      <point x="233" y="48"/>
      <point x="173" y="163" type="curve" smooth="yes"/>
      <point x="112" y="278"/>
      <point x="123" y="419"/>
      <point x="132" y="510" type="curve" smooth="yes"/>
    </contour>
  </outline>
</glyph>
<glyph name="Udieresis" format="1">
  <advance width="1188"/>
  <unicode hex="00DC"/>
  <note>
	Udieresis
  </note>
  <outline>
    <contour>
      <point x="438" y="1627"/>
      <point x="466" y="1669"/>
      <point x="504" y="1693" type="curve" smooth="yes"/>
      <point x="523" y="1705"/>
      <point x="542" y="1711"/>
      <point x="562" y="1711" type="curve" smooth="yes"/>
      <point x="625" y="1711"/>
      <point x="668" y="1669"/>
      <point x="668" y="1614" type="curve" smooth="yes"/>
      <point x="668" y="1569"/>
      <point x="641" y="1526"/>
      <point x="601" y="1502" type="curve" smooth="yes"/>
      <point x="580" y="1489"/>
      <point x="559" y="1483"/>
      <point x="536" y="1483" type="curve" smooth="yes"/>
      <point x="483" y="1483"/>
      <point x="438" y="1529"/>
      <point x="438" y="1582" type="curve" smooth="yes"/>
    </contour>
    <contour>
      <point x="798" y="1628"/>
      <point x="827" y="1670"/>
      <point x="866" y="1694" type="curve" smooth="yes"/>
      <point x="885" y="1705"/>
      <point x="905" y="1711"/>
      <point x="924" y="1711" type="curve" smooth="yes"/>
      <point x="987" y="1711"/>
      <point x="1029" y="1670"/>
      <point x="1029" y="1615" type="curve" smooth="yes"/>
      <point x="1029" y="1570"/>
      <point x="1003" y="1526"/>
      <point x="963" y="1502" type="curve" smooth="yes"/>
      <point x="942" y="1489"/>
      <point x="920" y="1483"/>
      <point x="897" y="1483" type="curve" smooth="yes"/>
      <point x="844" y="1483"/>
      <point x="798" y="1528"/>
      <point x="798" y="1584" type="curve" smooth="yes"/>
    </contour>
    <contour>
      <point x="224" y="1202" type="line"/>
      <point x="109" y="1223" type="line"/>
      <point x="120" y="1309" type="line"/>
      <point x="542" y="1309" type="line"/>
      <point x="532" y="1223" type="line"/>
      <point x="401" y="1201" type="line"/>
      <point x="311" y="525" type="line" smooth="yes"/>
      <point x="305" y="465"/>
      <point x="302" y="415"/>
      <point x="302" y="374" type="curve" smooth="yes"/>
      <point x="302" y="182"/>
      <point x="388" y="78"/>
      <point x="544" y="78" type="curve" smooth="yes"/>
      <point x="737" y="78"/>
      <point x="853" y="235"/>
      <point x="888" y="538" type="curve" smooth="yes"/>
      <point x="976" y="1201" type="line"/>
      <point x="861" y="1222" type="line"/>
      <point x="870" y="1309" type="line"/>
      <point x="1244" y="1309" type="line"/>
      <point x="1233" y="1222" type="line"/>
      <point x="1127" y="1202" type="line"/>
      <point x="1037" y="539" type="line" smooth="yes"/>
      <point x="1002" y="272"/>
      <point x="916" y="113"/>
      <point x="774" y="39" type="curve" smooth="yes"/>
      <point x="703" y="2"/>
      <point x="617" y="-17"/>
      <point x="517" y="-17" type="curve" smooth="yes"/>
      <point x="352" y="-17"/>
      <point x="233" y="48"/>
      <point x="173" y="163" type="curve" smooth="yes"/>
      <point x="112" y="278"/>
      <point x="123" y="419"/>
      <point x="132" y="510" type="curve" smooth="yes"/>
    </contour>
  </outline>
</glyph>
<glyph name="Thorn" format="1">
  <advance width="1062"/>
  <unicode hex="00DE"/>
  <note>
	Thorn
  </note>
  <outline>
    <contour>
      <point x="159" y="101" type="line"/>
      <point x="298" y="1208" type="line"/>
      <point x="183" y="1228" type="line"/>
      <point x="194" y="1316" type="line"/>
      <point x="616" y="1316" type="line"/>
      <point x="606" y="1228" type="line"/>
      <point x="474" y="1208" type="line"/>
      <point x="451" y="1028" type="line"/>
      <point x="508" y="1037"/>
      <point x="570" y="1042"/>
      <point x="637" y="1042" type="curve" smooth="yes"/>
      <point x="897" y="1042"/>
      <point x="1030" y="925"/>
      <point x="1030" y="714" type="curve" smooth="yes"/>
      <point x="1030" y="537"/>
      <point x="933" y="398"/>
      <point x="774" y="324" type="curve" smooth="yes"/>
      <point x="694" y="287"/>
      <point x="605" y="268"/>
      <point x="506" y="268" type="curve" smooth="yes"/>
      <point x="427" y="268"/>
      <point x="377" y="269"/>
      <point x="356" y="271" type="curve"/>
      <point x="335" y="101" type="line"/>
      <point x="484" y="76" type="line"/>
      <point x="477" y="0" type="line"/>
      <point x="24" y="0" type="line"/>
      <point x="33" y="75" type="line"/>
    </contour>
    <contour>
      <point x="369" y="375" type="line"/>
      <point x="414" y="369"/>
      <point x="459" y="366"/>
      <point x="504" y="366" type="curve" smooth="yes"/>
      <point x="659" y="366"/>
      <point x="765" y="421"/>
      <point x="818" y="516" type="curve" smooth="yes"/>
      <point x="870" y="611"/>
      <point x="861" y="752"/>
      <point x="830" y="828" type="curve" smooth="yes"/>
      <point x="799" y="903"/>
      <point x="727" y="940"/>
      <point x="590" y="940" type="curve" smooth="yes"/>
      <point x="538" y="940"/>
      <point x="487" y="935"/>
      <point x="438" y="924" type="curve"/>
    </contour>
  </outline>
</glyph>
